ocr-a.sfdir
StartChar: space
Encoding: 32 32 4
Width: 715
Flags: W
LayerCount: 2
Fore
SplineSet
390 528 m 1053,0,0
EndSplineSet
Validated: 1
EndChar

StartChar: exclam
Encoding: 33 33 114
Width: 715
Flags: W
LayerCount: 2
Back
Fore
SplineSet
310.24 135.27 m 0
 313.279 135.901 320.903 136.045 344.276 135.911 c 0
 378.132 135.718 377.119 135.834 387.048 131.006 c 0
 396.867 126.229 403.947 119.156 408.736 109.337 c 0
 413.591 99.3818 413.554 99.6982 413.554 68.0723 c 0
 413.554 36.4453 413.591 36.7617 408.736 26.8066 c 0
 403.947 16.9873 396.867 9.91406 387.048 5.13867 c 0
 377.185 0.34082 377.892 0.425781 345.481 0.158203 c 0
 314.156 -0.100586 311.044 0.106445 302.892 2.98828 c 0
 295.964 5.4375 291.827 8.17188 285.542 14.457 c 0
 279.399 20.5996 276.641 24.6982 274.269 31.2041 c 0
 271.356 39.1914 271.084 42.3486 271.084 68.0723 c 0
 271.084 93.7949 271.356 96.9521 274.269 104.939 c 0
 276.641 111.445 279.399 115.544 285.542 121.687 c 0
 293.367 129.512 299.939 133.126 310.24 135.27 c 0
312.349 739.365 m 0
 313.343 739.516 327.711 739.574 344.276 739.495 c 0
 378.132 739.334 377.119 739.449 387.048 734.62 c 0
 396.867 729.845 403.944 722.771 408.729 712.952 c 0
 412.015 706.206 413.21 701.807 413.64 694.88 c 0
 413.872 691.135 410.323 633.373 402.168 508.133 c 0
 395.673 408.373 390.205 325.588 390.015 324.096 c 0
 388.627 313.252 383.061 302.177 375.422 295.06 c 0
 370.434 290.412 363.675 286.361 357.289 284.192 c 0
 351.775 282.32 351.084 282.23 342.47 282.259 c 0
 333.915 282.287 333.125 282.392 327.65 284.213 c 0
 310.075 290.062 297.33 305.603 294.941 324.096 c 0
 293.845 332.59 271.04 690.074 271.309 694.578 c 0
 271.717 701.445 273.036 706.393 276.209 712.952 c 0
 279.299 719.337 283.474 724.673 288.734 728.958 c 0
 294.701 733.818 304.639 738.197 312.349 739.365 c 0
EndSplineSet
EndChar

StartChar: quotedbl
Encoding: 34 34 19
Width: 715
Flags: W
LayerCount: 2
Back
Fore
SplineSet
106.627 712.681 m 1
 106.627 739.759 l 1
 342.771 739.759 l 1
 578.916 739.759 l 1
 578.916 705.271 l 1
 578.916 670.783 l 1
 576.326 657.53 l 1
 573.735 644.277 l 1
 571.929 644.097 l 1
 570.121 643.916 l 1
 550.633 543.795 l 2
 539.916 488.734 530.632 441.506 530.005 438.855 c 0
 526.08 422.273 511.748 407.984 494.88 403.837 c 0
 488.796 402.341 477.62 402.473 471.567 404.111 c 0
 455.302 408.515 441.933 421.702 437.688 437.53 c 0
 437.138 439.584 427.81 486.807 416.959 542.47 c 2
 397.229 643.675 l 1
 342.471 643.675 l 1
 287.712 643.675 l 1
 267.982 542.47 l 2
 257.132 486.807 247.805 439.584 247.255 437.53 c 0
 243.03 421.726 229.94 408.789 213.435 404.104 c 0
 209.754 403.06 207.169 402.771 201.507 402.771 c 0
 194.097 402.771 190.601 403.403 183.675 405.994 c 0
 171.817 410.432 160.415 422.168 156.372 434.096 c 0
 155.429 436.881 147.261 477.35 136.688 531.626 c 0
 126.747 582.65 115.918 638.169 112.621 655 c 2
 106.627 685.603 l 1
 106.627 712.681 l 1
EndSplineSet
EndChar

StartChar: numbersign
Encoding: 35 35 20
Width: 715
Flags: W
LayerCount: 2
Back
Fore
SplineSet
239.76 738.912 m 0
 244.618 739.948 255.482 739.604 260.543 738.254 c 0
 262.551 737.718 266.566 736.113 269.579 734.644 c 0
 279.398 729.853 286.472 722.771 291.248 712.952 c 0
 296.373 702.416 296.009 707.771 296.24 639.578 c 2
 296.446 578.916 l 1
 342.501 578.916 l 1
 388.555 578.916 l 1
 388.555 637.289 l 2
 388.555 700.12 388.539 699.777 391.739 708.554 c 0
 394.111 715.061 396.871 719.159 403.013 725.301 c 0
 409.298 731.587 413.435 734.322 420.362 736.775 c 0
 433.133 741.297 445.287 740.596 457.531 734.632 c 0
 467.351 729.849 474.424 722.771 479.2 712.952 c 0
 484.325 702.416 483.961 707.771 484.192 639.578 c 2
 484.398 578.916 l 1
 509.609 578.916 l 2
 528.826 578.916 535.865 578.715 539.218 578.071 c 0
 562.174 573.664 578.435 554.156 578.435 531.023 c 0
 578.435 507.892 562.174 488.384 539.218 483.977 c 0
 535.869 483.334 528.796 483.132 509.579 483.132 c 2
 484.338 483.132 l 1
 484.338 430.422 l 1
 484.338 377.711 l 1
 509.579 377.711 l 2
 528.796 377.711 535.869 377.509 539.218 376.866 c 0
 562.174 372.459 578.435 352.951 578.435 329.819 c 0
 578.435 306.687 562.174 287.179 539.218 282.771 c 0
 535.869 282.129 528.796 281.928 509.579 281.928 c 2
 484.338 281.928 l 1
 484.338 223.253 l 2
 484.338 175.301 484.184 163.774 483.494 160.181 c 0
 479.087 137.224 459.579 120.964 436.446 120.964 c 0
 413.313 120.964 393.807 137.224 389.399 160.181 c 0
 388.709 163.774 388.555 175.301 388.555 223.253 c 2
 388.555 281.928 l 1
 342.471 281.928 l 1
 296.386 281.928 l 1
 296.386 223.253 l 2
 296.386 175.301 296.231 163.774 295.542 160.181 c 0
 291.135 137.224 271.627 120.964 248.494 120.964 c 0
 225.362 120.964 205.854 137.224 201.447 160.181 c 0
 200.757 163.776 200.603 175.271 200.603 223.223 c 2
 200.603 281.867 l 1
 173.344 282.078 l 2
 147.26 282.279 145.896 282.346 141.688 283.618 c 0
 120.271 290.092 106.627 308.072 106.627 329.819 c 0
 106.627 351.566 120.271 369.546 141.688 376.02 c 0
 145.896 377.292 147.26 377.358 173.344 377.56 c 2
 200.603 377.771 l 1
 200.603 430.422 l 1
 200.603 483.072 l 1
 173.344 483.283 l 2
 147.26 483.484 145.896 483.551 141.688 484.823 c 0
 120.331 491.279 106.627 509.337 106.627 531.023 c 0
 106.627 552.771 120.271 570.751 141.688 577.225 c 0
 145.896 578.497 147.26 578.563 173.344 578.765 c 2
 200.603 578.976 l 1
 200.603 637.289 l 2
 200.603 700.12 200.588 699.777 203.787 708.554 c 0
 206.159 715.061 208.919 719.159 215.061 725.301 c 0
 222.899 733.14 229.338 736.688 239.76 738.912 c 0
388.555 430.422 m 1
 388.555 483.132 l 1
 342.471 483.132 l 1
 296.386 483.132 l 1
 296.386 430.422 l 1
 296.386 377.711 l 1
 342.471 377.711 l 1
 388.555 377.711 l 1
 388.555 430.422 l 1
EndSplineSet
EndChar

StartChar: dollar
Encoding: 36 36 7
Width: 715
Flags: W
LayerCount: 2
Back
Fore
SplineSet
333.735 738.912 m 0
 338.595 739.948 349.459 739.604 354.519 738.254 c 0
 356.526 737.718 360.543 736.113 363.555 734.644 c 0
 373.374 729.853 380.448 722.771 385.225 712.952 c 0
 390.35 702.416 389.985 707.771 390.217 639.578 c 2
 390.422 578.916 l 1
 462.621 578.916 l 2
 522.26 578.916 535.585 578.769 539.218 578.071 c 0
 562.174 573.664 578.435 554.156 578.435 531.023 c 0
 578.435 507.892 562.174 488.384 539.218 483.977 c 0
 535.501 483.263 509.098 483.132 368.615 483.132 c 2
 202.41 483.132 l 1
 202.41 450.603 l 1
 202.41 418.072 l 1
 370.935 417.922 l 2
 530.935 417.778 539.642 417.716 543.073 416.679 c 0
 548.735 414.968 557.156 410.611 561.266 407.267 c 0
 566.527 402.984 570.709 397.65 573.813 391.265 c 0
 579.03 380.53 578.615 389.337 578.615 289.457 c 0
 578.615 189.578 579.032 198.385 573.797 187.65 c 0
 569.009 177.831 561.929 170.757 552.109 165.98 c 0
 541.472 160.807 548.735 161.223 464.94 160.989 c 2
 390.422 160.782 l 1
 390.217 100.12 l 2
 389.985 31.9873 390.35 37.3438 385.225 26.8066 c 0
 380.448 16.9873 373.374 9.91016 363.555 5.12695 c 0
 351.311 -0.837891 339.157 -1.53809 326.386 2.9834 c 0
 319.458 5.43652 315.322 8.17188 309.037 14.457 c 0
 302.895 20.5996 300.136 24.6982 297.764 31.2041 c 0
 294.563 39.9814 294.579 39.6377 294.579 102.47 c 2
 294.579 160.782 l 1
 220.332 160.964 l 1
 146.085 161.145 l 1
 141.688 162.5 l 2
 120.222 169.12 106.627 187.048 106.627 208.734 c 0
 106.627 230.481 120.126 248.279 141.688 254.962 c 2
 146.085 256.325 l 1
 314.609 256.476 l 1
 483.133 256.626 l 1
 483.133 289.457 l 1
 483.133 322.289 l 1
 316.929 322.289 l 2
 137.109 322.289 147.052 322.112 137.832 325.474 c 0
 131.326 327.846 127.227 330.604 121.085 336.747 c 0
 113.066 344.766 109.521 351.325 107.475 361.928 c 0
 106.207 368.494 106.207 532.711 107.475 539.277 c 0
 109.521 549.879 113.066 556.439 121.085 564.458 c 0
 127.227 570.6 131.326 573.359 137.832 575.73 c 0
 146.726 578.974 145.182 578.916 222.651 578.916 c 2
 294.579 578.916 l 1
 294.579 637.289 l 2
 294.579 700.12 294.563 699.777 297.764 708.555 c 0
 300.136 715.061 302.895 719.159 309.037 725.301 c 0
 316.875 733.14 323.313 736.688 333.735 738.912 c 0
EndSplineSet
EndChar
StartChar: percent
Encoding: 37 37 8
Width: 715
Flags: W
LayerCount: 2
Back
Fore
SplineSet
427.712 175.594 m 0
 430.831 176.225 442.591 176.361 485.543 176.268 c 0
 546.085 176.136 541.633 176.464 552.109 171.368 c 0
 561.929 166.592 569.009 159.518 573.797 149.698 c 0
 578.874 139.288 578.615 142.59 578.615 88.2529 c 0
 578.615 33.915 578.874 37.2168 573.797 26.8066 c 0
 569.009 16.9873 561.929 9.9082 552.109 5.12012 c 0
 541.716 0.0517578 545.965 0.375977 486.748 0.124023 c 0
 430.121 -0.116211 428.943 -0.0664062 420.423 2.95605 c 0
 413.435 5.43457 409.312 8.15918 403.013 14.457 c 0
 396.871 20.5996 394.111 24.6982 391.739 31.2041 c 0
 388.61 39.7871 388.555 40.7822 388.555 88.2529 c 0
 388.555 135.723 388.61 136.719 391.739 145.301 c 0
 394.111 151.807 396.871 155.905 403.013 162.048 c 0
 410.87 169.905 417.471 173.525 427.712 175.594 c 0
521.748 658.396 m 0
 523.198 658.681 527.29 658.945 530.784 658.982 c 0
 538.796 659.065 544.618 657.682 552.41 653.844 c 0
 557.34 651.415 558.977 650.181 564.218 644.939 c 0
 569.519 639.639 570.664 638.119 573.111 633.133 c 0
 576.985 625.241 578.441 619.337 578.46 611.445 c 0
 578.483 601.928 576.052 593.353 571.287 586.145 c 0
 570.082 584.321 484.42 474.156 380.874 341.265 c 0
 234.098 152.892 191.411 98.4775 187.019 94.1562 c 0
 182.38 89.5918 180.397 88.127 175.783 85.8535 c 0
 167.329 81.6865 161.688 80.4824 152.41 80.8652 c 0
 138.977 81.4199 130.382 85.21 120.724 94.8379 c 0
 115.482 100.062 114.249 101.696 111.828 106.626 c 0
 107.596 115.245 106.424 120.723 106.753 130.361 c 0
 107.062 139.457 108.587 144.981 112.704 151.928 c 0
 114 154.114 199.608 264.428 302.952 397.078 c 0
 445.297 579.789 492.355 639.794 497.079 644.608 c 0
 502.161 649.789 504.205 651.418 508.133 653.421 c 0
 513.254 656.032 517.383 657.541 521.748 658.396 c 0
145.783 738.848 m 0
 148.903 739.478 160.603 739.614 203.313 739.521 c 0
 263.615 739.39 259.164 739.717 269.579 734.639 c 0
 279.398 729.851 286.479 722.771 291.267 712.952 c 0
 296.344 702.541 296.085 705.844 296.085 651.506 c 0
 296.085 597.169 296.344 600.471 291.267 590.061 c 0
 286.479 580.241 279.398 573.161 269.579 568.373 c 0
 259.182 563.303 263.434 563.63 204.519 563.378 c 0
 148.254 563.137 147.005 563.19 138.494 566.21 c 0
 131.507 568.688 127.383 571.412 121.085 577.711 c 0
 113.066 585.729 109.523 592.289 107.483 602.892 c 0
 106.232 609.397 106.232 693.614 107.483 700.12 c 0
 109.523 710.723 113.066 717.282 121.085 725.301 c 0
 128.942 733.158 135.543 736.778 145.783 738.848 c 0
EndSplineSet
Validated: 33
EndChar
StartChar: ampersand
Encoding: 38 38 9
Width: 715
Flags: W
LayerCount: 2
Back
Fore
SplineSet
231.929 657.831 m 0
 239.209 658.802 245.784 658.922 294.699 658.976 c 0
 345.844 659.032 349.928 658.96 358.555 657.842 c 0
 375.422 655.656 388.629 651.712 403.916 644.292 c 0
 432.894 630.229 455.425 607.711 469.632 578.614 c 0
 477.077 563.365 481.517 548.072 483.444 531.023 c 0
 484.244 523.952 484.369 516.023 484.218 481.928 c 2
 484.037 441.265 l 1
 482.625 437.048 l 2
 480.709 431.325 477.102 424.521 473.744 420.301 c 0
 472.006 418.116 448.465 397.592 410.935 365.542 c 0
 377.922 337.35 350.43 313.843 349.85 313.312 c 0
 348.861 312.409 351.95 308.976 399.488 258.132 c 0
 427.37 228.312 450.357 203.848 450.573 203.765 c 0
 450.789 203.682 462.049 213.113 475.663 224.78 c 0
 501.266 246.722 506.319 250.589 512.771 253.181 c 0
 521.132 256.539 531.808 257.545 540.242 255.769 c 0
 562.473 251.086 578.46 231.385 578.411 208.734 c 0
 578.387 197.59 574.71 187.174 567.862 178.855 c 0
 565.984 176.573 554.549 166.319 540.452 154.276 c 2
 516.266 133.614 l 1
 517.923 131.656 l 2
 518.833 130.579 530.383 118.162 543.585 104.065 c 0
 556.787 89.9697 568.534 77.1318 569.688 75.542 c 0
 583.661 56.2646 580.833 29.459 563.073 12.8457 c 0
 548.761 -0.542969 527.29 -3.75586 510.001 4.90234 c 0
 502.172 8.82324 499.14 11.6865 471.301 41.4453 c 0
 456.198 57.5898 443.626 70.7822 443.344 70.7822 c 0
 443.062 70.7822 427.32 57.5059 408.344 41.2646 c 0
 389.368 25.0234 372.475 10.6846 370.784 9.38477 c 0
 367.276 6.68848 359.699 2.9873 354.519 1.44043 c 0
 351.187 0.445312 346.688 0.344727 296.988 0.150391 c 0
 251.446 -0.0283203 241.819 0.0839844 235.001 0.871094 c 0
 167.893 8.61426 115.399 60.999 107.538 128.072 c 0
 106.813 134.256 106.627 143.976 106.627 175.662 c 0
 106.627 213.674 106.683 215.697 107.853 220.24 c 0
 110.148 229.156 114.519 236.661 121.205 243.172 c 0
 123.291 245.202 144.157 263.242 167.53 283.223 c 0
 190.904 303.202 210.169 319.714 210.302 319.879 c 0
 210.435 320.045 189.662 342.5 164.188 369.729 c 0
 138.713 396.958 116.8 420.661 115.541 422.35 c 0
 112.382 426.587 109.269 433.253 107.832 438.855 c 0
 106.688 443.314 106.627 445.603 106.627 483.795 c 0
 106.627 528.434 106.996 534.27 110.795 549.698 c 0
 119.502 585.061 140.965 615.456 171.386 635.507 c 0
 188.97 647.096 210.241 654.939 231.929 657.831 c 0
353.313 561.824 m 0
 349.994 562.805 345.422 562.901 297.29 563.012 c 0
 268.435 563.078 243.607 562.912 242.049 562.643 c 0
 223.856 559.496 209.553 546.771 204.141 528.915 c 0
 202.82 524.56 202.764 523.403 202.561 496.656 c 2
 202.35 468.915 l 1
 242.41 426.084 l 2
 264.44 402.53 282.741 383.09 283.073 382.892 c 0
 283.404 382.692 307.26 402.646 336.115 427.259 c 2
 388.555 471.987 l 1
 388.355 498.192 l 2
 388.132 527.65 388.172 527.33 383.438 537.048 c 0
 377.601 549.028 366.929 557.807 353.313 561.824 c 0
327.169 195.542 m 2
 299.33 225.301 276.303 249.739 276.055 249.789 c 0
 275.807 249.839 259.097 235.735 238.977 218.493 c 2
 202.35 187.108 l 1
 202.578 161.204 l 2
 202.832 132.349 202.832 132.349 207.284 123.072 c 0
 213.167 110.812 224.097 101.547 237.471 97.4814 c 0
 241.817 96.1592 242.35 96.1416 283.435 95.9629 c 2
 325.001 95.7822 l 1
 350.001 117.198 l 2
 363.735 128.964 375.639 139.238 376.416 140 c 2
 377.832 141.385 l 1
 327.169 195.542 l 2
EndSplineSet
Validated: 33
EndChar
StartChar: quotesingle
Encoding: 39 39 10
Width: 715
Flags: W
LayerCount: 2
Back
Fore
SplineSet
286.747 738.848 m 0
 289.866 739.478 301.566 739.614 344.276 739.521 c 0
 404.578 739.39 400.127 739.717 410.542 734.64 c 0
 420.3 729.882 427.357 722.831 432.253 712.952 c 0
 433.745 709.939 435.357 705.924 435.88 703.916 c 0
 437.228 698.734 437.651 689.6 436.778 684.578 c 0
 435.922 679.658 341.549 356.265 339.492 351.204 c 0
 335.361 341.04 326.023 331.393 315.603 326.522 c 0
 303.415 320.827 288.132 320.782 275.723 326.404 c 0
 263.167 332.092 253.62 343.252 249.254 357.349 c 2
 247.892 361.747 l 1
 247.711 528.012 l 2
 247.575 652.47 247.705 695.413 248.228 698.795 c 0
 249.103 704.458 251.544 711.461 254.255 716.084 c 0
 256.903 720.603 266.712 730.42 271.204 733.052 c 0
 275.419 735.52 281.506 737.789 286.747 738.848 c 0
EndSplineSet
Validated: 33
EndChar
StartChar: parenleft
Encoding: 40 40 11
Width: 715
Flags: W
LayerCount: 2
Back
Fore
SplineSet
427.711 738.898 m 0
 433.122 740.027 443.554 739.568 449.277 737.949 c 0
 464.704 733.587 476.65 722.169 482.049 706.626 c 0
 483.956 701.133 484.035 700.542 484.006 691.867 c 0
 483.977 683.192 483.896 682.599 481.987 677.018 c 0
 480.875 673.765 478.739 669.255 477.139 666.777 c 0
 475.565 664.343 449 629.939 418.132 590.361 c 0
 387.265 550.783 360.722 516.475 359.177 514.156 c 0
 352.556 504.226 347.083 490.481 344.785 478.012 c 0
 343.731 472.297 343.675 466.747 343.675 369.879 c 0
 343.675 273.012 343.731 267.462 344.785 261.747 c 0
 347.083 249.276 352.556 235.533 359.177 225.602 c 0
 360.722 223.283 387.265 188.976 418.132 149.397 c 0
 449 109.818 475.565 75.416 477.139 72.9814 c 0
 478.739 70.5039 480.875 65.9932 481.987 62.7402 c 0
 483.896 57.1602 483.977 56.5654 484.006 47.8906 c 0
 484.035 39.2168 483.957 38.626 482.053 33.1318 c 0
 475.451 14.0811 459.217 1.52832 439.458 0.196289 c 0
 425.783 -0.725586 412.1 4.67676 402.421 14.8184 c 0
 398.713 18.7041 289.978 157.831 282.598 168.132 c 0
 265.337 192.227 254.008 221.084 249.275 253.012 c 2
 247.892 262.349 l 1
 247.892 369.879 l 1
 247.892 477.409 l 1
 249.275 486.747 l 2
 254.008 518.675 265.336 547.531 282.596 571.626 c 0
 290.018 581.988 398.647 721 402.354 724.88 c 0
 409.158 732.002 417.951 736.863 427.711 738.898 c 0
EndSplineSet
Validated: 33
EndChar

StartChar: parenright
Encoding: 41 41 12
Width: 715
Flags: W
LayerCount: 2
Back
Fore
SplineSet
241.867 739.309 m 0
 251.807 740.678 263.94 738.209 272.711 733.032 c 0
 280.126 728.654 284.355 723.554 342.812 648.494 c 0
 374.057 608.373 400.963 573.625 402.659 571.205 c 0
 420.072 546.349 430.933 518.554 435.66 486.747 c 2
 437.048 477.409 l 1
 437.048 369.879 l 1
 437.048 262.349 l 1
 435.66 253.012 l 2
 430.933 221.204 420.072 193.409 402.659 168.554 c 0
 400.963 166.133 374.057 131.385 342.812 91.2646 c 0
 284.309 16.1445 280.128 11.1045 272.65 6.67871 c 0
 264.918 2.10254 254.276 -0.441406 245.481 0.183594 c 0
 238.675 0.666992 233.863 1.97461 227.409 5.0957 c 0
 215.251 10.9746 206.545 21.3252 202.309 34.9395 c 0
 201.114 38.7793 200.903 40.7227 200.903 47.8906 c 0
 200.903 55.0596 201.114 57.0029 202.312 60.8428 c 0
 205.044 69.5996 207.6 73.373 232.09 104.818 c 0
 245.126 121.557 271.133 154.939 289.909 179.036 c 0
 308.686 203.132 325.049 224.402 326.289 226.325 c 0
 332.545 236.026 337.917 249.759 340.145 261.747 c 0
 341.207 267.462 341.265 273.012 341.265 369.879 c 0
 341.265 466.747 341.207 472.297 340.145 478.012 c 0
 337.917 490 332.545 503.732 326.289 513.434 c 0
 325.049 515.355 308.686 536.626 289.909 560.723 c 0
 271.133 584.819 245.126 618.201 232.09 634.939 c 0
 207.6 666.386 205.044 670.159 202.312 678.916 c 0
 201.114 682.756 200.903 684.698 200.903 691.867 c 0
 200.903 699.036 201.114 700.979 202.312 704.819 c 0
 204.098 710.542 207.646 717.38 211.128 721.808 c 0
 218.017 730.565 230.662 737.766 241.867 739.309 c 0
EndSplineSet
EndChar

StartChar: asterisk
Encoding: 42 42 27
Width: 715
Flags: W
LayerCount: 2
Back
Fore
SplineSet
331.024 657.817 m 0
 334.954 658.811 337.289 658.995 343.676 658.812 c 0
 352.712 658.556 356.582 657.654 363.676 654.154 c 0
 375.386 648.377 384.604 637.289 388.669 624.097 c 2
 390.061 619.578 l 1
 390.362 546.807 l 1
 390.663 474.036 l 1
 446.085 521.415 l 2
 476.567 547.475 502.591 569.542 503.916 570.454 c 0
 513.029 576.729 525.844 579.828 536.567 578.351 c 0
 560.784 575.014 578.395 555.102 578.422 531.023 c 0
 578.432 522.892 577.03 517.068 573.162 509.156 c 0
 570.918 504.567 569.42 502.53 564.88 497.892 c 0
 561.831 494.775 527.229 464.808 487.952 431.265 c 0
 448.676 397.722 416.567 370.111 416.567 369.879 c 0
 416.567 369.647 448.676 342.037 487.952 308.493 c 0
 527.229 274.95 561.831 244.982 564.88 241.867 c 0
 569.42 237.229 570.918 235.191 573.162 230.602 c 0
 577.03 222.69 578.435 216.867 578.435 208.734 c 0
 578.435 200.783 577.013 194.725 573.472 187.59 c 0
 566.426 173.394 552.651 163.62 536.567 161.406 c 0
 525.844 159.93 513.029 163.029 503.916 169.304 c 0
 502.591 170.217 476.567 192.284 446.085 218.343 c 2
 390.663 265.723 l 1
 390.362 192.951 l 1
 390.061 120.181 l 1
 388.669 115.662 l 2
 384.604 102.47 375.386 91.3818 363.676 85.6045 c 0
 356.853 82.2383 352.712 81.2324 344.277 80.8926 c 0
 338.254 80.6504 336.146 80.8154 331.627 81.8838 c 0
 314.819 85.8594 301.531 98.5537 296.27 115.662 c 2
 294.88 120.181 l 1
 294.579 192.951 l 1
 294.277 265.723 l 1
 238.313 217.861 l 2
 207.53 191.534 180.913 169.133 179.157 168.073 c 0
 171.236 163.295 163.555 161.217 153.916 161.244 c 0
 147.892 161.261 145.783 161.537 141.266 162.9 c 0
 130.965 166.009 122.573 171.734 116.381 179.879 c 0
 109.634 188.755 106.627 197.65 106.627 208.734 c 0
 106.627 222.47 111.439 233.711 121.507 243.49 c 0
 123.761 245.68 157.711 274.904 196.988 308.464 c 0
 236.266 342.023 268.374 369.647 268.374 369.879 c 0
 268.374 370.111 236.266 397.735 196.988 431.295 c 0
 157.711 464.854 123.761 494.079 121.507 496.269 c 0
 111.439 506.048 106.627 517.289 106.627 531.023 c 0
 106.627 542.108 109.634 551.004 116.381 559.879 c 0
 122.573 568.024 130.965 573.75 141.266 576.857 c 0
 145.783 578.221 147.893 578.497 153.916 578.515 c 0
 163.555 578.542 171.236 576.464 179.157 571.686 c 0
 180.913 570.626 207.53 548.224 238.313 521.897 c 2
 294.277 474.036 l 1
 294.579 546.807 l 1
 294.88 619.578 l 1
 296.277 624.097 l 2
 301.473 640.903 314.629 653.671 331.024 657.817 c 0
EndSplineSet
EndChar
StartChar: plus
Encoding: 43 43 14
Width: 715
Flags: W
LayerCount: 2
Back
Fore
SplineSet
333.735 605.177 m 0
 338.595 606.214 349.459 605.87 354.519 604.519 c 0
 356.526 603.983 360.543 602.378 363.555 600.908 c 0
 373.374 596.117 380.448 589.036 385.225 579.217 c 0
 390.4 568.576 389.982 575.844 390.216 492.289 c 2
 390.422 418.072 l 1
 462.621 418.072 l 2
 522.26 418.072 535.585 417.925 539.218 417.228 c 0
 562.174 412.82 578.435 393.312 578.435 370.181 c 0
 578.435 347.048 562.174 327.54 539.218 323.133 c 0
 535.585 322.436 522.26 322.289 462.621 322.289 c 2
 390.422 322.289 l 1
 390.216 247.771 l 2
 389.982 163.915 390.398 171.179 385.225 160.542 c 0
 380.448 150.723 373.374 143.646 363.555 138.862 c 0
 351.311 132.897 339.157 132.196 326.386 136.719 c 0
 319.458 139.172 315.322 141.907 309.037 148.192 c 0
 302.895 154.334 300.136 158.434 297.764 164.939 c 0
 294.519 173.84 294.579 172.229 294.579 250.06 c 2
 294.579 322.229 l 1
 220.332 322.409 l 1
 146.085 322.59 l 1
 141.688 323.946 l 2
 120.222 330.566 106.627 348.494 106.627 370.181 c 0
 106.627 391.867 120.222 409.795 141.688 416.415 c 2
 146.085 417.771 l 1
 220.332 417.951 l 1
 294.579 418.132 l 1
 294.579 490 l 2
 294.579 567.47 294.521 565.925 297.764 574.819 c 0
 300.136 581.325 302.895 585.424 309.037 591.566 c 0
 316.875 599.404 323.313 602.953 333.735 605.177 c 0
EndSplineSet
Validated: 33
EndChar

StartChar: comma
Encoding: 44 44 29
Width: 715
Flags: W
LayerCount: 2
Back
Fore
SplineSet
241.867 336.913 m 0
 242.861 337.054 288.915 337.128 344.276 337.079 c 0
 457.59 336.979 446.772 337.443 457.53 332.211 c 0
 467.35 327.435 474.429 320.361 479.218 310.541 c 0
 484.513 299.684 484.036 313.734 484.036 168.674 c 0
 484.036 23.6143 484.513 37.665 479.218 26.8066 c 0
 474.429 16.9873 467.35 9.91016 457.53 5.12695 c 0
 445.286 -0.837891 433.132 -1.53809 420.361 2.9834 c 0
 413.434 5.43652 409.297 8.17188 403.012 14.457 c 0
 396.87 20.5996 394.11 24.6982 391.738 31.2041 c 0
 388.44 40.251 388.554 36.2646 388.554 142.831 c 2
 388.554 241.506 l 1
 314.276 241.713 l 2
 230.843 241.945 238.042 241.534 227.409 246.671 c 0
 215.251 252.544 206.54 262.891 202.293 276.506 c 0
 200.244 283.072 200.25 295.843 202.305 302.409 c 0
 204.095 308.132 207.645 314.97 211.124 319.397 c 0
 218.031 328.186 230.542 335.313 241.867 336.913 c 0
EndSplineSet
EndChar

StartChar: hyphen
Encoding: 45 45 16
Width: 715
Flags: W
LayerCount: 2
Back
Fore
SplineSet
145.783 417.16 m 0
 148.984 417.807 185.302 417.935 344.579 417.861 c 0
 530.121 417.775 539.632 417.719 543.073 416.679 c 0
 548.735 414.968 557.156 410.611 561.266 407.267 c 0
 566.527 402.984 570.709 397.65 573.813 391.265 c 0
 578.652 381.31 578.615 381.626 578.615 350 c 0
 578.615 318.373 578.652 318.69 573.813 308.734 c 0
 570.709 302.349 566.527 297.016 561.266 292.732 c 0
 557.156 289.388 548.735 285.031 543.073 283.32 c 0
 539.635 282.282 530.001 282.22 345.784 282.048 c 0
 200.482 281.912 150.98 282.041 147.591 282.565 c 0
 141.929 283.44 134.925 285.882 130.302 288.592 c 0
 125.783 291.241 115.956 301.049 113.317 305.542 c 0
 112.201 307.443 110.591 310.903 109.785 313.132 c 0
 106.897 321.119 106.627 324.276 106.627 350 c 0
 106.627 375.723 106.899 378.881 109.812 386.867 c 0
 112.184 393.373 114.942 397.472 121.085 403.614 c 0
 128.942 411.472 135.543 415.092 145.783 417.16 c 0
EndSplineSet
EndChar
StartChar: period
Encoding: 46 46 17
Width: 715
Flags: W
LayerCount: 2
Back
Fore
SplineSet
286.747 296.076 m 0
 289.866 296.707 301.566 296.844 344.276 296.75 c 0
 404.578 296.618 400.127 296.946 410.542 291.868 c 0
 420.361 287.08 427.441 280 432.229 270.181 c 0
 437.307 259.771 437.048 263.072 437.048 208.735 c 0
 437.048 154.397 437.307 157.699 432.229 147.289 c 0
 427.441 137.47 420.361 130.391 410.542 125.603 c 0
 400.146 120.532 404.397 120.858 345.481 120.606 c 0
 289.217 120.366 287.968 120.42 279.457 123.438 c 0
 272.47 125.917 268.346 128.642 262.048 134.939 c 0
 254.029 142.958 250.486 149.518 248.446 160.12 c 0
 247.195 166.627 247.195 250.844 248.446 257.35 c 0
 250.486 267.952 254.029 274.512 262.048 282.53 c 0
 269.905 290.388 276.506 294.008 286.747 296.076 c 0
EndSplineSet
Validated: 33
EndChar
StartChar: slash
Encoding: 47 47 18
Width: 715
Flags: W
LayerCount: 2
Back
Fore
SplineSet
523.374 739.127 m 0
 533.796 740.889 546.16 738.438 555.543 732.75 c 0
 562.938 728.268 570.31 720 574.055 711.988 c 0
 579.799 699.699 579.967 684.605 574.493 672.65 c 0
 573.236 669.906 202.055 34.5176 195.303 23.5537 c 0
 185.725 8 168.916 -0.954102 151.507 0.223633 c 0
 130.362 1.65332 113.059 16.0879 107.796 36.6865 c 0
 105.456 45.8428 106.522 58.1279 110.421 66.9268 c 0
 111.671 69.749 481.828 703.554 489.579 716.145 c 0
 497.143 728.431 509.398 736.766 523.374 739.127 c 0
EndSplineSet
Validated: 33
EndChar

StartChar: zero
Encoding: 48 48 33
Width: 715
Flags: W
LayerCount: 2
Back
Fore
SplineSet
190.965 739.083 m 0
 193.118 739.355 261.146 739.618 342.169 739.667 c 0
 500.302 739.762 494.466 739.865 506.567 736.772 c 0
 545.395 726.849 573.595 694.397 578.306 654.217 c 0
 578.794 650.056 578.928 571.386 578.796 365.964 c 2
 578.615 83.4336 l 1
 577.236 77.4092 l 2
 573.443 60.8428 566.816 46.8896 557.21 35.2402 c 0
 541.086 15.6875 518.856 3.62988 493.374 0.616211 c 0
 489.248 0.12793 446.146 -0.00195312 338.856 0.150391 c 2
 190.061 0.361328 l 1
 184.037 1.73047 l 2
 160.844 7.00293 142.574 17.998 128.354 35.2402 c 0
 119.645 45.8008 113.074 58.7949 109.619 72.2891 c 0
 106.458 84.6357 106.627 67.8311 106.627 369.879 c 0
 106.627 671.928 106.458 655.123 109.619 667.47 c 0
 119.405 705.693 151.688 734.113 190.965 739.083 c 0
483.133 369.879 m 1
 483.133 643.976 l 1
 342.771 643.976 l 1
 202.41 643.976 l 1
 202.41 369.879 l 1
 202.41 95.7822 l 1
 342.771 95.7822 l 1
 483.133 95.7822 l 1
 483.133 369.879 l 1
EndSplineSet
EndChar

StartChar: one
Encoding: 49 49 20
Width: 715
Flags: W
LayerCount: 2
Back
Fore
SplineSet
146.868 739.158 m 0
 148.426 739.423 203.826 739.666 270.03 739.699 c 2
 390.362 739.759 l 1
 390.362 417.771 l 1
 390.362 95.7822 l 1
 436.748 95.7822 l 1
 483.133 95.7822 l 1
 483.133 194.518 l 2
 483.133 301.084 483.021 297.098 486.291 306.145 c 0
 487.097 308.373 488.707 311.834 489.823 313.734 c 0
 492.441 318.192 502.29 328.033 506.748 330.646 c 0
 511.551 333.459 519.459 336.073 525.663 336.897 c 0
 535.784 338.24 547.902 335.37 556.808 329.521 c 0
 561.929 326.158 569.32 318.546 572.256 313.614 c 0
 574.947 309.091 577.41 302.048 578.281 296.385 c 0
 578.8 293.017 578.924 259.759 578.769 165.662 c 0
 578.533 23.4932 579.041 37.625 573.778 26.8066 c 0
 569.002 16.9873 561.929 9.90625 552.109 5.11523 c 0
 549.097 3.64551 544.947 1.9873 542.771 1.38477 c 0
 539.03 0.348633 530.121 0.300781 342.771 0.300781 c 2
 146.688 0.300781 l 1
 141.988 1.66406 l 2
 120.487 7.9043 106.627 26.0234 106.627 47.8906 c 0
 106.627 69.5781 120.222 87.5049 141.688 94.125 c 2
 146.085 95.4814 l 1
 220.332 95.6621 l 1
 294.579 95.8428 l 1
 294.579 369.879 l 1
 294.579 643.916 l 1
 220.332 644.097 l 1
 146.085 644.277 l 1
 141.688 645.64 l 2
 127.591 650.006 116.434 659.553 110.751 672.108 c 0
 105.161 684.458 105.164 699.277 110.759 711.627 c 0
 117.261 725.979 131.024 736.474 146.868 739.158 c 0
EndSplineSet
EndChar
StartChar: two
Encoding: 50 50 21
Width: 715
Flags: W
LayerCount: 2
Back
Fore
SplineSet
146.868 739.158 m 0
 148.425 739.423 226.146 739.665 319.579 739.698 c 0
 502.109 739.762 494.398 739.882 506.567 736.771 c 0
 544.616 727.041 572.419 695.783 578.012 656.445 c 0
 579.322 647.229 579.332 414.819 578.021 405.603 c 0
 574.88 383.494 564.993 364.123 549.037 348.816 c 0
 536.435 336.726 521.567 328.659 503.615 324.171 c 2
 497.29 322.59 l 1
 350.001 322.289 l 2
 268.977 322.123 202.644 321.92 202.561 321.837 c 0
 202.478 321.754 202.41 270.843 202.41 208.734 c 2
 202.41 95.7822 l 1
 368.615 95.7822 l 2
 509.097 95.7822 535.501 95.6523 539.218 94.9385 c 0
 562.174 90.5312 578.435 71.0234 578.435 47.8906 c 0
 578.435 24.7588 562.174 5.25098 539.218 0.84375 c 0
 535.485 0.126953 502.41 -0.000976562 320.724 -0.000976562 c 2
 106.627 -0.000976562 l 1
 106.808 167.018 l 1
 106.988 334.036 l 1
 108.358 340.06 l 2
 113.015 360.542 122.307 377.312 136.566 390.972 c 0
 152.712 406.438 172.832 415.478 195.482 417.444 c 0
 200.194 417.854 251.537 418.072 342.922 418.072 c 2
 483.133 418.072 l 1
 483.133 531.023 l 1
 483.133 643.976 l 1
 314.609 644.126 l 1
 146.085 644.277 l 1
 141.688 645.64 l 2
 127.591 650.006 116.434 659.553 110.751 672.108 c 0
 105.161 684.458 105.164 699.277 110.759 711.627 c 0
 117.261 725.979 131.024 736.474 146.868 739.158 c 0
EndSplineSet
Validated: 33
EndChar

StartChar: three
Encoding: 51 51 22
Width: 715
Flags: W
LayerCount: 2
Back
Fore
SplineSet
146.868 739.158 m 0
 148.425 739.423 226.146 739.665 319.579 739.698 c 0
 502.109 739.762 494.398 739.882 506.567 736.771 c 0
 544.616 727.041 572.426 695.783 578.027 656.445 c 0
 579.36 647.091 579.345 461.747 578.011 450.361 c 0
 574.855 423.434 564.011 397.354 547.298 376.506 c 0
 545.028 373.675 542.979 371.103 542.712 370.753 c 0
 542.423 370.373 543.814 368.192 546.19 365.301 c 0
 555.569 353.89 565.049 337.289 570.201 323.253 c 0
 573.039 315.521 575.517 305.964 577.245 296.084 c 2
 578.615 288.253 l 1
 578.615 186.145 l 1
 578.615 84.0361 l 1
 577.23 77.71 l 2
 573.615 61.2041 566.94 47.0479 557.205 35.2402 c 0
 541.084 15.6875 518.856 3.62988 493.374 0.616211 c 0
 489.246 0.12793 440.061 -0.0107422 316.868 0.120117 c 2
 146.085 0.300781 l 1
 141.688 1.66406 l 2
 120.186 8.32715 106.627 26.2041 106.627 47.8906 c 0
 106.627 69.5781 120.186 87.4541 141.688 94.1182 c 2
 146.085 95.4814 l 1
 314.609 95.6318 l 1
 483.133 95.7822 l 1
 482.955 189.337 l 2
 482.756 294.096 483.166 284.778 478.31 294.939 c 0
 473.616 304.759 465.604 312.771 455.784 317.465 c 0
 445.607 322.328 455.844 321.895 341.868 322.289 c 0
 227.41 322.685 238.151 322.205 227.41 327.394 c 0
 215.252 333.267 206.546 343.614 202.31 357.229 c 0
 201.115 361.069 200.904 363.012 200.904 370.18 c 0
 200.904 377.35 201.115 379.292 202.31 383.132 c 0
 206.546 396.747 215.252 407.094 227.41 412.968 c 0
 238.151 418.155 227.41 417.679 341.868 418.047 c 2
 443.676 418.373 l 1
 448.796 420.08 l 2
 465.305 425.583 476.683 437.289 481.685 453.915 c 0
 482.71 457.325 482.782 462.801 482.952 550.753 c 2
 483.133 643.976 l 1
 314.609 644.126 l 1
 146.085 644.277 l 1
 141.688 645.64 l 2
 127.591 650.006 116.434 659.553 110.751 672.108 c 0
 105.161 684.458 105.164 699.277 110.759 711.627 c 0
 117.261 725.979 131.024 736.474 146.868 739.158 c 0
EndSplineSet
Validated: 33
EndChar
StartChar: four
Encoding: 52 52 23
Width: 715
Flags: W
LayerCount: 2
Back
Fore
SplineSet
169.276 738.912 m 0
 174.136 739.948 185 739.603 190.06 738.249 c 0
 195.421 736.814 203.977 732.434 208.253 728.931 c 0
 215.471 723.02 221.583 713.614 224.511 703.916 c 0
 225.548 700.479 225.609 691.355 225.753 518.825 c 2
 225.903 337.349 l 1
 318.976 337.349 l 1
 412.048 337.349 l 1
 412.198 478.463 l 1
 412.349 619.578 l 1
 413.747 624.097 l 2
 419.041 641.205 432.326 653.898 449.096 657.872 c 0
 453.614 658.942 455.723 659.108 461.747 658.865 c 0
 470.181 658.525 474.321 657.518 481.145 654.145 c 0
 492.869 648.347 502.014 637.35 506.127 624.097 c 2
 507.53 619.578 l 1
 507.681 478.523 l 1
 507.831 337.47 l 1
 511.807 337.045 l 2
 528.675 335.242 543.771 324.45 550.651 309.276 c 0
 556.306 296.807 556.316 282.131 550.679 269.698 c 0
 543.757 254.434 528.734 243.68 511.807 241.87 c 2
 507.831 241.445 l 1
 507.652 140.421 l 2
 507.452 26.7461 507.924 37.5605 502.693 26.8066 c 0
 497.917 16.9873 490.843 9.91016 481.023 5.12695 c 0
 468.78 -0.837891 456.626 -1.53809 443.855 2.9834 c 0
 436.928 5.43652 432.791 8.17188 426.506 14.457 c 0
 420.363 20.5996 417.604 24.6982 415.232 31.2041 c 0
 411.935 40.251 412.048 36.2646 412.048 142.831 c 2
 412.048 241.565 l 1
 271.084 241.565 l 1
 130.12 241.565 l 1
 130.12 468.614 l 2
 130.12 714.518 129.918 699.264 133.305 708.555 c 0
 135.677 715.061 138.436 719.159 144.578 725.301 c 0
 152.416 733.14 158.854 736.688 169.276 738.912 c 0
EndSplineSet
Validated: 33
EndChar

StartChar: five
Encoding: 53 53 38
Width: 715
Flags: W
LayerCount: 2
Back
Fore
SplineSet
200.603 531.023 m 1
 200.603 739.759 l 1
 367.712 739.759 l 2
 508.977 739.759 535.5 739.628 539.218 738.915 c 0
 562.174 734.508 578.435 715 578.435 691.867 c 0
 578.435 668.734 562.174 649.228 539.218 644.82 c 0
 535.526 644.111 515.663 643.976 415.604 643.976 c 2
 296.386 643.976 l 1
 296.386 531.023 l 1
 296.386 418.072 l 1
 392.952 418.072 l 2
 496.146 418.072 494.803 418.107 506.627 415.08 c 0
 545.44 405.146 573.549 372.771 578.301 332.529 c 0
 578.786 328.419 578.917 292.529 578.766 205.12 c 2
 578.555 83.4336 l 1
 577.185 77.4092 l 2
 573.431 60.9033 566.796 46.915 557.185 35.2402 c 0
 544.026 19.2578 526.507 8.08301 506.627 2.99219 c 0
 494.678 -0.0683594 497.651 -0.000976562 374.579 -0.000976562 c 0
 263.494 -0.000976562 259.395 0.0390625 250.482 1.18359 c 0
 240.422 2.47559 231.716 4.40723 222.893 7.30371 c 0
 215.543 9.7168 133.882 44.5947 129.579 47.1592 c 0
 122.267 51.5156 114.615 60.1201 110.821 68.2529 c 0
 104.904 80.9346 105.17 96.626 111.52 109.457 c 0
 121.945 130.527 146.988 141.025 168.977 133.543 c 0
 171.299 132.753 190.935 124.517 212.682 115.21 c 0
 234.429 105.904 253.779 97.8125 255.754 97.1982 c 0
 259.151 96.1416 265.151 96.0762 371.235 95.9336 c 2
 483.133 95.7822 l 1
 483.133 209.036 l 1
 483.133 322.289 l 1
 341.868 322.289 l 1
 200.603 322.289 l 1
 200.603 531.023 l 1
EndSplineSet
EndChar
StartChar: six
Encoding: 54 54 25
Width: 715
Flags: W
LayerCount: 2
Back
Fore
SplineSet
145.783 738.853 m 0
 151.656 740.041 203.615 740.087 209.76 738.909 c 0
 219.94 736.957 228.761 732.104 235.914 724.518 c 0
 244.733 715.166 249.037 704.458 249.037 691.867 c 0
 249.037 668.133 231.377 647.889 207.711 644.495 c 2
 202.41 643.734 l 1
 202.41 490.542 l 1
 202.41 337.349 l 1
 370.935 337.198 l 2
 530.935 337.056 539.642 336.992 543.073 335.956 c 0
 548.735 334.245 557.156 329.889 561.266 326.544 c 0
 566.527 322.262 570.709 316.928 573.813 310.542 c 0
 579.091 299.684 578.615 313.734 578.615 168.674 c 1
 578.615 23.6143 579.091 37.665 573.813 26.8066 c 0
 570.709 20.4209 566.527 15.0869 561.266 10.8047 c 0
 557.156 7.45996 548.735 3.10352 543.073 1.39258 c 0
 539.635 0.353516 530.001 0.291992 345.784 0.120117 c 0
 200.482 -0.015625 150.98 0.113281 147.591 0.637695 c 0
 141.929 1.5127 134.925 3.95312 130.302 6.66406 c 0
 125.783 9.31348 115.969 19.1211 113.341 23.6143 c 0
 110.739 28.0605 108.579 33.9756 107.488 39.6377 c 0
 106.211 46.2646 106.202 693.494 107.479 700.12 c 0
 109.521 710.723 113.066 717.282 121.085 725.301 c 0
 128.942 733.158 135.543 736.78 145.783 738.853 c 0
483.133 168.674 m 1
 483.133 241.565 l 1
 342.771 241.565 l 1
 202.41 241.565 l 1
 202.41 168.674 l 1
 202.41 95.7822 l 1
 342.771 95.7822 l 1
 483.133 95.7822 l 1
 483.133 168.674 l 1
EndSplineSet
Validated: 33
EndChar
StartChar: seven
Encoding: 55 55 26
Width: 715
Flags: W
LayerCount: 2
Back
Fore
SplineSet
145.783 738.848 m 0
 148.97 739.491 189.669 739.649 364.308 739.699 c 2
 578.916 739.759 l 1
 578.916 593.133 l 2
 578.916 434.578 579.081 442.799 575.726 433.614 c 0
 573.592 427.771 570.749 423.269 565.991 418.192 c 0
 563.724 415.773 523.284 380.862 476.115 340.603 c 2
 390.362 267.409 l 1
 390.184 153.434 l 2
 389.982 25.0596 390.474 37.5986 385.225 26.8066 c 0
 380.448 16.9873 373.374 9.91016 363.555 5.12695 c 0
 351.311 -0.837891 339.157 -1.53809 326.386 2.9834 c 0
 319.458 5.43652 315.322 8.17188 309.037 14.457 c 0
 302.895 20.5996 300.136 24.6982 297.764 31.2041 c 0
 294.433 40.3398 294.579 34.0352 294.579 168.674 c 0
 294.579 303.312 294.433 297.009 297.77 306.145 c 0
 299.903 311.987 302.746 316.49 307.505 321.566 c 0
 309.772 323.984 350.212 358.896 397.38 399.156 c 2
 483.133 472.35 l 1
 483.133 558.162 l 1
 483.133 643.976 l 1
 342.471 643.976 l 1
 201.808 643.976 l 1
 201.438 642.289 l 2
 200.459 637.831 197.941 631.186 195.914 627.711 c 0
 192.771 622.32 185.061 614.42 179.639 611.031 c 0
 170.729 605.463 159.338 602.851 149.338 604.082 c 0
 137.771 605.507 128.161 610.362 120.097 618.855 c 0
 114.779 624.455 112.021 628.734 109.806 634.819 c 0
 106.899 642.806 106.627 645.964 106.627 671.687 c 0
 106.627 697.409 106.899 700.567 109.812 708.555 c 0
 112.184 715.061 114.942 719.159 121.085 725.301 c 0
 128.942 733.158 135.543 736.778 145.783 738.848 c 0
EndSplineSet
Validated: 33
EndChar

StartChar: eight
Encoding: 56 56 27
Width: 715
Flags: W
LayerCount: 2
Back
Fore
SplineSet
239.76 738.848 m 0
 242.93 739.488 262.832 739.616 344.277 739.52 c 0
 457.531 739.386 446.779 739.851 457.531 734.621 c 0
 467.351 729.845 474.43 722.771 479.219 712.952 c 0
 484.541 702.038 484.021 718.133 484.189 559.156 c 2
 484.338 418.072 l 1
 486.868 418.058 l 2
 490.703 418.036 501.146 416.447 506.627 415.052 c 0
 541.396 406.198 568.41 378.554 576.376 343.675 c 0
 578.976 332.294 578.977 332.229 578.761 205.12 c 2
 578.555 83.4336 l 1
 577.185 77.4092 l 2
 573.431 60.9033 566.794 46.915 557.179 35.2402 c 0
 541.074 15.6875 518.856 3.62988 493.374 0.616211 c 0
 489.248 0.12793 446.146 -0.00195312 338.856 0.150391 c 2
 190.061 0.361328 l 1
 184.037 1.73047 l 2
 160.844 7.00293 142.574 17.998 128.354 35.2402 c 0
 119.645 45.8008 113.074 58.7949 109.619 72.2891 c 0
 106.554 84.2627 106.627 80.9033 106.627 209.036 c 0
 106.627 337.168 106.554 333.809 109.611 345.783 c 0
 119.776 385.583 154.277 414.594 195.302 417.834 c 2
 200.603 418.253 l 1
 200.603 556.928 l 2
 200.603 706.928 200.444 699.385 203.787 708.555 c 0
 206.159 715.061 208.919 719.159 215.061 725.301 c 0
 222.918 733.158 229.519 736.778 239.76 738.848 c 0
388.555 531.023 m 1
 388.555 643.976 l 1
 342.471 643.976 l 1
 296.386 643.976 l 1
 296.386 531.023 l 1
 296.386 418.072 l 1
 342.471 418.072 l 1
 388.555 418.072 l 1
 388.555 531.023 l 1
483.133 209.036 m 1
 483.133 322.289 l 1
 342.771 322.289 l 1
 202.41 322.289 l 1
 202.41 209.036 l 1
 202.41 95.7822 l 1
 342.771 95.7822 l 1
 483.133 95.7822 l 1
 483.133 209.036 l 1
EndSplineSet
EndChar

StartChar: nine
Encoding: 57 57 42
Width: 715
Flags: W
LayerCount: 2
Back
Fore
SplineSet
145.783 738.848 m 0
 148.984 739.494 185.302 739.622 344.579 739.548 c 0
 530.121 739.462 539.632 739.405 543.073 738.365 c 0
 548.735 736.655 557.156 732.293 561.266 728.942 c 0
 568.635 722.935 574.851 713.253 577.527 703.614 c 0
 578.571 699.857 578.615 686.325 578.615 369.879 c 0
 578.615 53.4336 578.571 39.9014 577.531 36.1445 c 0
 576.929 33.9688 575.271 29.8184 573.801 26.8066 c 0
 569.01 16.9873 561.929 9.91406 552.109 5.13867 c 0
 542.229 0.333008 543.013 0.425781 510.242 0.158203 c 0
 478.435 -0.101562 475.41 0.102539 467.29 3.05762 c 0
 461.024 5.33789 456.112 8.40723 451.024 13.2207 c 0
 444.374 19.5127 440.392 26.084 437.606 35.3613 c 0
 434.478 45.7822 435.712 58.874 440.764 68.8545 c 0
 448.14 83.4297 461.688 93.1221 477.712 95.29 c 2
 483.133 96.0234 l 1
 483.133 249.217 l 1
 483.133 402.409 l 1
 316.929 402.409 l 2
 137.109 402.409 147.052 402.232 137.832 405.594 c 0
 131.326 407.966 127.227 410.726 121.085 416.867 c 0
 113.066 424.886 109.521 431.445 107.477 442.048 c 0
 106.198 448.675 106.198 693.494 107.477 700.12 c 0
 109.521 710.723 113.066 717.282 121.085 725.301 c 0
 128.942 733.158 135.543 736.778 145.783 738.848 c 0
483.133 571.084 m 1
 483.133 643.976 l 1
 342.771 643.976 l 1
 202.41 643.976 l 1
 202.41 571.084 l 1
 202.41 498.192 l 1
 342.771 498.192 l 1
 483.133 498.192 l 1
 483.133 571.084 l 1
EndSplineSet
EndChar

StartChar: colon
Encoding: 58 58 29
Width: 715
Flags: W
LayerCount: 2
Back
Fore
SplineSet
286.747 296.076 m 0
 289.866 296.706 301.566 296.844 344.276 296.75 c 0
 404.578 296.618 400.127 296.945 410.542 291.867 c 0
 420.361 287.079 427.441 280 432.229 270.181 c 0
 437.307 259.77 437.048 263.072 437.048 208.734 c 0
 437.048 154.397 437.307 157.699 432.229 147.289 c 0
 427.441 137.47 420.361 130.39 410.542 125.602 c 0
 400.146 120.532 404.397 120.858 345.481 120.606 c 0
 289.217 120.365 287.968 120.419 279.457 123.438 c 0
 272.47 125.917 268.346 128.641 262.048 134.939 c 0
 254.029 142.958 250.486 149.518 248.446 160.12 c 0
 247.195 166.626 247.195 250.843 248.446 257.349 c 0
 250.486 267.951 254.029 274.511 262.048 282.529 c 0
 269.905 290.387 276.506 294.007 286.747 296.076 c 0
286.747 618.365 m 0
 289.866 618.996 301.566 619.133 344.276 619.039 c 0
 404.578 618.907 400.127 619.235 410.542 614.157 c 0
 420.361 609.369 427.441 602.289 432.229 592.47 c 0
 437.307 582.06 437.048 585.361 437.048 531.023 c 0
 437.048 476.687 437.307 479.988 432.229 469.578 c 0
 427.441 459.759 420.361 452.679 410.542 447.891 c 0
 400.146 442.821 404.397 443.147 345.481 442.896 c 0
 289.217 442.655 287.968 442.709 279.457 445.728 c 0
 272.47 448.206 268.346 450.931 262.048 457.229 c 0
 254.029 465.247 250.486 471.807 248.446 482.409 c 0
 247.195 488.915 247.195 573.133 248.446 579.639 c 0
 250.486 590.241 254.029 596.801 262.048 604.819 c 0
 269.905 612.677 276.506 616.297 286.747 618.365 c 0
EndSplineSet
EndChar
StartChar: semicolon
Encoding: 59 59 30
Width: 715
Flags: W
LayerCount: 2
Back
Fore
SplineSet
241.867 336.913 m 0
 242.861 337.054 288.915 337.128 344.276 337.079 c 0
 457.59 336.979 446.772 337.443 457.53 332.211 c 0
 467.35 327.435 474.429 320.361 479.218 310.542 c 0
 484.513 299.684 484.036 313.734 484.036 168.674 c 0
 484.036 23.6143 484.513 37.665 479.218 26.8066 c 0
 474.429 16.9873 467.35 9.91016 457.53 5.12695 c 0
 445.286 -0.837891 433.132 -1.53809 420.361 2.9834 c 0
 413.434 5.43652 409.297 8.17188 403.012 14.457 c 0
 396.87 20.5996 394.11 24.6982 391.738 31.2041 c 0
 388.44 40.251 388.554 36.2646 388.554 142.831 c 2
 388.554 241.506 l 1
 314.276 241.713 l 2
 230.843 241.945 238.042 241.534 227.409 246.671 c 0
 215.251 252.544 206.54 262.892 202.293 276.506 c 0
 200.244 283.072 200.25 295.843 202.305 302.409 c 0
 204.095 308.132 207.645 314.97 211.124 319.397 c 0
 218.031 328.186 230.542 335.313 241.867 336.913 c 0
239.759 658.125 m 0
 242.878 658.755 254.578 658.892 297.289 658.798 c 0
 357.59 658.666 353.139 658.994 363.554 653.916 c 0
 373.373 649.128 380.453 642.048 385.242 632.229 c 0
 390.32 621.815 390.06 625.12 390.06 571.084 c 0
 390.06 517.048 390.32 520.354 385.242 509.939 c 0
 380.453 500.12 373.373 493.041 363.554 488.253 c 0
 353.157 483.183 357.409 483.509 298.493 483.257 c 0
 242.229 483.017 240.98 483.07 232.47 486.089 c 0
 225.481 488.567 221.358 491.292 215.06 497.59 c 0
 207.041 505.608 203.498 512.168 201.459 522.771 c 0
 200.208 529.277 200.208 612.892 201.459 619.397 c 0
 203.498 630 207.041 636.56 215.06 644.578 c 0
 222.917 652.436 229.518 656.056 239.759 658.125 c 0
EndSplineSet
Validated: 33
EndChar
StartChar: less
Encoding: 60 60 31
Width: 715
Flags: W
LayerCount: 2
Back
Fore
SplineSet
520.784 658.112 m 0
 522.762 658.552 527.29 658.945 530.784 658.982 c 0
 538.796 659.065 544.618 657.682 552.41 653.844 c 0
 557.34 651.415 558.977 650.181 564.218 644.939 c 0
 569.519 639.639 570.662 638.119 573.102 633.133 c 0
 577.043 625.073 578.43 619.337 578.416 611.145 c 0
 578.39 595.723 571.17 581.503 559.037 572.975 c 0
 556.851 571.438 478.555 525.177 385.061 470.181 c 0
 291.566 415.184 215.061 370.045 215.061 369.879 c 0
 215.061 369.714 291.566 324.574 385.061 269.578 c 0
 478.555 214.581 556.851 168.32 559.037 166.783 c 0
 571.17 158.256 578.39 144.036 578.416 128.614 c 0
 578.43 120.421 577.043 114.686 573.102 106.626 c 0
 570.662 101.64 569.519 100.12 564.218 94.8184 c 0
 558.977 89.5781 557.34 88.3438 552.41 85.9141 c 0
 543.809 81.6738 538.254 80.4795 528.916 80.8623 c 0
 520.182 81.2207 515.514 82.4619 508.133 86.3887 c 0
 502.531 89.3701 134.047 306.159 128.494 309.741 c 0
 123.943 312.678 116.073 320.843 113.323 325.481 c 0
 110.75 329.823 108.566 335.783 107.474 341.445 c 0
 106.254 347.771 106.254 391.987 107.474 398.312 c 0
 108.566 403.976 110.75 409.936 113.323 414.276 c 0
 116.073 418.915 123.943 427.08 128.494 430.017 c 0
 133.149 433.02 501.688 649.884 507.531 653.059 c 0
 512.44 655.727 515.784 657.001 520.784 658.112 c 0
EndSplineSet
Validated: 33
EndChar

StartChar: equal
Encoding: 61 61 46
Width: 715
Flags: W
LayerCount: 2
Back
Fore
SplineSet
146.868 336.749 m 0
 148.425 337.013 236.386 337.256 342.29 337.288 c 0
 551.206 337.353 538.627 337.55 547.832 334.071 c 0
 558.977 329.86 568.927 320.573 574.072 309.578 c 0
 587.459 280.976 569.278 247.064 537.952 242.206 c 0
 534.574 241.683 484.579 241.551 339.76 241.687 c 2
 146.085 241.867 l 1
 141.688 243.229 l 2
 127.591 247.597 116.434 257.143 110.751 269.698 c 0
 105.161 282.048 105.164 296.867 110.759 309.217 c 0
 117.261 323.568 131.024 334.063 146.868 336.749 c 0
146.868 537.953 m 0
 148.425 538.217 236.386 538.46 342.29 538.493 c 0
 551.206 538.558 538.627 538.755 547.832 535.276 c 0
 558.977 531.065 568.927 521.778 574.072 510.783 c 0
 587.459 482.181 569.278 448.27 537.952 443.411 c 0
 534.574 442.888 484.579 442.756 339.76 442.892 c 2
 146.085 443.072 l 1
 141.688 444.435 l 2
 127.591 448.802 116.426 458.348 110.729 470.903 c 0
 103.979 485.783 105.471 504.087 114.51 517.289 c 0
 121.9 528.082 133.916 535.756 146.868 537.953 c 0
EndSplineSet
EndChar
StartChar: greater
Encoding: 62 62 33
Width: 715
Flags: W
LayerCount: 2
Back
Fore
SplineSet
145.241 658.399 m 0
 146.691 658.682 150.783 658.946 154.277 658.983 c 0
 161.507 659.061 167.717 657.769 173.796 654.924 c 0
 177.062 653.395 543.435 438.476 555.302 431.127 c 0
 561.085 427.545 569.081 419.583 572.224 414.276 c 0
 574.795 409.936 576.977 403.976 578.069 398.312 c 0
 579.29 391.987 579.29 347.771 578.069 341.445 c 0
 576.977 335.783 574.795 329.823 572.224 325.481 c 0
 569.081 320.175 561.085 312.213 555.302 308.632 c 0
 543.374 301.245 177.079 86.4062 173.796 84.8711 c 0
 166.935 81.6641 160.965 80.5527 152.41 80.8926 c 0
 138.977 81.4268 130.382 85.21 120.724 94.8379 c 0
 115.482 100.062 114.248 101.696 111.818 106.626 c 0
 107.587 115.211 106.419 120.662 106.733 130.361 c 0
 106.955 137.229 107.227 138.933 108.821 143.493 c 0
 112.36 153.614 118.955 162.194 127.591 167.914 c 0
 130.473 169.822 208.826 215.992 301.657 270.481 c 0
 394.488 324.972 470.482 369.714 470.482 369.879 c 0
 470.482 370.045 394.488 414.787 301.657 469.277 c 0
 208.826 523.767 130.473 569.936 127.591 571.845 c 0
 118.955 577.564 112.36 586.145 108.821 596.265 c 0
 107.227 600.826 106.955 602.53 106.733 609.397 c 0
 106.419 619.097 107.587 624.547 111.818 633.133 c 0
 114.248 638.062 115.482 639.694 120.724 644.909 c 0
 125.482 649.645 127.857 651.502 131.627 653.434 c 0
 136.688 656.026 140.851 657.545 145.241 658.399 c 0
EndSplineSet
Validated: 33
EndChar

StartChar: at
Encoding: 64 64 49
Width: 715
Flags: W
LayerCount: 2
Back
Fore
SplineSet
262.651 739.347 m 0
 263.811 739.474 301.085 739.537 345.482 739.488 c 0
 425.604 739.398 426.267 739.388 434.338 738.07 c 0
 472.229 731.885 503.026 716.312 529.278 690.061 c 0
 539.304 680.034 546.8 670.723 553.283 660.241 c 0
 565.612 640.308 573.094 620.061 577.256 595.361 c 2
 578.555 587.65 l 1
 578.735 360.843 l 2
 578.913 137.71 578.897 133.885 577.73 124.698 c 0
 573.552 91.8066 559.13 62.9014 535.482 40.0244 c 0
 513.824 19.0713 487.471 6.15625 456.627 1.38086 c 0
 447.047 -0.101562 426.507 -0.102539 416.868 1.38086 c 0
 391.748 5.24512 368.051 15.3057 349.64 29.9229 c 0
 346.808 32.1709 343.994 34.377 343.435 34.7891 c 0
 342.549 35.4404 341.688 34.9609 337.049 31.2354 c 0
 317.659 15.6641 294.157 5.42773 268.555 1.40527 c 0
 258.974 -0.100586 237.952 -0.0986328 228.313 1.41016 c 0
 197.952 6.16016 171.73 19.1094 150.061 40.0537 c 0
 126.512 62.8154 112.02 91.8066 107.811 124.578 c 0
 106.678 133.397 106.627 137.892 106.627 228.915 c 0
 106.627 320.181 106.675 324.412 107.813 333.312 c 0
 111.806 364.518 125.097 392.131 146.987 414.698 c 0
 168.747 437.132 196.566 451.408 228.313 456.434 c 0
 234.66 457.438 240.121 457.53 293.374 457.53 c 2
 351.507 457.53 l 1
 357.29 455.57 l 2
 372.42 450.445 383.807 438.554 388.698 422.771 c 2
 390.061 418.373 l 1
 390.362 275.903 l 1
 390.663 133.434 l 1
 392.647 127.771 l 2
 394.991 121.084 396.715 117.939 400.972 112.59 c 0
 404.854 107.712 410.182 103.587 416.567 100.517 c 0
 423.91 96.9854 428.013 96.084 436.748 96.084 c 0
 445.482 96.084 449.585 96.9863 456.929 100.524 c 0
 468.729 106.21 476.329 114.879 480.868 127.831 c 2
 482.832 133.434 l 1
 483.013 353.614 l 2
 483.144 512.771 483.007 575.448 482.521 579.759 c 0
 479.404 607.35 460.02 631.312 433.735 640.064 c 0
 422.42 643.832 427.771 643.602 346.386 643.828 c 0
 295.061 643.972 270.438 643.833 266.988 643.38 c 0
 242.252 640.135 214.193 619.578 199.389 593.855 c 0
 195.124 586.445 190.569 579.911 187.832 577.275 c 0
 181.566 571.241 172.229 566.295 163.555 564.416 c 0
 158.615 563.346 148.796 563.479 143.796 564.683 c 0
 127.41 568.628 114.408 580.371 108.828 596.265 c 0
 107.228 600.826 106.955 602.53 106.734 609.397 c 0
 106.411 619.458 107.606 624.658 112.467 634.337 c 0
 116.563 642.495 126.703 657.892 134.088 667.169 c 0
 141.137 676.024 158.842 693.578 167.471 700.269 c 0
 197.222 723.333 226.566 735.382 262.651 739.347 c 0
294.429 247.74 m 1
 294.579 362.048 l 1
 269.127 361.987 l 2
 255.151 361.955 242.29 361.696 240.603 361.415 c 0
 238.9 361.132 235.543 360.196 233.073 359.317 c 0
 218.935 354.289 208.913 343.554 204.13 328.312 c 2
 202.711 323.795 l 1
 202.711 228.614 l 1
 202.711 133.434 l 1
 204.704 127.71 l 2
 209.508 113.915 219.092 103.816 231.988 98.96 c 0
 247.651 93.0635 264.295 95.6348 277.29 105.96 c 0
 284.289 111.522 289.52 119.337 292.854 129.217 c 2
 294.277 133.434 l 1
 294.429 247.74 l 1
EndSplineSet
EndChar
StartChar: A
Encoding: 65 65 36
Width: 715
Flags: W
LayerCount: 2
Back
Fore
SplineSet
333.735 738.912 m 0
 338.595 739.948 349.459 739.604 354.519 738.254 c 0
 356.526 737.718 360.543 736.117 363.555 734.651 c 0
 373.374 729.875 380.507 722.73 385.219 712.952 c 0
 387.365 708.499 404.747 649.639 482.44 383.734 c 0
 534.471 205.662 577.374 58.584 577.771 56.9268 c 0
 578.171 55.2637 578.482 51.084 578.467 47.5898 c 0
 578.331 16.3848 548.107 -6.57812 518.193 1.7959 c 0
 503.676 5.86035 491.473 16.8887 486.254 30.6621 c 0
 485.3 33.1787 476.271 63.5234 466.205 98.042 c 2
 447.893 160.843 l 1
 342.471 160.843 l 1
 237.049 160.843 l 1
 218.374 96.8369 l 2
 208.109 61.6562 199.112 31.3926 198.396 29.6377 c 0
 195.055 21.4453 187.922 12.8818 180.241 7.84082 c 0
 152.919 -10.0938 115.98 4.57812 107.768 36.626 c 0
 106.192 42.7705 106.187 52.9844 107.755 59.0957 c 0
 109.826 67.168 296.301 704.484 297.8 708.614 c 0
 300.139 715.061 302.909 719.173 309.037 725.301 c 0
 316.875 733.14 323.313 736.688 333.735 738.912 c 0
381.326 388.343 m 2
 360.185 460.632 342.784 520.084 342.651 520.481 c 0
 342.519 520.879 325.026 461.717 303.796 389.066 c 2
 265.182 256.928 l 1
 304.037 256.776 l 2
 325.422 256.693 360.173 256.693 381.326 256.776 c 2
 419.76 256.928 l 1
 381.326 388.343 l 2
EndSplineSet
Validated: 33
EndChar

StartChar: B
Encoding: 66 66 37
Width: 715
Flags: W
LayerCount: 2
Back
Fore
SplineSet
106.627 369.879 m 1
 106.627 739.759 l 1
 255.573 739.608 l 1
 404.519 739.458 l 1
 414.459 737.866 l 2
 457.712 730.938 492.968 713.223 522.666 683.494 c 0
 533.144 673.005 539.432 665.301 547.543 653.012 c 0
 564.558 627.236 574.633 598.675 578.038 566.566 c 0
 579.297 554.698 579.288 507.35 578.024 495.481 c 0
 573.177 449.939 554.372 410.138 522.952 378.919 c 2
 514.157 370.18 l 1
 522.952 361.456 l 2
 533.129 351.361 539.501 343.554 547.544 331.325 c 0
 563.167 307.571 572.738 281.928 577.225 251.807 c 0
 578.545 242.94 578.615 240.783 578.615 209.036 c 0
 578.615 177.289 578.545 175.131 577.228 166.265 c 0
 571.874 130.24 558.656 99.3535 536.755 71.6865 c 0
 530.34 63.583 515.362 48.5967 507.229 42.1436 c 0
 481.927 22.0674 452.229 8.58105 421.085 3.02148 c 0
 403.735 -0.0761719 407.952 -0.000976562 251.988 -0.000976562 c 2
 106.627 -0.000976562 l 1
 106.627 369.879 l 1
405.604 642.286 m 2
 399.097 643.675 l 1
 300.754 643.855 l 1
 202.41 644.036 l 1
 202.41 531.023 l 1
 202.41 418.012 l 1
 300.754 418.192 l 1
 399.097 418.373 l 1
 405.604 419.753 l 2
 442.952 427.671 470.84 453.969 480.096 490 c 0
 482.811 500.568 483.266 507.65 483.005 535.241 c 0
 482.792 557.831 482.657 560.495 481.43 566.445 c 0
 475.251 596.386 456.997 620.452 430.423 633.694 c 0
 422.221 637.781 415.001 640.28 405.604 642.286 c 2
405.604 320.6 m 2
 399.097 321.987 l 1
 300.754 322.168 l 1
 202.41 322.349 l 1
 202.41 209.036 l 1
 202.41 95.7227 l 1
 300.754 95.9033 l 1
 399.097 96.084 l 1
 405.604 97.4678 l 2
 435.784 103.886 459.613 121.969 472.846 148.493 c 0
 477.03 156.882 479.521 164.156 481.446 173.614 c 0
 482.773 180.135 482.832 181.626 482.832 209.036 c 0
 482.832 236.445 482.774 237.935 481.468 244.397 c 0
 475.376 274.518 457.136 298.674 430.423 312.001 c 0
 422.221 316.092 415.001 318.594 405.604 320.6 c 2
EndSplineSet
Validated: 33
EndChar

StartChar: C
Encoding: 67 67 38
Width: 715
Flags: W
LayerCount: 2
Back
Fore
SplineSet
336.446 738.521 m 0
 344.348 739.568 350.874 739.643 439.851 739.699 c 0
 519.248 739.749 535.541 739.621 539.218 738.915 c 0
 562.174 734.508 578.435 715 578.435 691.867 c 0
 578.435 672.711 566.608 654.829 549.278 647.78 c 0
 540.014 644.013 548.073 644.302 442.471 643.942 c 0
 352.35 643.636 345.85 643.545 342.471 642.543 c 0
 332.712 639.652 322.96 633.223 317.23 625.903 c 0
 314.74 622.723 307.541 608.976 286.565 567.35 c 0
 252.84 500.422 213.881 421.885 211.081 415.181 c 0
 208.427 408.824 205.231 397.168 203.848 388.795 c 0
 202.336 379.639 202.336 360.12 203.848 350.964 c 0
 205.231 342.59 208.427 330.934 211.081 324.578 c 0
 213.881 317.873 252.84 239.337 286.565 172.409 c 0
 307.541 130.782 314.74 117.036 317.23 113.854 c 0
 322.96 106.536 332.712 100.106 342.471 97.2148 c 0
 345.85 96.2139 352.35 96.123 442.471 95.8154 c 0
 548.073 95.4561 540.014 95.7461 549.278 91.9775 c 0
 566.608 84.9297 578.435 67.0479 578.435 47.8906 c 0
 578.435 24.7588 562.199 5.25488 539.278 0.853516 c 0
 532.446 -0.458008 350.121 -0.412109 338.856 0.904297 c 0
 294.76 6.05762 255.711 30.877 232.234 68.6738 c 0
 228.043 75.4219 128.504 274.156 124.065 284.639 c 0
 116.094 303.464 110.866 323.132 108.053 344.879 c 0
 106.519 356.747 106.519 383.012 108.053 394.879 c 0
 110.866 416.626 116.094 436.295 124.065 455.12 c 0
 128.504 465.603 228.057 664.337 232.249 671.084 c 0
 255.282 708.156 293.374 732.809 336.446 738.521 c 0
EndSplineSet
Validated: 33
EndChar
StartChar: D
Encoding: 68 68 39
Width: 715
Flags: W
LayerCount: 2
Back
Fore
SplineSet
146.868 739.158 m 0
 148.426 739.423 192.109 739.666 243.977 739.699 c 0
 324.579 739.75 339.381 739.627 346.024 738.85 c 0
 389.94 733.709 429.56 708.605 452.502 671.386 c 0
 454.341 668.402 479.152 619.639 507.675 562.951 c 0
 565.719 447.59 566.587 445.702 572.516 421.987 c 0
 577.091 403.689 578.615 390.662 578.615 369.879 c 0
 578.615 349.096 577.091 336.069 572.516 317.771 c 0
 566.587 294.057 565.719 292.168 507.675 176.807 c 0
 479.152 120.12 454.34 71.3564 452.499 68.373 c 0
 444.545 55.4814 432.446 41.7295 420.784 32.3252 c 0
 399.527 15.1836 374.699 4.62012 347.591 1.18359 c 0
 338.575 0.0400391 334.94 0.00488281 242.169 0.150391 c 2
 146.085 0.300781 l 1
 141.688 1.66406 l 2
 120.186 8.32715 106.627 26.2041 106.627 47.8906 c 0
 106.627 69.5781 120.331 87.6357 141.688 94.0918 c 0
 145.896 95.3643 147.26 95.4307 173.344 95.6318 c 2
 200.603 95.8428 l 1
 200.603 369.879 l 1
 200.603 643.916 l 1
 173.344 644.126 l 2
 147.26 644.328 145.896 644.395 141.688 645.673 c 0
 127.711 649.916 116.439 659.549 110.754 672.108 c 0
 105.162 684.458 105.164 699.277 110.759 711.627 c 0
 117.261 725.979 131.024 736.474 146.868 739.158 c 0
342.471 642.521 m 0
 339.445 643.386 335.393 643.599 317.621 643.825 c 2
 296.386 644.097 l 1
 296.386 369.879 l 1
 296.386 95.6621 l 1
 317.591 95.915 l 2
 341.266 96.1982 342.012 96.3018 350.904 100.568 c 0
 357.29 103.632 363.605 108.634 367.68 113.854 c 0
 370.953 118.05 376.901 129.698 450.738 276.506 c 0
 470.645 316.084 474.306 323.78 476.676 331.023 c 0
 480.244 341.929 481.744 349.397 482.628 360.662 c 0
 483.923 377.168 482.048 392.312 476.676 408.734 c 0
 474.306 415.978 470.645 423.675 450.738 463.253 c 0
 376.901 610.061 370.953 621.709 367.686 625.903 c 0
 361.962 633.252 352.049 639.785 342.471 642.521 c 0
EndSplineSet
Validated: 33
EndChar

StartChar: E
Encoding: 69 69 40
Width: 715
Flags: W
LayerCount: 2
Back
Fore
SplineSet
106.627 369.879 m 1
 106.627 739.759 l 1
 320.724 739.759 l 2
 502.41 739.759 535.485 739.631 539.218 738.915 c 0
 562.174 734.508 578.435 715 578.435 691.867 c 0
 578.435 668.734 562.174 649.228 539.218 644.82 c 0
 535.501 644.106 509.098 643.976 368.615 643.976 c 2
 202.41 643.976 l 1
 202.41 531.054 l 1
 202.41 418.132 l 1
 276.627 417.926 l 2
 360.182 417.692 352.915 418.109 363.555 412.935 c 0
 373.374 408.158 380.454 401.084 385.242 391.265 c 0
 389.14 383.271 390.001 379.458 390.001 370.18 c 0
 390.001 360.903 389.14 357.09 385.242 349.096 c 0
 380.454 339.276 373.374 332.203 363.555 327.427 c 0
 352.915 322.251 360.182 322.668 276.627 322.436 c 2
 202.41 322.229 l 1
 202.41 209.006 l 1
 202.41 95.7822 l 1
 368.615 95.7822 l 2
 509.097 95.7822 535.501 95.6523 539.218 94.9385 c 0
 562.174 90.5312 578.435 71.0234 578.435 47.8906 c 0
 578.435 24.7588 562.174 5.25098 539.218 0.84375 c 0
 535.485 0.126953 502.41 -0.000976562 320.724 -0.000976562 c 2
 106.627 -0.000976562 l 1
 106.627 369.879 l 1
EndSplineSet
Validated: 1
EndChar

StartChar: F
Encoding: 70 70 55
Width: 715
Flags: W
LayerCount: 2
Back
Fore
SplineSet
106.627 391.928 m 2
 106.627 739.759 l 1
 320.724 739.759 l 2
 502.41 739.759 535.485 739.631 539.218 738.915 c 0
 562.174 734.508 578.435 715 578.435 691.867 c 0
 578.435 668.734 562.174 649.228 539.218 644.82 c 0
 535.501 644.106 509.098 643.976 368.615 643.976 c 2
 202.41 643.976 l 1
 202.41 571.084 l 1
 202.41 498.192 l 1
 323.646 498.042 l 1
 444.88 497.891 l 1
 449.277 496.526 l 2
 465.182 491.59 476.698 480.534 482.056 465.06 c 0
 483.958 459.566 484.037 458.976 484.037 450.301 c 0
 484.037 441.626 483.958 441.036 482.056 435.542 c 0
 476.698 420.068 465.182 409.013 449.277 404.075 c 2
 444.88 402.711 l 1
 323.646 402.56 l 1
 202.41 402.409 l 1
 202.26 220.934 l 2
 202.116 48.4033 202.055 39.2793 201.017 35.8428 c 0
 199.306 30.1807 194.949 21.7598 191.604 17.6504 c 0
 187.322 12.3887 181.988 8.20703 175.603 5.10449 c 0
 163.359 -0.844727 151.205 -1.53809 138.435 2.9834 c 0
 131.507 5.43652 127.37 8.17188 121.085 14.457 c 0
 114.942 20.5996 112.184 24.6982 109.812 31.2041 c 0
 106.399 40.5625 106.627 14.8184 106.627 391.928 c 2
EndSplineSet
EndChar

StartChar: G
Encoding: 71 71 56
Width: 715
Flags: W
LayerCount: 2
Back
Fore
SplineSet
371.085 738.561 m 0
 378.534 739.548 385.754 739.644 457.019 739.699 c 0
 521.597 739.749 535.567 739.615 539.218 738.915 c 0
 562.174 734.508 578.435 715 578.435 691.867 c 0
 578.435 672.711 566.608 654.84 549.278 647.809 c 0
 540.139 644.1 546.266 644.361 459.64 643.979 c 0
 370.604 643.584 378.354 644.015 367.771 638.869 c 0
 357.478 633.864 360.313 637.229 288.161 544.397 c 0
 251.78 497.59 220.623 457.278 218.878 454.759 c 0
 212.266 445.211 207.008 432.59 204.095 419.277 c 2
 202.711 412.951 l 1
 202.711 274.397 l 2
 202.711 142.349 202.763 135.659 203.806 131.928 c 0
 207.625 118.253 217.259 106.635 229.76 100.628 c 0
 240.043 95.6875 230.182 96.084 342.771 96.084 c 0
 455.362 96.084 445.5 95.6875 455.784 100.628 c 0
 465.604 105.347 473.622 113.373 478.327 123.192 c 0
 483.045 133.039 482.758 129.036 482.988 188.434 c 2
 483.193 241.565 l 1
 434.459 241.565 l 2
 381.988 241.565 381.427 241.595 372.771 244.751 c 0
 366.266 247.122 362.167 249.882 356.024 256.023 c 0
 349.559 262.489 347.066 266.324 344.514 273.734 c 0
 340.819 284.457 340.812 294.438 344.493 305.12 c 0
 347.066 312.59 349.548 316.414 356.024 322.892 c 0
 362.167 329.033 366.266 331.793 372.771 334.164 c 0
 381.81 337.46 378.013 337.349 482.29 337.349 c 2
 578.916 337.349 l 1
 578.916 236.476 l 2
 578.916 139.729 578.868 135.225 577.727 126.385 c 0
 575.572 109.698 571.373 95.8047 563.833 80.4209 c 0
 542.573 37.042 500.965 7.42188 452.531 1.18652 c 0
 443.689 0.0478516 439.218 -0.000976562 342.893 -0.000976562 c 0
 233.856 -0.000976562 235.3 -0.0400391 219.88 3.36035 c 0
 204.82 6.68164 188.103 13.4385 175.302 21.3789 c 0
 137.57 44.7842 112.672 83.9756 107.519 128.072 c 0
 106.13 139.955 106.153 405.783 107.544 419.458 c 0
 110.749 450.963 121.738 481.703 138.986 507.409 c 0
 141.564 511.252 174.178 553.645 211.446 601.597 c 0
 258.594 662.259 281.137 690.793 285.526 695.361 c 0
 308.506 719.277 338.013 734.176 371.085 738.561 c 0
EndSplineSet
EndChar
StartChar: H
Encoding: 72 72 43
Width: 715
Flags: W
LayerCount: 2
Back
Fore
SplineSet
145.783 738.912 m 0
 150.643 739.948 161.507 739.604 166.566 738.254 c 0
 168.575 737.718 172.591 736.113 175.603 734.644 c 0
 185.422 729.853 192.502 722.771 197.291 712.952 c 0
 202.613 702.038 202.093 718.133 202.261 559.156 c 2
 202.41 418.072 l 1
 342.771 418.072 l 1
 483.133 418.072 l 1
 483.133 556.867 l 2
 483.133 706.928 482.975 699.385 486.318 708.555 c 0
 488.689 715.061 491.449 719.159 497.591 725.301 c 0
 503.877 731.587 508.013 734.322 514.94 736.775 c 0
 527.712 741.297 539.865 740.596 552.109 734.632 c 0
 561.929 729.849 569.01 722.771 573.801 712.952 c 0
 575.271 709.939 576.929 705.79 577.531 703.614 c 0
 578.571 699.857 578.615 686.325 578.615 369.879 c 0
 578.615 53.4336 578.571 39.9014 577.531 36.1445 c 0
 576.929 33.9688 575.271 29.8184 573.801 26.8066 c 0
 569.01 16.9873 561.929 9.91016 552.109 5.12695 c 0
 539.865 -0.837891 527.712 -1.53809 514.94 2.9834 c 0
 508.013 5.43652 503.877 8.17188 497.591 14.457 c 0
 491.449 20.5996 488.689 24.6982 486.318 31.2041 c 0
 482.976 40.373 483.133 32.8311 483.133 183.192 c 2
 483.133 322.289 l 1
 342.771 322.289 l 1
 202.41 322.289 l 1
 202.261 180.903 l 2
 202.093 21.626 202.612 37.7178 197.291 26.8066 c 0
 192.502 16.9873 185.422 9.91016 175.603 5.12695 c 0
 163.359 -0.837891 151.205 -1.53809 138.435 2.9834 c 0
 131.507 5.43652 127.37 8.17188 121.085 14.457 c 0
 113.066 22.4756 109.521 29.0352 107.479 39.6377 c 0
 106.202 46.2646 106.202 693.494 107.479 700.12 c 0
 109.521 710.723 113.066 717.282 121.085 725.301 c 0
 128.924 733.14 135.362 736.688 145.783 738.912 c 0
EndSplineSet
Validated: 33
EndChar

StartChar: I
Encoding: 73 73 44
Width: 715
Flags: W
LayerCount: 2
Back
Fore
SplineSet
146.868 739.158 m 0
 148.425 739.423 236.356 739.666 342.26 739.699 c 0
 505.633 739.75 535.486 739.631 539.218 738.915 c 0
 562.174 734.508 578.435 715 578.435 691.867 c 0
 578.435 668.734 562.174 649.228 539.218 644.82 c 0
 535.587 644.123 522.229 643.976 462.591 643.976 c 2
 390.362 643.976 l 1
 390.362 369.879 l 1
 390.362 95.7822 l 1
 462.591 95.7822 l 2
 540.663 95.7822 538.986 95.8467 547.832 92.5049 c 0
 558.977 88.2939 568.927 79.0068 574.072 68.0117 c 0
 587.459 39.4092 569.278 5.49805 537.952 0.639648 c 0
 534.574 0.116211 484.579 -0.015625 339.76 0.120117 c 2
 146.085 0.300781 l 1
 141.688 1.66406 l 2
 120.186 8.32715 106.627 26.2041 106.627 47.8906 c 0
 106.627 69.5781 120.222 87.5049 141.688 94.125 c 2
 146.085 95.4814 l 1
 220.332 95.6621 l 1
 294.579 95.8428 l 1
 294.579 369.879 l 1
 294.579 643.916 l 1
 220.332 644.097 l 1
 146.085 644.277 l 1
 141.688 645.64 l 2
 127.591 650.006 116.434 659.553 110.751 672.108 c 0
 105.161 684.458 105.164 699.277 110.759 711.627 c 0
 117.261 725.979 131.024 736.474 146.868 739.158 c 0
EndSplineSet
Validated: 33
EndChar

StartChar: J
Encoding: 74 74 45
Width: 715
Flags: W
LayerCount: 2
Back
Fore
SplineSet
474.698 738.919 m 0
 479.558 739.952 490.422 739.603 495.481 738.249 c 0
 500.843 736.814 509.398 732.434 513.675 728.931 c 0
 520.893 723.02 527.005 713.614 529.933 703.916 c 0
 530.976 700.462 531.03 687.771 531.175 418.072 c 0
 531.323 140.12 531.307 135.701 530.14 126.506 c 0
 528.793 115.903 525.899 103.739 522.615 94.8789 c 0
 503.52 43.3535 457.711 7.29199 403.253 0.914062 c 0
 391.807 -0.426758 293.132 -0.435547 281.687 0.902344 c 0
 214.759 8.72852 162.35 61.1191 154.531 128.012 c 0
 153.215 139.276 153.165 290.904 154.476 297.711 c 0
 155.566 303.373 157.727 309.288 160.328 313.734 c 0
 162.936 318.192 172.771 328.033 177.229 330.646 c 0
 182.031 333.459 189.939 336.079 196.145 336.91 c 0
 205.903 338.217 218.163 335.446 226.626 330.021 c 0
 234.578 324.924 242.877 315.096 245.771 307.349 c 0
 249.26 298.014 249.011 304.276 249.395 216.265 c 0
 249.788 125.602 249.39 133.239 254.262 123.072 c 0
 260.203 110.672 271.325 101.325 284.759 97.4424 c 2
 289.457 96.084 l 1
 342.47 96.084 l 2
 401.867 96.084 398.208 95.832 408.192 100.616 c 0
 420.57 106.547 430.018 117.831 434.156 131.626 c 0
 435.192 135.078 435.254 147.892 435.542 417.47 c 0
 435.821 679.277 435.916 699.938 436.853 703.012 c 0
 440.066 713.554 443.773 719.71 451.023 726.543 c 0
 458.19 733.297 465 736.856 474.698 738.919 c 0
EndSplineSet
EndChar
StartChar: K
Encoding: 75 75 46
Width: 715
Flags: W
LayerCount: 2
Back
Fore
SplineSet
145.783 738.912 m 0
 150.643 739.948 161.507 739.604 166.566 738.254 c 0
 168.575 737.718 172.591 736.113 175.603 734.644 c 0
 185.422 729.853 192.496 722.771 197.272 712.952 c 0
 202.516 702.173 202.016 714.458 202.384 587.289 c 2
 202.711 474.277 l 1
 350.904 601.054 l 2
 432.41 670.781 500.724 728.996 502.712 730.42 c 0
 516.038 739.962 531.988 742.219 547.17 736.711 c 0
 558.796 732.492 568.79 723.312 574.084 711.988 c 0
 582.786 693.373 578.538 671.397 563.495 657.208 c 0
 561.54 655.364 485.332 590.062 394.127 512.078 c 0
 302.922 434.094 228.313 370.111 228.313 369.879 c 0
 228.313 369.647 302.922 305.664 394.127 227.681 c 0
 485.332 149.696 561.54 84.3926 563.495 82.5459 c 0
 573.265 73.3164 578.435 61.3252 578.435 47.8906 c 0
 578.435 34.2764 573.194 22.3281 563.073 12.8633 c 0
 546.362 -2.76465 521.627 -4.20898 502.712 9.33887 c 0
 500.724 10.7627 432.41 68.9766 350.904 138.704 c 2
 202.711 265.481 l 1
 202.384 152.47 l 2
 202.016 25.3008 202.516 37.5859 197.272 26.8066 c 0
 192.496 16.9873 185.422 9.91016 175.603 5.12695 c 0
 163.359 -0.837891 151.205 -1.53809 138.435 2.9834 c 0
 131.507 5.43652 127.37 8.17188 121.085 14.457 c 0
 113.066 22.4756 109.521 29.0352 107.479 39.6377 c 0
 106.202 46.2646 106.202 693.494 107.479 700.12 c 0
 109.521 710.723 113.066 717.282 121.085 725.301 c 0
 128.924 733.14 135.362 736.688 145.783 738.912 c 0
EndSplineSet
Validated: 33
EndChar
StartChar: L
Encoding: 76 76 47
Width: 715
Flags: W
LayerCount: 2
Back
Fore
SplineSet
145.783 738.912 m 0
 150.643 739.948 161.507 739.603 166.566 738.249 c 0
 171.929 736.814 180.483 732.434 184.76 728.931 c 0
 191.978 723.02 198.09 713.614 201.018 703.916 c 0
 202.061 700.46 202.115 687.018 202.26 398.042 c 2
 202.41 95.7822 l 1
 368.615 95.7822 l 2
 509.097 95.7822 535.501 95.6523 539.218 94.9385 c 0
 562.174 90.5312 578.435 71.0234 578.435 47.8906 c 0
 578.435 24.7588 562.174 5.25098 539.218 0.84375 c 0
 535.485 0.126953 502.41 -0.000976562 320.724 -0.000976562 c 2
 106.627 -0.000976562 l 1
 106.627 347.831 l 2
 106.627 724.939 106.399 699.195 109.812 708.555 c 0
 112.184 715.061 114.942 719.159 121.085 725.301 c 0
 128.924 733.14 135.362 736.688 145.783 738.912 c 0
EndSplineSet
Validated: 33
EndChar

StartChar: M
Encoding: 77 77 62
Width: 715
Flags: W
LayerCount: 2
Back
Fore
SplineSet
106.627 391.928 m 2
 106.627 739.759 l 1
 166.446 739.759 l 1
 226.266 739.759 l 1
 232.561 730.783 l 2
 236.021 725.85 261.211 689.97 288.494 651.114 c 0
 315.777 612.259 339.137 579.011 340.362 577.289 c 2
 342.591 574.156 l 1
 400.663 656.958 l 1
 458.735 739.759 l 1
 518.826 739.759 l 1
 578.916 739.759 l 1
 578.766 389.607 l 2
 578.622 54.4268 578.569 39.3027 577.532 35.8428 c 0
 573.36 21.9268 564.388 11.0801 552.109 5.11035 c 0
 539.865 -0.842773 527.712 -1.53711 514.94 2.98828 c 0
 508.555 5.25098 504.164 8.00488 498.615 13.2275 c 0
 491.364 20.0518 487.657 26.2041 484.444 36.7461 c 0
 483.508 39.8203 483.413 60.5723 483.133 323.523 c 2
 482.832 606.988 l 1
 436.597 541.084 l 1
 390.362 475.181 l 1
 390.362 460.843 l 2
 390.362 442.108 389.016 435.139 383.646 426.084 c 0
 380.774 421.241 373.313 413.561 368.254 410.237 c 0
 359.348 404.388 347.229 401.516 337.109 402.856 c 0
 330.904 403.679 322.96 406.312 318.254 409.109 c 0
 310.395 413.778 301.139 424.518 298.172 432.409 c 0
 295.168 440.399 294.98 441.807 294.623 459.156 c 2
 294.277 475.903 l 1
 248.494 541.175 l 1
 202.711 606.445 l 1
 202.41 322.951 l 2
 202.123 52.3486 202.06 39.293 201.025 35.8428 c 0
 196.854 21.9268 187.882 11.0801 175.603 5.11035 c 0
 163.359 -0.842773 151.205 -1.53809 138.435 2.9834 c 0
 131.507 5.43652 127.37 8.17188 121.085 14.457 c 0
 114.942 20.5996 112.184 24.6982 109.812 31.2041 c 0
 106.399 40.5625 106.627 14.8184 106.627 391.928 c 2
EndSplineSet
EndChar

StartChar: N
Encoding: 78 78 49
Width: 715
Flags: W
DStem2: 239.248 724.699 202.711 569.337 0.402011 -0.915635<127.567 311.161 438.281 606.157> 202.711 569.337 327.471 284.819 0.780288 -0.62542<275.292 207.138>
LayerCount: 2
Back
Fore
SplineSet
106.627 391.928 m 2
 106.627 739.759 l 1
 169.639 739.608 l 1
 232.651 739.458 l 1
 239.248 724.699 l 2
 242.875 716.583 299.179 588.343 364.338 439.789 c 2
 482.832 169.638 l 1
 483.133 434.668 l 2
 483.412 680.392 483.508 699.94 484.444 703.012 c 0
 487.657 713.554 491.364 719.707 498.615 726.531 c 0
 504.164 731.753 508.555 734.507 514.94 736.77 c 0
 527.712 741.295 539.865 740.602 552.109 734.648 c 0
 564.388 728.678 573.36 717.831 577.532 703.916 c 0
 578.569 700.456 578.622 685.331 578.766 350.15 c 2
 578.916 -0.000976562 l 1
 515.573 0.150391 l 1
 452.229 0.300781 l 1
 327.471 284.819 l 1
 202.711 569.337 l 1
 202.41 304.397 l 2
 202.123 51.6865 202.059 39.29 201.025 35.8428 c 0
 196.854 21.9268 187.882 11.0801 175.603 5.11035 c 0
 163.359 -0.842773 151.205 -1.53809 138.435 2.9834 c 0
 131.507 5.43652 127.37 8.17188 121.085 14.457 c 0
 114.942 20.5996 112.184 24.6982 109.812 31.2041 c 0
 106.399 40.5625 106.627 14.8184 106.627 391.928 c 2
EndSplineSet
EndChar
StartChar: O
Encoding: 79 79 50
Width: 715
Flags: W
LayerCount: 2
Back
Fore
SplineSet
327.591 738.848 m 0
 330.79 739.28 337.169 739.667 341.688 739.701 c 0
 385.482 740.032 426.986 716.501 449.215 678.734 c 0
 451.204 675.356 477.21 623.916 506.988 564.458 c 0
 547.629 483.313 561.998 454.069 564.561 447.289 c 0
 581.624 402.137 583.506 355 570.093 308.734 c 0
 565.099 291.51 563.16 287.409 507 175.301 c 0
 477.215 115.843 451.221 64.4297 449.253 61.084 c 0
 444.257 52.5898 438.766 45.4053 431.666 38.0723 c 0
 394.142 -0.688477 336.326 -10.9639 288.254 12.583 c 0
 267.229 22.8809 249.796 38.585 237.019 58.7344 c 0
 232.532 65.8096 126.395 278.675 122.428 288.554 c 0
 115.302 306.297 110.679 324.397 108.04 344.879 c 0
 106.512 356.747 106.512 383.012 108.04 394.879 c 0
 110.679 415.361 115.302 433.462 122.428 451.204 c 0
 126.395 461.084 232.52 673.949 237.005 681.024 c 0
 252.822 705.975 276.326 724.449 303.615 733.383 c 0
 312.317 736.231 318.254 737.584 327.591 738.848 c 0
349.338 643.037 m 0
 339.037 645.461 329.181 642.59 321.741 635 c 0
 318.622 631.818 315.433 625.603 265.603 525.603 c 0
 236.546 467.289 211.809 417.139 210.631 414.156 c 0
 208.059 407.645 205.205 397.048 203.817 388.855 c 0
 202.399 380.481 202.399 359.276 203.817 350.903 c 0
 205.205 342.711 208.059 332.114 210.631 325.603 c 0
 211.809 322.619 236.546 272.47 265.633 214.096 c 0
 317.594 109.818 318.555 107.951 322.049 104.479 c 0
 326.29 100.266 330.302 97.9697 335.604 96.7227 c 0
 345.784 94.3291 355.428 97.0361 362.771 104.351 c 0
 366.065 107.631 367.44 110.24 396.416 168.192 c 0
 413.043 201.445 437.259 249.742 450.271 275.602 c 0
 470.612 316.023 474.302 323.769 476.676 331.023 c 0
 482.048 347.447 483.923 362.59 482.628 379.096 c 0
 481.744 390.361 480.244 397.83 476.676 408.734 c 0
 474.302 415.99 470.612 423.734 450.271 464.156 c 0
 437.259 490.017 413.043 538.313 396.416 571.566 c 0
 367.44 629.518 366.065 632.127 362.771 635.399 c 0
 358.663 639.481 354.579 641.804 349.338 643.037 c 0
EndSplineSet
Validated: 33
EndChar

StartChar: P
Encoding: 80 80 51
Width: 715
Flags: W
LayerCount: 2
Back
Fore
SplineSet
106.627 391.928 m 2
 106.627 739.759 l 1
 278.193 739.61 l 2
 469.459 739.444 452.263 739.831 470.182 735.289 c 0
 528.068 720.616 571.016 671.386 578.008 611.687 c 0
 579.37 600.061 579.389 421.626 578.03 410 c 0
 570.269 343.614 518.846 291.621 452.531 283.11 c 0
 443.639 281.969 439.067 281.928 322.862 281.928 c 2
 202.41 281.928 l 1
 202.231 160.662 l 2
 202.03 24.1562 202.529 37.6133 197.272 26.8066 c 0
 192.496 16.9873 185.422 9.91016 175.603 5.12695 c 0
 163.359 -0.837891 151.205 -1.53809 138.435 2.9834 c 0
 131.507 5.43652 127.37 8.17188 121.085 14.457 c 0
 114.942 20.5996 112.184 24.6982 109.812 31.2041 c 0
 106.399 40.5625 106.627 14.8184 106.627 391.928 c 2
447.29 642.587 m 0
 443.875 643.614 437.019 643.683 323.043 643.825 c 2
 202.41 643.976 l 1
 202.41 510.843 l 1
 202.41 377.711 l 1
 323.013 377.89 l 2
 458.313 378.09 445.483 377.641 455.724 382.535 c 0
 465.543 387.228 473.569 395.24 478.288 405.06 c 0
 483.216 415.316 482.832 406.386 482.832 510.843 c 2
 482.832 603.916 l 1
 481.466 608.614 l 2
 476.734 624.886 463.977 637.568 447.29 642.587 c 0
EndSplineSet
Validated: 33
EndChar

StartChar: Q
Encoding: 81 81 52
Width: 715
Flags: W
LayerCount: 2
Back
Fore
SplineSet
447.893 738.843 m 0
 474.519 742.292 503.664 735.522 526.206 720.651 c 0
 555.028 701.637 573.5 671.928 577.959 637.409 c 0
 578.812 630.808 578.916 614.518 578.916 488.012 c 0
 578.916 335.723 578.987 339.614 575.885 322.289 c 0
 569.163 284.759 551.464 250.277 524.771 222.711 c 0
 520.584 218.386 503.495 203.262 482.229 185.06 c 0
 462.651 168.302 446.62 154.598 446.537 154.548 c 0
 446.423 154.479 450.898 142.951 464.839 107.409 c 2
 469.398 95.7822 l 1
 502.109 95.7822 l 2
 527.771 95.7822 535.768 95.6006 539.218 94.9385 c 0
 562.174 90.5312 578.435 71.0234 578.435 47.8906 c 0
 578.435 24.7588 562.174 5.25098 539.218 0.84375 c 0
 535.601 0.149414 523.193 -0.000976562 469.338 -0.000976562 c 2
 403.856 -0.000976562 l 1
 386.718 43.9756 l 2
 377.279 68.1924 369.43 87.9512 369.248 87.9512 c 0
 369.065 87.9512 352.26 73.6934 331.898 56.2646 c 0
 307.079 35.0195 292.518 22.9922 287.712 19.7666 c 0
 252.757 -3.69141 208.435 -6.37109 170.482 12.6787 c 0
 140.589 27.6836 118.569 55.3008 110.228 88.2529 c 0
 106.404 103.353 106.559 95.9033 106.752 256.023 c 2
 106.928 401.506 l 1
 108.521 411.445 l 2
 114.237 447.108 127.332 477.256 148.816 504.217 c 0
 160.4 518.753 161.747 519.935 341.024 672.961 c 0
 395.724 719.65 391.136 715.845 398.615 720.729 c 0
 412.985 730.112 430.663 736.61 447.893 738.843 c 0
471.266 642.002 m 0
 465.241 644.758 457.131 644.381 451.567 641.087 c 0
 449.884 640.091 378.916 579.642 257.109 475.451 c 0
 240.241 461.023 228.739 450.721 226.206 447.771 c 0
 214.882 434.587 207.614 419.639 204.093 402.289 c 2
 202.711 395.481 l 1
 202.711 253.312 l 1
 202.711 111.145 l 1
 204.299 107.771 l 2
 206.34 103.434 210.061 99.7129 214.398 97.6719 c 0
 217.284 96.3135 218.555 96.084 223.193 96.084 c 0
 228.013 96.084 229.003 96.2852 232.109 97.8906 c 0
 234.438 99.0957 251.175 113.052 282.32 139.759 c 0
 308.043 161.816 329.835 180.496 330.813 181.325 c 2
 332.591 182.831 l 1
 314.79 228.464 l 2
 304.99 253.584 296.562 275.748 296.04 277.771 c 0
 293.087 289.217 295.115 303.186 301.255 313.675 c 0
 303.899 318.192 313.701 328.013 318.193 330.646 c 0
 322.996 333.459 330.904 336.073 337.109 336.897 c 0
 347.229 338.24 359.348 335.37 368.254 329.521 c 0
 373.313 326.197 380.789 318.518 383.676 313.675 c 0
 384.805 311.782 389.076 301.656 393.193 291.114 c 0
 397.311 280.572 402.691 266.797 405.182 260.421 c 2
 409.699 248.855 l 1
 430.302 266.415 l 2
 441.627 276.068 453.24 286.362 456.092 289.276 c 0
 468.964 302.432 477.594 319.036 481.452 338.072 c 2
 482.832 344.879 l 1
 482.832 486.747 l 1
 482.832 628.614 l 1
 481.254 631.988 l 2
 479.225 636.325 475.49 640.069 471.266 642.002 c 0
EndSplineSet
Validated: 33
EndChar

StartChar: R
Encoding: 82 82 53
Width: 715
Flags: W
DStem2: 379.037 402.107 268.254 402.107 0.50461 -0.863347<0 157.611>
LayerCount: 2
Back
Fore
SplineSet
106.627 391.928 m 2
 106.627 739.759 l 1
 278.193 739.61 l 2
 469.459 739.444 452.263 739.83 470.182 735.296 c 0
 528.281 720.593 571.124 671.325 578.04 611.265 c 0
 578.817 604.516 578.938 597.048 578.749 567.35 c 0
 578.5 528.012 578.415 526.915 574.425 511.145 c 0
 561.508 460.097 521.205 419.816 470.121 406.898 c 0
 454.808 403.025 452.109 402.812 413.796 402.443 c 2
 379.037 402.107 l 1
 476.567 235.301 l 2
 530.21 143.554 574.663 66.9756 575.354 65.1201 c 0
 582.338 46.3848 577.665 26.499 563.073 12.8525 c 0
 543.747 -5.21875 513.504 -3.85547 495.396 15.9033 c 0
 493.428 18.0518 489.986 22.8906 487.771 26.626 c 0
 485.552 30.3701 435.252 116.385 375.995 217.771 c 2
 268.254 402.107 l 1
 235.332 402.259 l 1
 202.41 402.409 l 1
 202.26 220.934 l 2
 202.116 48.4033 202.055 39.2793 201.017 35.8428 c 0
 199.306 30.1807 194.949 21.7598 191.604 17.6504 c 0
 187.322 12.3887 181.988 8.20703 175.603 5.10449 c 0
 163.359 -0.844727 151.205 -1.53809 138.435 2.9834 c 0
 131.507 5.43652 127.37 8.17188 121.085 14.457 c 0
 114.942 20.5996 112.184 24.6982 109.812 31.2041 c 0
 106.399 40.5625 106.627 14.8184 106.627 391.928 c 2
447.29 642.59 m 0
 443.875 643.615 437.019 643.683 323.043 643.825 c 2
 202.41 643.976 l 1
 202.41 571.084 l 1
 202.41 498.192 l 1
 323.013 498.371 l 2
 458.313 498.571 445.483 498.123 455.724 503.017 c 0
 465.543 507.71 473.569 515.723 478.288 525.542 c 0
 482.916 535.174 482.832 534.337 482.832 571.084 c 0
 482.832 607.831 482.915 606.995 478.3 616.626 c 0
 472.369 629.004 461.085 638.452 447.29 642.59 c 0
EndSplineSet
EndChar

StartChar: S
Encoding: 83 83 54
Width: 715
Flags: W
LayerCount: 2
Back
Fore
SplineSet
200.362 738.823 m 0
 205.189 739.483 230.271 739.65 331.958 739.699 c 0
 441.537 739.751 458.546 739.641 465.061 738.835 c 0
 495.182 735.108 521.408 722.169 542.313 700.723 c 0
 562.685 679.824 575.107 653.313 578.279 623.976 c 0
 580.571 602.771 576.146 588.451 563.676 576.711 c 0
 554.226 567.814 543.555 563.597 530.724 563.687 c 0
 525.061 563.726 522.828 564.023 518.495 565.316 c 0
 509.398 568.03 502.735 572.02 496.589 578.434 c 0
 487.917 587.481 484.179 596.506 483.14 610.903 c 0
 482.73 616.566 482.199 619.534 481.05 622.59 c 0
 477.701 631.49 470.423 638.701 461.446 642.01 c 2
 456.929 643.675 l 1
 333.646 643.675 l 1
 210.362 643.675 l 1
 207.771 641.855 l 2
 202.893 638.43 201.005 631.894 203.495 627.048 c 0
 204.091 625.889 284.151 522.861 381.356 398.162 c 0
 478.562 273.464 559.551 169.243 561.283 166.626 c 0
 570.084 153.33 575.896 137.59 578.032 121.265 c 0
 584.979 68.1924 550.318 17.165 498.133 3.6377 c 0
 483.475 -0.162109 489.94 -0.000976562 352.41 -0.000976562 c 0
 243.013 -0.000976562 226.27 0.117188 220.061 0.932617 c 0
 189.82 4.90234 163.791 17.8525 142.99 39.2764 c 0
 122.805 60.0674 110.43 86.5654 107.261 115.782 c 0
 105.078 135.903 108.809 149.333 119.826 161.023 c 0
 126.134 167.717 132.711 171.702 141.988 174.452 c 0
 146.321 175.736 148.555 176.032 154.218 176.072 c 0
 167.049 176.161 177.719 171.945 187.169 163.051 c 0
 196.942 153.853 201.287 144.096 202.398 128.855 c 0
 202.812 123.192 203.345 120.225 204.497 117.168 c 0
 207.787 108.443 214.88 101.311 223.796 97.7627 c 2
 228.013 96.084 l 1
 350.543 95.9336 l 1
 473.073 95.7822 l 1
 476.266 97.2441 l 2
 481.868 99.8086 484.683 106.608 482.394 112.048 c 0
 481.906 113.207 401.715 216.506 304.218 341.566 c 0
 206.72 466.626 125.694 570.873 124.187 573.192 c 0
 100.643 609.397 100.885 655.717 124.805 691.445 c 0
 142.121 717.311 169.76 734.641 200.362 738.823 c 0
EndSplineSet
Validated: 33
EndChar

StartChar: T
Encoding: 84 84 69
Width: 715
Flags: W
LayerCount: 2
Back
Fore
SplineSet
106.627 673.554 m 2
 106.627 739.759 l 1
 342.771 739.759 l 1
 578.916 739.759 l 1
 578.916 673.554 l 2
 578.916 601.386 578.984 602.946 575.427 593.795 c 0
 570.895 582.137 560.724 571.904 548.916 567.126 c 0
 542.218 564.414 538.073 563.627 530.724 563.669 c 0
 523.133 563.713 516.319 565.296 510.061 568.467 c 0
 499.195 573.974 490.504 583.494 486.387 594.397 c 0
 483.54 601.936 483.133 605.844 483.133 625.662 c 2
 483.133 643.976 l 1
 436.748 643.976 l 1
 390.362 643.976 l 1
 390.212 341.717 l 2
 390.067 52.7402 390.014 39.2988 388.978 35.8428 c 0
 384.806 21.9268 375.833 11.0801 363.555 5.11035 c 0
 351.311 -0.842773 339.157 -1.53809 326.386 2.9834 c 0
 319.458 5.43652 315.322 8.17188 309.037 14.457 c 0
 302.895 20.5996 300.136 24.6982 297.764 31.2041 c 0
 294.359 40.541 294.579 18.9756 294.579 344.036 c 2
 294.579 643.976 l 1
 248.494 643.976 l 1
 202.41 643.976 l 1
 202.41 625.662 l 2
 202.41 605.481 201.997 601.708 198.921 593.795 c 0
 194.388 582.137 184.218 571.904 172.41 567.126 c 0
 165.712 564.414 161.566 563.627 154.218 563.669 c 0
 146.627 563.713 139.812 565.296 133.555 568.467 c 0
 122.689 573.974 113.997 583.494 109.88 594.397 c 0
 106.583 603.13 106.627 602.048 106.627 673.554 c 2
EndSplineSet
EndChar
StartChar: U
Encoding: 85 85 56
Width: 715
Flags: W
LayerCount: 2
Back
Fore
SplineSet
145.783 738.912 m 0
 150.643 739.948 161.507 739.603 166.566 738.249 c 0
 171.929 736.814 180.483 732.434 184.76 728.931 c 0
 191.978 723.02 198.09 713.614 201.018 703.916 c 0
 202.059 700.469 202.123 687.229 202.41 417.771 c 0
 202.698 147.951 202.76 135.078 203.796 131.626 c 0
 207.935 117.831 217.382 106.547 229.76 100.616 c 0
 240.043 95.6885 230.182 96.084 342.771 96.084 c 0
 455.362 96.084 445.5 95.6885 455.784 100.616 c 0
 468.161 106.547 477.609 117.831 481.748 131.626 c 0
 482.783 135.078 482.846 147.892 483.133 417.47 c 0
 483.413 679.277 483.508 699.938 484.444 703.012 c 0
 487.657 713.554 491.364 719.707 498.615 726.531 c 0
 504.164 731.753 508.555 734.507 514.94 736.77 c 0
 527.712 741.295 539.865 740.602 552.109 734.648 c 0
 564.388 728.678 573.36 717.831 577.532 703.916 c 0
 578.567 700.462 578.622 687.771 578.766 418.072 c 0
 578.914 140.12 578.898 135.701 577.736 126.506 c 0
 575.613 109.698 571.445 95.8379 563.879 80.4209 c 0
 542.59 37.042 500.965 7.42188 452.531 1.18652 c 0
 443.689 0.0478516 439.218 -0.000976562 342.893 -0.000976562 c 0
 257.109 -0.000976562 241.338 0.131836 234.699 0.908203 c 0
 191.747 5.93359 153.735 29.4277 129.931 65.6621 c 0
 121.149 79.0283 113.529 97.2285 109.979 113.312 c 0
 106.415 129.455 106.627 110.301 106.627 415.723 c 0
 106.627 719.036 106.411 699.229 109.812 708.555 c 0
 112.184 715.061 114.942 719.159 121.085 725.301 c 0
 128.924 733.14 135.362 736.688 145.783 738.912 c 0
EndSplineSet
Validated: 33
EndChar

StartChar: V
Encoding: 86 86 57
Width: 715
Flags: W
DStem2: 202.711 538.855 109.699 514.156 0.36279 -0.931871<0 192.443> 413.193 360.873 482.771 275.361 0.363062 0.931765<0 192.409>
LayerCount: 2
Back
Fore
SplineSet
145.783 738.912 m 0
 150.643 739.948 161.507 739.604 166.566 738.254 c 0
 168.575 737.718 172.591 736.113 175.603 734.644 c 0
 185.422 729.853 192.496 722.771 197.272 712.952 c 0
 202.459 702.29 202.02 710.301 202.386 619.578 c 2
 202.711 538.855 l 1
 272.591 359.548 l 2
 311.023 260.934 342.646 180.553 342.862 180.934 c 0
 343.077 181.314 374.716 262.259 413.193 360.873 c 2
 483.133 540.12 l 1
 483.133 617.892 l 2
 483.133 701.747 483.059 699.613 486.318 708.555 c 0
 488.689 715.061 491.449 719.159 497.591 725.301 c 0
 503.877 731.587 508.013 734.322 514.94 736.775 c 0
 527.712 741.297 539.865 740.596 552.109 734.632 c 0
 561.929 729.849 569.002 722.771 573.778 712.952 c 0
 578.987 702.244 578.538 711.445 578.738 611.205 c 2
 578.916 522.108 l 1
 482.771 275.361 l 2
 429.888 139.638 386.082 27.5293 385.415 26.2041 c 0
 383.293 21.9873 379.158 16.6221 375.121 12.8467 c 0
 351.615 -9.13379 313.692 -1.6875 299.431 27.71 c 0
 298.386 29.8643 255.96 138.434 205.151 268.976 c 0
 154.343 399.518 111.389 509.85 109.699 514.156 c 2
 106.627 521.987 l 1
 106.627 608.795 l 2
 106.627 702.47 106.534 699.564 109.812 708.555 c 0
 112.184 715.061 114.942 719.159 121.085 725.301 c 0
 128.924 733.14 135.362 736.688 145.783 738.912 c 0
EndSplineSet
Validated: 33
EndChar

StartChar: W
Encoding: 87 87 58
Width: 715
Flags: W
LayerCount: 2
Back
Fore
SplineSet
145.783 738.912 m 0
 150.642 739.948 161.506 739.603 166.566 738.249 c 0
 171.928 736.814 180.482 732.434 184.759 728.931 c 0
 191.977 723.02 198.089 713.614 201.018 703.916 c 0
 202.06 700.462 202.115 687.861 202.259 420.753 c 2
 202.409 141.204 l 1
 215.603 118.645 l 1
 228.795 96.084 l 1
 248.584 95.9336 l 1
 268.373 95.7822 l 1
 281.476 118.253 l 1
 294.578 140.723 l 1
 294.728 299.698 l 2
 294.896 478.855 294.364 460.446 299.686 471.386 c 0
 305.656 483.657 316.446 492.639 329.88 496.518 c 0
 333.76 497.638 336.084 497.891 342.47 497.891 c 0
 351.808 497.891 355.691 497.01 363.555 493.108 c 0
 373.434 488.205 380.474 481.143 385.207 471.386 c 0
 390.512 460.452 389.965 478.734 390.334 300 c 2
 390.663 141.265 l 1
 403.916 118.523 l 1
 417.169 95.7822 l 1
 436.747 95.8125 l 1
 456.325 95.8428 l 1
 469.729 118.795 l 1
 483.133 141.746 l 1
 483.133 418.675 l 2
 483.133 718.795 482.918 699.229 486.317 708.555 c 0
 488.689 715.061 491.448 719.159 497.591 725.301 c 0
 503.876 731.587 508.012 734.322 514.939 736.775 c 0
 527.711 741.297 539.864 740.602 552.108 734.648 c 0
 564.387 728.678 573.359 717.831 577.531 703.916 c 0
 578.567 700.461 578.621 687.409 578.766 407.892 c 2
 578.916 115.481 l 1
 552.65 70.542 l 2
 538.216 45.8428 525.303 23.9199 523.981 21.8672 c 0
 521.031 17.2852 512.892 9.44043 508.193 6.65039 c 0
 503.67 3.96484 496.627 1.50586 490.964 0.634766 c 0
 487.672 0.12793 472.229 -0.00390625 434.036 0.150391 c 0
 381.687 0.360352 381.621 0.362305 377.229 1.70605 c 0
 363.916 5.7793 354.845 13.1982 347.057 26.3848 c 0
 344.852 30.1201 342.938 33.1318 342.771 33.1318 c 0
 342.604 33.1318 340.691 30.1201 338.485 26.3848 c 0
 330.697 13.1982 321.627 5.7793 308.313 1.70605 c 0
 303.921 0.362305 303.855 0.360352 251.506 0.150391 c 0
 213.313 -0.00390625 197.871 0.128906 194.578 0.637695 c 0
 188.916 1.5127 181.912 3.95996 177.289 6.68066 c 0
 173.326 9.0127 164.115 17.9512 160.708 22.7705 c 0
 159.489 24.4951 146.7 46.0234 132.259 70.6621 c 2
 106.024 115.421 l 1
 106.024 402.951 l 2
 106.024 718.795 105.772 697.12 109.566 707.831 c 0
 112.063 714.88 114.773 718.99 121.084 725.301 c 0
 128.923 733.14 135.361 736.688 145.783 738.912 c 0
EndSplineSet
Validated: 33
EndChar

StartChar: X
Encoding: 88 88 59
Width: 715
Flags: W
LayerCount: 2
Back
Fore
SplineSet
146.868 739.135 m 0
 157.29 740.892 169.653 738.43 179.037 732.729 c 0
 184.089 729.66 190.451 723.494 193.849 718.373 c 0
 195.41 716.021 229.48 657.981 269.579 589.367 c 2
 342.471 464.639 l 1
 343.766 466.807 l 2
 344.478 468 376.977 523.614 415.965 590.361 c 0
 454.953 657.108 488.087 713.727 489.576 716.145 c 0
 505.787 742.47 540.957 747.606 563.073 726.88 c 0
 570.101 720.293 574.624 712.711 577.131 703.313 c 0
 579.639 693.916 578.572 681.58 574.48 672.65 c 0
 573.706 670.96 533.737 602.289 485.633 520 c 0
 437.529 437.711 398.193 370.178 398.193 369.879 c 0
 398.193 369.581 437.529 302.048 485.633 219.759 c 0
 533.737 137.47 573.706 68.7979 574.48 67.1084 c 0
 578.572 58.1787 579.639 45.8428 577.131 36.4453 c 0
 574.624 27.0479 570.101 19.4658 563.073 12.8789 c 0
 540.957 -7.84863 505.787 -2.71094 489.576 23.6143 c 0
 488.087 26.0322 454.953 82.6504 415.965 149.397 c 0
 376.977 216.145 344.478 271.759 343.766 272.951 c 2
 342.471 275.12 l 1
 269.579 150.392 l 2
 229.48 81.7764 195.4 23.7109 193.826 21.3252 c 0
 188.398 13.0986 179.88 6.36816 170.663 3.02539 c 0
 143.871 -6.69238 114.898 8.79492 107.803 36.626 c 0
 105.453 45.8428 106.504 58.0801 110.399 66.8672 c 0
 111.207 68.6895 151.203 137.47 199.308 219.759 c 0
 247.412 302.048 286.748 369.581 286.748 369.879 c 0
 286.748 370.178 247.412 437.711 199.308 520 c 0
 151.203 602.289 111.206 671.068 110.397 672.892 c 0
 105.132 684.754 105.261 699.578 110.732 711.627 c 0
 117.251 725.979 131.024 736.464 146.868 739.135 c 0
EndSplineSet
Validated: 33
EndChar

StartChar: Y
Encoding: 89 89 60
Width: 715
Flags: W
DStem2: 202.711 627.35 106.024 595.12 0.614921 -0.788589<0 113.617> 413.524 538.886 460.542 443.192 0.614715 0.788749<0 106.596>
LayerCount: 2
Back
Fore
SplineSet
145.783 738.912 m 0
 150.642 739.948 161.506 739.604 166.566 738.254 c 0
 168.574 737.718 172.59 736.113 175.603 734.644 c 0
 185.422 729.853 192.495 722.771 197.271 712.952 c 0
 202.161 702.897 201.975 704.699 202.363 663.795 c 2
 202.711 627.35 l 1
 272.561 537.741 l 2
 330.271 463.705 342.546 448.273 343.192 448.945 c 0
 343.624 449.393 375.26 489.85 413.524 538.886 c 2
 483.072 628.012 l 1
 483.101 661.867 l 2
 483.131 698.192 483.274 700.268 486.328 708.614 c 0
 488.687 715.061 491.463 719.173 497.591 725.301 c 0
 503.876 731.587 508.012 734.322 514.939 736.775 c 0
 527.711 741.297 539.864 740.596 552.108 734.632 c 0
 561.928 729.849 569.008 722.771 573.796 712.952 c 0
 578.865 702.557 578.54 706.808 578.771 647.771 c 2
 578.977 595.181 l 1
 554.699 564.006 l 2
 541.354 546.868 498.957 492.47 460.542 443.192 c 2
 390.663 353.554 l 1
 390.334 196.506 l 2
 389.965 19.6377 390.512 37.7402 385.206 26.8066 c 0
 380.441 16.9873 373.374 9.91016 363.555 5.12695 c 0
 351.311 -0.837891 339.156 -1.53809 326.386 2.9834 c 0
 319.458 5.43652 315.321 8.17188 309.036 14.457 c 0
 302.895 20.5996 300.135 24.6982 297.763 31.2041 c 0
 294.409 40.4033 294.578 31.5059 294.578 198.734 c 2
 294.578 353.312 l 1
 200.301 474.217 l 1
 106.024 595.12 l 1
 106.024 642.831 l 2
 106.024 695.12 106.198 698.324 109.566 707.831 c 0
 112.063 714.88 114.773 718.99 121.084 725.301 c 0
 128.923 733.14 135.361 736.688 145.783 738.912 c 0
EndSplineSet
Validated: 33
EndChar

StartChar: Z
Encoding: 90 90 61
Width: 715
Flags: W
LayerCount: 2
Back
Fore
SplineSet
146.868 739.158 m 0
 148.425 739.423 246.296 739.666 364.308 739.699 c 2
 578.916 739.759 l 1
 578.916 709.578 l 1
 578.916 679.397 l 1
 569.68 663.614 l 2
 479.493 509.518 237.952 96.2803 237.952 96.084 c 0
 237.952 95.918 304.76 95.7822 386.386 95.7822 c 0
 511.567 95.7822 535.509 95.6504 539.218 94.9385 c 0
 562.174 90.5312 578.435 71.0234 578.435 47.8906 c 0
 578.435 24.7588 562.174 5.25098 539.218 0.84375 c 0
 535.485 0.126953 502.41 -0.000976562 320.724 -0.000976562 c 2
 106.627 -0.000976562 l 1
 106.627 30.6924 l 1
 106.627 61.3848 l 1
 115.55 76.626 l 2
 188.023 200.421 446.988 643.477 446.988 643.675 c 0
 446.988 643.84 379.308 644.044 296.537 644.126 c 2
 146.085 644.277 l 1
 141.688 645.64 l 2
 127.591 650.006 116.434 659.553 110.751 672.108 c 0
 105.161 684.458 105.164 699.277 110.759 711.627 c 0
 117.261 725.979 131.024 736.474 146.868 739.158 c 0
EndSplineSet
Validated: 33
EndChar
StartChar: bracketleft
Encoding: 91 91 62
Width: 715
Flags: W
LayerCount: 2
Back
Fore
SplineSet
145.783 738.851 m 0
 151.805 740.067 532.893 740.136 539.218 738.921 c 0
 562.174 734.51 578.435 715 578.435 691.867 c 0
 578.435 668.734 562.174 649.228 539.218 644.82 c 0
 535.551 644.116 518.916 643.976 439.097 643.976 c 2
 343.374 643.976 l 1
 343.374 369.879 l 1
 343.374 95.7822 l 1
 439.097 95.7822 l 2
 518.916 95.7822 535.551 95.6426 539.218 94.9385 c 0
 562.174 90.5312 578.435 71.0234 578.435 47.8906 c 0
 578.435 24.7588 562.174 5.25195 539.218 0.845703 c 0
 532.591 -0.425781 152.87 -0.419922 146.266 0.852539 c 0
 135.663 2.89453 129.104 6.43848 121.085 14.457 c 0
 113.066 22.4756 109.521 29.0352 107.479 39.6377 c 0
 106.202 46.2646 106.202 693.494 107.479 700.12 c 0
 109.521 710.723 113.066 717.282 121.085 725.301 c 0
 128.942 733.158 135.543 736.779 145.783 738.851 c 0
247.591 369.879 m 1
 247.591 643.976 l 1
 225.001 643.976 l 1
 202.41 643.976 l 1
 202.41 369.879 l 1
 202.41 95.7822 l 1
 225.001 95.7822 l 1
 247.591 95.7822 l 1
 247.591 369.879 l 1
EndSplineSet
Validated: 33
EndChar
StartChar: backslash
Encoding: 92 92 63
Width: 715
Flags: W
LayerCount: 2
Back
Fore
SplineSet
146.929 739.144 m 0
 158.013 741.012 170.895 738.169 180.603 731.713 c 0
 185.865 728.213 191.712 722.048 195.311 716.205 c 0
 202.062 705.241 573.23 69.8525 574.486 67.1084 c 0
 578.574 58.1787 579.639 45.8428 577.131 36.4453 c 0
 574.624 27.0479 570.101 19.4697 563.073 12.8906 c 0
 540.981 -7.78809 505.79 -2.65137 489.618 23.6143 c 0
 481.866 36.2041 111.634 670.068 110.383 672.892 c 0
 105.127 684.754 105.261 699.578 110.732 711.627 c 0
 117.26 725.999 131.024 736.464 146.929 739.144 c 0
EndSplineSet
Validated: 33
EndChar
StartChar: bracketright
Encoding: 93 93 64
Width: 715
Flags: W
LayerCount: 2
Back
Fore
SplineSet
146.868 739.158 m 0
 148.425 739.423 237.41 739.598 344.579 739.548 c 0
 530.121 739.462 539.632 739.405 543.073 738.365 c 0
 548.735 736.655 557.156 732.293 561.266 728.942 c 0
 568.635 722.935 574.851 713.253 577.527 703.614 c 0
 578.571 699.857 578.615 686.325 578.615 369.879 c 0
 578.615 53.4336 578.571 39.9014 577.522 36.1445 c 0
 575.925 30.4209 571.616 21.9668 568.097 17.6504 c 0
 562.091 10.2812 552.41 4.06543 542.771 1.38867 c 0
 539.03 0.349609 530.121 0.300781 342.771 0.300781 c 2
 146.688 0.300781 l 1
 141.988 1.66406 l 2
 120.487 7.9043 106.627 26.0234 106.627 47.8906 c 0
 106.627 69.5781 120.186 87.4541 141.688 94.1182 c 2
 146.085 95.4814 l 1
 243.826 95.6318 l 1
 341.567 95.7822 l 1
 341.567 369.879 l 1
 341.567 643.976 l 1
 243.826 644.126 l 1
 146.085 644.277 l 1
 141.688 645.64 l 2
 127.591 650.006 116.434 659.553 110.751 672.108 c 0
 105.161 684.458 105.164 699.277 110.759 711.627 c 0
 117.261 725.979 131.024 736.474 146.868 739.158 c 0
483.133 369.879 m 1
 483.133 643.976 l 1
 460.241 643.976 l 1
 437.351 643.976 l 1
 437.351 369.879 l 1
 437.351 95.7822 l 1
 460.241 95.7822 l 1
 483.133 95.7822 l 1
 483.133 369.879 l 1
EndSplineSet
Validated: 33
EndChar

StartChar: asciicircum
Encoding: 94 94 65
Width: 715
Flags: W
LayerCount: 2
Back
Fore
SplineSet
334.579 578.018 m 0
 340.37 579.07 344.097 579.065 350.302 577.994 c 0
 361.024 576.144 369.432 571.571 377.184 563.374 c 0
 379.634 560.783 382.471 557.216 383.507 555.422 c 0
 385.409 552.131 567.362 201.988 572.43 191.867 c 0
 577.558 181.627 579.415 172.605 578.285 163.434 c 0
 575.546 141.203 558.374 124.012 535.965 121.064 c 0
 522.41 119.281 507.127 124.719 496.966 134.939 c 0
 493.919 138.005 480.447 157.771 434.971 225.903 c 0
 403.004 273.795 369.118 324.496 359.64 338.614 c 2
 342.41 364.277 l 1
 267.139 251.597 l 2
 207.904 162.922 191.028 138.068 187.927 134.939 c 0
 177.777 124.701 162.53 119.275 148.916 121.058 c 0
 130.302 123.494 114.986 135.885 108.823 153.494 c 0
 107.227 158.055 106.955 159.759 106.73 166.627 c 0
 106.42 176.145 107.57 181.619 111.666 190.12 c 0
 117.847 202.952 300.432 553.7 302.83 557.35 c 0
 306.754 563.321 313.977 569.804 320.302 573.03 c 0
 326.446 576.164 328.688 576.947 334.579 578.018 c 0
EndSplineSet
EndChar

StartChar: underscore
Encoding: 95 95 66
Width: 715
Flags: W
LayerCount: 2
Back
Fore
SplineSet
146.868 -0.600586 m 0
 148.425 -0.336914 236.386 -0.09375 342.29 -0.0605469 c 0
 551.206 0.00390625 538.627 0.200195 547.832 -3.27734 c 0
 558.977 -7.48828 568.927 -16.7764 574.072 -27.7715 c 0
 587.459 -56.374 569.278 -90.2852 537.952 -95.1426 c 0
 534.574 -95.667 484.579 -95.7979 339.76 -95.6631 c 2
 146.085 -95.4824 l 1
 141.688 -94.1201 l 2
 127.591 -89.7529 116.434 -80.2061 110.751 -67.6504 c 0
 105.161 -55.3008 105.164 -40.4824 110.759 -28.1328 c 0
 117.261 -13.7803 131.024 -3.28613 146.868 -0.600586 c 0
EndSplineSet
Validated: 33
EndChar
StartChar: grave
Encoding: 96 96 67
Width: 715
Flags: W
LayerCount: 2
Back
Fore
SplineSet
193.855 739.158 m 4
 195.413 739.423 219.759 739.664 248.012 739.696 c 4
 303.253 739.759 303.462 739.748 312.229 736.547 c 4
 318.072 734.412 322.494 731.609 327.65 726.772 c 4
 330.82 723.798 359.435 687.53 426.717 601.205 c 4
 478.739 534.458 522.342 478.368 523.584 476.596 c 4
 524.819 474.834 526.696 471.325 527.725 468.855 c 4
 537.459 445.481 527.282 418.584 504.518 407.516 c 4
 496.939 403.831 492.229 402.782 483.434 402.822 c 4
 472.47 402.872 464.614 405.404 455.723 411.755 c 4
 453.734 413.176 388.132 469.069 309.939 535.964 c 4
 215.181 617.031 166.623 658.956 164.33 661.687 c 4
 152.593 675.66 150.256 696.325 158.519 713.072 c 4
 165.19 726.596 178.734 736.594 193.855 739.158 c 4
EndSplineSet
Validated: 33
EndChar

StartChar: a
Encoding: 97 97 68
Width: 715
Flags: W
LayerCount: 2
Back
Fore
SplineSet
241.868 538.118 m 0
 242.862 538.259 287.712 538.32 341.567 538.255 c 0
 449.579 538.124 441.793 538.391 458.435 534.261 c 0
 516.566 519.838 559.062 470.783 565.611 410.542 c 0
 565.971 407.229 568.177 349.759 570.513 282.831 c 0
 572.849 215.903 575.668 135.256 576.778 103.614 c 0
 578.135 64.9395 578.621 44.8008 578.262 42.168 c 0
 576.701 30.7227 571.567 20.8203 563.073 12.8691 c 0
 536.611 -11.8984 493.357 1.14355 484.288 36.626 c 0
 483.657 39.0957 483.133 42.1816 483.133 43.4336 c 0
 483.133 44.6982 482.891 45.8711 482.591 46.0537 c 0
 482.293 46.2354 466.627 37.3945 447.832 26.4365 c 0
 412.169 5.64551 407.685 3.23828 401.205 1.40723 c 0
 397.493 0.358398 393.073 0.300781 316.266 0.300781 c 0
 226.146 0.300781 230.883 0.107422 213.615 4.48145 c 0
 188.133 10.9355 165.308 24.2227 146.702 43.4336 c 0
 125.099 65.7402 111.788 93.4932 107.815 124.518 c 0
 106.752 132.817 106.627 137.47 106.627 168.674 c 0
 106.627 199.879 106.752 204.531 107.813 212.831 c 0
 111.806 244.036 125.074 271.628 146.919 294.156 c 0
 168.476 316.387 195.362 330.337 226.868 335.639 c 2
 235.241 337.048 l 1
 340.362 337.048 l 1
 445.482 337.048 l 1
 453.313 335.662 l 2
 457.651 334.895 463.672 333.618 466.808 332.801 c 0
 469.94 331.984 472.564 331.406 472.682 331.506 c 0
 472.797 331.605 472.35 347.139 471.688 365.994 c 0
 470.837 390.211 470.202 401.807 469.53 405.422 c 0
 466.48 421.813 455.061 434.738 438.555 440.479 c 2
 432.832 442.47 l 1
 336.446 442.796 l 2
 228.073 443.163 238.136 442.694 227.41 447.875 c 0
 215.252 453.749 206.546 464.096 202.31 477.711 c 0
 201.115 481.551 200.904 483.494 200.904 490.662 c 0
 200.904 497.831 201.115 499.773 202.313 503.614 c 0
 204.099 509.337 207.646 516.175 211.125 520.603 c 0
 218.032 529.391 230.543 536.519 241.868 538.118 c 0
445.784 239.268 m 2
 440.061 241.265 l 1
 341.868 241.355 l 2
 287.832 241.404 242.294 241.215 240.603 240.934 c 0
 238.9 240.649 235.543 239.707 233.073 238.819 c 0
 218.878 233.717 208.878 223.012 204.126 207.831 c 2
 202.711 203.312 l 1
 202.711 168.674 l 1
 202.711 134.036 l 1
 204.128 129.518 l 2
 209.189 113.373 220.536 102.039 236.446 97.2354 c 0
 239.818 96.2168 244.639 96.1318 308.435 95.9629 c 2
 376.808 95.7822 l 1
 427.712 125.391 l 2
 455.724 141.685 478.71 155.081 478.826 155.181 c 0
 478.942 155.279 478.617 166.145 478.104 179.337 c 0
 477.299 200 476.996 203.921 475.913 207.711 c 0
 473.297 216.867 467.715 225.518 460.904 230.971 c 0
 455.555 235.254 452.531 236.913 445.784 239.268 c 2
EndSplineSet
Validated: 33
EndChar
StartChar: b
Encoding: 98 98 69
Width: 715
Flags: W
LayerCount: 2
Back
Fore
SplineSet
145.783 738.912 m 0
 150.643 739.948 161.507 739.604 166.566 738.254 c 0
 168.575 737.718 172.591 736.113 175.603 734.644 c 0
 185.422 729.853 192.496 722.771 197.272 712.952 c 0
 202.516 702.173 202.016 714.458 202.384 587.289 c 2
 202.711 474.217 l 1
 221.688 490.475 l 2
 241.808 507.712 247.758 512.396 256.024 517.506 c 0
 268.563 525.256 285.965 532.224 300.482 535.306 c 0
 314.725 538.329 319.277 538.554 366.266 538.554 c 0
 412.591 538.554 416.767 538.356 431.024 535.49 c 0
 449.699 531.735 472.346 521.299 488.254 509.116 c 0
 496.387 502.889 533.834 470.205 539.147 464.698 c 0
 556.351 446.867 568.421 425.24 574.416 401.506 c 0
 578.852 383.948 578.542 393.192 578.739 272.289 c 0
 578.911 166.565 578.883 163.294 577.718 154.156 c 0
 573.799 123.434 560.739 95.8398 539.712 73.8545 c 0
 534.713 68.6279 507.351 44.6709 491.748 31.8604 c 0
 471.42 15.1689 444.88 4.06836 417.712 0.892578 c 0
 406.507 -0.416992 326.166 -0.427734 315.001 0.878906 c 0
 298.133 2.85352 282.16 7.53027 267.53 14.7764 c 0
 252.521 22.2119 246.808 26.4404 215.663 53.1631 c 2
 202.711 64.2764 l 1
 202.372 52.168 l 2
 201.984 38.3125 201.346 35.1309 197.288 26.8066 c 0
 192.501 16.9873 185.422 9.91016 175.603 5.12695 c 0
 163.359 -0.837891 151.205 -1.53809 138.435 2.9834 c 0
 131.507 5.43652 127.37 8.17188 121.085 14.457 c 0
 113.066 22.4756 109.521 29.0352 107.479 39.6377 c 0
 106.202 46.2646 106.202 693.494 107.479 700.12 c 0
 109.521 710.723 113.066 717.282 121.085 725.301 c 0
 128.924 733.14 135.362 736.688 145.783 738.912 c 0
413.555 441.369 m 0
 410.281 442.312 405.965 442.421 367.771 442.53 c 0
 344.579 442.596 324.329 442.428 322.771 442.155 c 0
 315.604 440.901 309.496 438.414 303.916 434.476 c 0
 302.261 433.307 281.507 415.746 257.832 395.481 c 0
 226.988 369.081 214.013 357.605 212.129 355.06 c 0
 208.765 350.514 205.871 344.759 204.104 339.096 c 2
 202.711 334.639 l 1
 202.711 269.578 l 2
 202.711 209.217 202.789 204.234 203.784 200.602 c 0
 205.203 195.421 208.888 187.867 212.127 183.493 c 0
 213.988 180.98 227.471 169.056 258.133 142.801 c 0
 281.988 122.375 302.727 104.832 304.218 103.818 c 0
 308.396 100.976 312.771 98.9375 317.893 97.4492 c 0
 322.578 96.0879 322.712 96.084 366.266 96.084 c 2
 409.94 96.084 l 1
 414.76 97.4834 l 2
 423.817 100.112 427.41 102.571 448.977 120.901 c 0
 474.097 142.253 476.629 145.14 480.839 157.229 c 2
 482.832 162.951 l 1
 482.832 268.675 l 2
 482.832 369.578 482.781 374.576 481.716 378.312 c 0
 480.223 383.554 477.096 389.807 473.645 394.458 c 0
 471.676 397.111 464.971 403.318 452.14 414.367 c 0
 441.898 423.186 431.975 431.624 430.121 433.089 c 0
 426.298 436.112 418.796 439.862 413.555 441.369 c 0
EndSplineSet
Validated: 33
EndChar
StartChar: c
Encoding: 99 99 70
Width: 715
Flags: W
LayerCount: 2
Back
Fore
SplineSet
314.458 537.637 m 0
 324.277 538.831 533.024 538.898 539.218 537.709 c 0
 562.174 533.303 578.435 513.795 578.435 490.662 c 0
 578.435 471.506 566.608 453.624 549.278 446.575 c 0
 539.98 442.795 549.398 443.096 430.423 442.768 c 2
 321.988 442.47 l 1
 317.591 441.106 l 2
 312.35 439.481 308.043 437.394 303.916 434.478 c 0
 302.261 433.308 281.507 415.746 257.832 395.481 c 0
 227.049 369.133 214.015 357.6 212.149 355.06 c 0
 208.811 350.514 205.917 344.759 204.123 339.096 c 2
 202.711 334.639 l 1
 202.711 269.578 l 2
 202.711 209.217 202.788 204.234 203.779 200.602 c 0
 205.209 195.361 208.864 187.855 212.113 183.493 c 0
 213.986 180.979 227.35 169.163 257.832 143.072 c 0
 281.507 122.808 302.287 105.211 303.977 103.998 c 0
 307.535 101.442 313.254 98.752 318.374 97.2227 c 0
 321.782 96.2061 328.193 96.125 430.423 95.8154 c 0
 549.398 95.4551 539.98 95.7588 549.278 91.9775 c 0
 566.608 84.9297 578.435 67.0479 578.435 47.8906 c 0
 578.435 24.7588 562.174 5.25195 539.218 0.845703 c 0
 532.383 -0.46582 326.024 -0.419922 314.76 0.896484 c 0
 289.519 3.84473 265.49 13.3027 245.784 28.0469 c 0
 237.832 33.9961 155.764 104.304 148.916 111.033 c 0
 130.497 129.135 117.063 152.71 110.924 177.71 c 0
 106.838 194.348 106.997 190.964 106.771 266.204 c 0
 106.575 331.687 106.617 334.91 107.776 343.976 c 0
 111.723 374.819 124.901 402.602 146.04 424.639 c 0
 151.476 430.305 234.639 501.982 244.82 509.775 c 0
 264.334 524.713 288.856 534.523 314.458 537.637 c 0
EndSplineSet
Validated: 33
EndChar

StartChar: d
Encoding: 100 100 71
Width: 715
Flags: W
LayerCount: 2
Back
Fore
SplineSet
522.29 738.919 m 0
 527.148 739.952 538.013 739.603 543.073 738.249 c 0
 548.435 736.814 556.989 732.443 561.266 728.953 c 0
 568.635 722.938 574.851 713.253 577.527 703.614 c 0
 578.571 699.857 578.615 686.325 578.615 369.879 c 0
 578.615 53.4336 578.571 39.9014 577.531 36.1445 c 0
 576.929 33.9688 575.271 29.8184 573.801 26.8066 c 0
 569.01 16.9873 561.929 9.91016 552.109 5.12695 c 0
 539.865 -0.837891 527.712 -1.53809 514.94 2.9834 c 0
 508.013 5.43652 503.877 8.17188 497.591 14.457 c 0
 486.465 25.584 483.133 34.7588 483.133 54.2764 c 0
 483.133 59.8789 482.998 64.457 482.832 64.457 c 0
 482.667 64.457 474.188 57.3213 464.007 48.6143 c 0
 453.826 39.9062 443.719 31.3936 441.567 29.7139 c 0
 421.855 14.3252 396.808 4.19043 370.422 0.926758 c 0
 359.738 -0.394531 279.218 -0.418945 267.952 0.895508 c 0
 241.748 3.9541 216.098 14.2861 196.386 29.7246 c 0
 186.808 37.2266 151.021 68.4082 146.083 73.5537 c 0
 124.292 96.2637 111.27 124.276 107.491 156.565 c 0
 106.138 168.132 106.184 371.516 107.541 382.47 c 0
 111.508 414.458 124.517 442.445 145.76 464.698 c 0
 150.898 470.081 186.446 501.08 196.386 508.846 c 0
 211.896 520.965 233.856 531.182 253.133 535.249 c 0
 267.789 538.342 272.049 538.554 319.398 538.554 c 0
 359.519 538.554 363.972 538.454 372.471 537.366 c 0
 397.771 534.128 420.86 524.75 440.663 509.671 c 0
 443.649 507.396 454.338 498.493 464.459 489.85 c 2
 482.832 474.156 l 1
 483.133 586.928 l 2
 483.409 690.061 483.521 699.981 484.437 703.012 c 0
 487.606 713.494 491.315 719.66 498.555 726.484 c 0
 505.765 733.28 512.591 736.856 522.29 738.919 c 0
362.591 442.137 m 0
 356.567 443.115 279.783 442.865 274.398 441.85 c 0
 263.336 439.764 260.182 437.727 235.844 416.944 c 0
 213.435 397.808 211.296 395.577 207.184 387.048 c 0
 202.329 376.978 202.711 387.048 202.711 269.276 c 0
 202.711 151.506 202.332 161.576 207.153 151.506 c 0
 211.238 142.975 213.374 140.748 235.844 121.586 c 0
 258.494 102.271 261.553 100.163 270.844 97.4658 c 2
 275.603 96.084 l 1
 318.977 96.084 l 2
 367.471 96.084 365.377 95.917 375.001 100.537 c 0
 380.944 103.39 379.82 102.489 415.482 132.962 c 0
 431.688 146.808 450.659 162.95 457.651 168.843 c 0
 473.796 182.446 476.938 186.341 480.845 197.59 c 2
 482.832 203.312 l 1
 482.832 268.976 l 1
 482.832 334.639 l 1
 481.424 339.156 l 2
 479.414 345.603 475.771 352.318 471.783 356.928 c 0
 468.171 361.103 385.784 431.647 380.121 435.413 c 0
 376.053 438.119 367.771 441.295 362.591 442.137 c 0
EndSplineSet
EndChar
StartChar: e
Encoding: 101 101 72
Width: 715
Flags: W
LayerCount: 2
Back
Fore
SplineSet
267.471 537.663 m 0
 272.223 538.242 290.724 538.448 341.868 538.49 c 0
 415.784 538.553 417.594 538.486 432.531 535.186 c 0
 453.916 530.46 475.414 520.121 491.808 506.677 c 0
 506.868 494.327 534.721 469.986 539.498 465 c 0
 558.187 445.492 570.637 421.626 575.92 395.18 c 0
 578.954 379.99 579.03 377.65 578.789 306.626 c 0
 578.537 232.47 578.926 238.596 573.798 228.012 c 0
 570.704 221.626 566.527 216.292 561.266 212.01 c 0
 557.156 208.665 548.735 204.309 543.073 202.598 c 0
 539.642 201.561 530.935 201.498 370.874 201.355 c 2
 202.29 201.204 l 1
 202.541 182.349 l 2
 202.82 161.385 203.01 160.11 207.142 151.506 c 0
 211.237 142.975 213.374 140.747 235.844 121.574 c 0
 258.254 102.452 261.31 100.327 270.482 97.4844 c 2
 275.001 96.084 l 1
 406.929 95.7852 l 2
 551.988 95.4561 539.934 95.7783 549.278 91.9775 c 0
 566.608 84.9297 578.435 67.0479 578.435 47.8906 c 0
 578.435 24.7588 562.174 5.24902 539.218 0.839844 c 0
 532.445 -0.460938 279.097 -0.419922 267.952 0.883789 c 0
 241.748 3.94922 216.098 14.2861 196.386 29.7246 c 0
 186.808 37.2266 151.021 68.4082 146.083 73.5537 c 0
 124.292 96.2637 111.276 124.276 107.512 156.565 c 0
 106.764 162.982 106.627 180.481 106.627 269.698 c 0
 106.627 371.084 106.674 375.604 107.812 384.458 c 0
 111.779 415.301 124.929 442.975 146.082 465 c 0
 150.866 469.98 178.916 494.495 193.735 506.646 c 0
 214.118 523.359 240.241 534.349 267.471 537.663 c 0
415.061 441.076 m 2
 410.543 442.47 l 1
 344.579 442.587 l 2
 275.663 442.709 274.471 442.671 267.591 440.156 c 0
 260.636 437.615 256.566 434.668 236.748 417.818 c 0
 225.663 408.396 215.125 398.952 213.367 396.867 c 0
 209.252 391.985 207.014 387.951 204.642 381.145 c 2
 202.711 375.603 l 1
 202.53 336.295 l 1
 202.35 296.987 l 1
 342.771 296.987 l 1
 483.193 296.987 l 1
 482.99 336.023 l 2
 482.763 379.819 482.969 377.674 478.04 387.65 c 0
 476.553 390.662 473.943 394.759 472.169 396.867 c 0
 470.415 398.953 459.94 408.337 448.916 417.7 c 0
 427.591 435.812 423.924 438.344 415.061 441.076 c 2
EndSplineSet
Validated: 33
EndChar

StartChar: f
Encoding: 102 102 73
Width: 715
Flags: W
LayerCount: 2
Back
Fore
SplineSet
379.217 739.37 m 0
 380.543 739.484 410.663 739.618 446.205 739.666 c 0
 515.783 739.76 514.765 739.801 523.614 736.568 c 0
 529.578 734.391 533.923 731.613 539.277 726.558 c 0
 547.707 718.598 552.145 710.241 554.052 698.734 c 0
 554.911 693.554 554.954 691.801 554.341 686.928 c 0
 552.835 674.939 548.757 666.69 540.121 658.157 c 0
 534.185 652.293 530 649.508 523.614 647.172 c 0
 514.808 643.949 515.422 643.976 449.458 643.976 c 0
 410.903 643.976 386.295 643.743 383.072 643.348 c 0
 355.603 639.979 331.896 620.689 323.213 594.639 c 0
 319.932 584.794 319.743 583.072 319.44 560.12 c 2
 319.156 538.554 l 1
 367.952 538.554 l 2
 407.41 538.554 417.588 538.393 421.145 537.71 c 0
 444.101 533.303 460.361 513.795 460.361 490.662 c 0
 460.361 467.53 444.101 448.022 421.145 443.615 c 0
 417.59 442.933 407.41 442.771 368.012 442.771 c 2
 319.277 442.771 l 1
 319.127 241.114 l 2
 318.983 49.126 318.924 39.2842 317.884 35.8428 c 0
 316.173 30.1807 311.816 21.7598 308.472 17.6504 c 0
 304.189 12.3887 298.855 8.20703 292.47 5.10449 c 0
 280.226 -0.844727 268.072 -1.53809 255.301 2.9834 c 0
 248.373 5.43652 244.237 8.17188 237.952 14.457 c 0
 231.81 20.5996 229.051 24.6982 226.679 31.2041 c 0
 223.302 40.4668 223.494 27.6504 223.494 243.434 c 2
 223.494 442.711 l 1
 196.265 442.938 l 2
 165.663 443.195 166.14 443.137 156.325 447.899 c 0
 144.018 453.873 135.097 464.578 131.23 478.012 c 0
 129.255 484.879 129.255 496.445 131.23 503.313 c 0
 135.097 516.747 144.018 527.451 156.325 533.425 c 0
 166.141 538.188 165.663 538.129 196.205 538.386 c 2
 223.373 538.614 l 1
 223.645 562.831 l 2
 223.881 583.915 224.087 588.131 225.238 595.422 c 0
 228.893 618.554 237.208 641.114 249.13 660.241 c 0
 262.084 681.024 282.229 701.182 303.012 714.157 c 0
 325.251 728.042 352.53 737.067 379.217 739.37 c 0
EndSplineSet
Validated: 33
EndChar
StartChar: g
Encoding: 103 103 74
Width: 715
Flags: W
LayerCount: 2
Back
Fore
SplineSet
267.471 537.661 m 0
 272.022 538.217 286.326 538.45 318.494 538.494 c 0
 359.76 538.55 363.906 538.463 372.471 537.366 c 0
 397.771 534.128 420.86 524.75 440.663 509.671 c 0
 443.649 507.396 454.338 498.493 464.459 489.85 c 2
 482.832 474.156 l 1
 483.197 486.325 l 2
 483.57 498.734 483.953 501.141 486.735 508.554 c 0
 489.72 516.506 498.916 527.166 506.868 531.891 c 0
 511.768 534.802 519.037 537.232 525.362 538.076 c 0
 535.061 539.369 546.579 536.988 555.242 531.9 c 0
 559.76 529.247 569.588 519.433 572.227 514.939 c 0
 573.343 513.038 574.953 509.578 575.759 507.35 c 0
 579.128 498.03 578.916 516.687 578.916 228.253 c 0
 578.916 -33.4346 578.896 -38.0479 577.729 -47.1689 c 0
 573.806 -77.832 560.73 -105.42 539.728 -127.35 c 0
 534.722 -132.577 507.351 -156.523 491.748 -169.326 c 0
 470.732 -186.57 443.133 -197.819 415.061 -200.584 c 0
 410.128 -201.069 377.169 -201.214 300.603 -201.085 c 2
 193.073 -200.904 l 1
 188.555 -199.511 l 2
 167.4 -192.987 153.615 -174.76 153.615 -153.313 c 0
 153.615 -131.868 167.4 -113.641 188.555 -107.117 c 2
 193.073 -105.724 l 1
 301.808 -105.422 l 1
 410.543 -105.121 l 1
 415.061 -103.733 l 2
 423.978 -100.996 427.651 -98.46 448.977 -80.3213 c 0
 474.097 -58.9541 476.629 -56.0654 480.839 -43.9766 c 2
 482.832 -38.2539 l 1
 483.013 33.3428 l 2
 483.159 91.2949 483.044 104.848 482.41 104.457 c 0
 481.979 104.192 473.495 97.0459 463.555 88.5752 c 0
 440.241 68.71 440.562 68.9678 432.832 63.8623 c 0
 414.861 51.9951 393.013 44.0947 370.422 41.2969 c 0
 359.738 39.9736 279.218 39.9424 267.952 41.2568 c 0
 241.748 44.3154 216.098 54.6475 196.386 70.0869 c 0
 186.808 77.5889 151.016 108.77 146.076 113.915 c 0
 129.001 131.703 116.765 153.915 110.932 177.71 c 0
 106.771 194.682 107 188.734 106.772 285.542 c 0
 106.626 347.831 106.763 375.109 107.244 379.819 c 0
 110.57 412.35 123.99 441.939 145.741 464.698 c 0
 150.885 470.081 186.446 501.08 196.386 508.847 c 0
 215.9 524.094 241.566 534.498 267.471 537.661 c 0
362.591 442.137 m 0
 356.567 443.115 279.783 442.865 274.398 441.85 c 0
 263.336 439.764 260.182 437.727 235.844 416.944 c 0
 213.435 397.808 211.296 395.577 207.184 387.048 c 0
 202.366 377.056 202.711 384.578 202.711 289.457 c 0
 202.711 194.337 202.369 201.859 207.153 191.867 c 0
 211.238 183.336 213.374 181.109 235.844 161.947 c 0
 258.494 142.632 261.553 140.524 270.844 137.827 c 2
 275.603 136.445 l 1
 318.977 136.445 l 2
 367.893 136.445 365.491 136.243 375.663 141.229 c 0
 380.628 143.662 384.127 146.462 412.741 170.903 c 0
 430.091 185.722 450.178 202.839 457.29 208.863 c 0
 473.676 222.745 476.895 226.732 480.868 238.072 c 2
 482.832 243.674 l 1
 482.832 289.156 l 1
 482.832 334.639 l 1
 481.424 339.156 l 2
 479.414 345.603 475.771 352.318 471.783 356.928 c 0
 468.171 361.103 385.784 431.647 380.121 435.413 c 0
 376.053 438.119 367.771 441.295 362.591 442.137 c 0
EndSplineSet
Validated: 33
EndChar

StartChar: h
Encoding: 104 104 75
Width: 715
Flags: W
LayerCount: 2
Back
Fore
SplineSet
145.783 738.912 m 0
 150.643 739.948 161.507 739.604 166.566 738.254 c 0
 168.575 737.718 172.591 736.113 175.603 734.644 c 0
 185.422 729.853 192.496 722.771 197.272 712.952 c 0
 202.526 702.15 202.016 715.542 202.384 579.096 c 2
 202.711 457.831 l 1
 250.302 488.373 l 2
 284.338 510.217 300.482 520.224 306.988 523.508 c 0
 321.664 530.916 337.893 535.707 355.001 537.682 c 0
 366.748 539.037 436.528 538.607 445.182 537.126 c 0
 477.229 531.64 504.406 517.6 525.904 495.422 c 0
 548.656 471.951 562.06 443.313 565.631 410.542 c 0
 566.298 404.416 578.344 65.1201 578.441 49.6982 c 0
 578.485 42.8311 578.253 40.3691 577.192 36.4453 c 0
 571.068 13.7949 550.559 -1.32617 528.013 0.189453 c 0
 506.868 1.61035 489.688 15.9443 484.27 36.6865 c 0
 483.167 40.9062 482.583 55.3008 476.808 220.783 c 0
 471.907 361.204 470.333 401.416 469.58 405.422 c 0
 466.499 421.813 455.061 434.738 438.555 440.479 c 2
 432.832 442.47 l 1
 397.591 442.47 l 2
 358.495 442.47 359.385 442.549 350.302 438.257 c 0
 347.98 437.16 313.856 415.56 274.398 390.211 c 2
 202.711 344.156 l 1
 202.383 191.807 l 2
 202.014 20.1807 202.555 37.667 197.272 26.8066 c 0
 192.496 16.9873 185.422 9.91016 175.603 5.12695 c 0
 163.359 -0.837891 151.205 -1.53809 138.435 2.9834 c 0
 131.507 5.43652 127.37 8.17188 121.085 14.457 c 0
 113.066 22.4756 109.521 29.0352 107.479 39.6377 c 0
 106.202 46.2646 106.202 693.494 107.479 700.12 c 0
 109.521 710.723 113.066 717.282 121.085 725.301 c 0
 128.924 733.14 135.362 736.688 145.783 738.912 c 0
EndSplineSet
Validated: 33
EndChar

StartChar: i
Encoding: 105 105 76
Width: 715
Flags: W
LayerCount: 2
Back
Fore
SplineSet
193.855 537.949 m 0
 195.412 538.215 231.385 538.38 273.795 538.314 c 0
 360.542 538.182 352.898 538.598 363.554 533.435 c 0
 369.939 530.342 375.273 526.164 379.556 520.903 c 0
 382.9 516.794 387.257 508.373 388.968 502.71 c 0
 390.008 499.27 390.067 489.396 390.211 297.469 c 2
 390.361 95.8428 l 1
 441.114 95.6318 l 1
 491.867 95.4209 l 1
 496.386 94.04 l 2
 509.578 90.0068 520.667 80.8057 526.445 69.0957 c 0
 530.215 61.458 531.023 57.71 531.023 47.8906 c 0
 531.023 38.0713 530.215 34.3232 526.444 26.6855 c 0
 520.576 14.7959 509.277 5.50684 496.023 1.67578 c 2
 491.265 0.299805 l 1
 342.47 0.299805 l 1
 193.674 0.299805 l 1
 188.915 1.68164 l 2
 167.746 7.8252 153.614 26.3242 153.614 47.8906 c 0
 153.614 69.3359 167.436 87.5928 188.554 94.041 c 2
 193.072 95.4209 l 1
 243.825 95.6318 l 1
 294.578 95.8428 l 1
 294.578 269.276 l 1
 294.578 442.71 l 1
 243.825 442.921 l 1
 193.072 443.132 l 1
 188.554 444.513 l 2
 163.493 452.174 148.914 476.951 154.842 501.807 c 0
 159.257 520.322 174.759 534.683 193.855 537.949 c 0
286.747 779.245 m 0
 289.785 779.877 297.409 780.021 320.783 779.888 c 0
 354.639 779.693 353.625 779.811 363.554 774.981 c 0
 373.373 770.206 380.453 763.132 385.242 753.312 c 0
 390.097 743.357 390.06 743.674 390.06 712.048 c 0
 390.06 680.421 390.097 680.738 385.242 670.782 c 0
 380.453 660.963 373.373 653.89 363.554 649.114 c 0
 353.69 644.316 354.397 644.401 321.987 644.134 c 0
 290.662 643.875 287.55 644.082 279.397 646.964 c 0
 272.47 649.413 268.333 652.147 262.048 658.434 c 0
 255.905 664.575 253.146 668.674 250.774 675.18 c 0
 247.862 683.167 247.59 686.325 247.59 712.048 c 0
 247.59 737.771 247.862 740.929 250.774 748.915 c 0
 253.146 755.421 255.905 759.52 262.048 765.662 c 0
 269.873 773.487 276.445 777.102 286.747 779.245 c 0
EndSplineSet
Validated: 33
EndChar

StartChar: j
Encoding: 106 106 77
Width: 715
Flags: W
LayerCount: 2
Back
Fore
SplineSet
288.855 538.119 m 0
 289.85 538.259 335.903 538.333 391.265 538.284 c 0
 504.578 538.184 493.761 538.647 504.518 533.426 c 0
 516.797 527.467 525.77 516.626 529.94 502.71 c 0
 530.976 499.257 531.03 486.505 531.175 215.963 c 0
 531.323 -63.5557 531.31 -67.29 530.127 -76.5674 c 0
 526.14 -107.832 512.878 -135.431 490.988 -158.013 c 0
 469.873 -179.798 444.096 -193.424 412.951 -199.263 c 2
 404.518 -200.845 l 1
 346.987 -201.072 l 2
 285.783 -201.313 281.87 -201.184 268.072 -198.443 c 0
 251.747 -195.202 231.925 -187.057 218.072 -177.896 c 0
 185.438 -156.317 162.598 -122.953 155.096 -85.9043 c 0
 152.266 -71.9287 153.279 -62.4658 158.813 -51.2061 c 0
 161.264 -46.2197 162.409 -44.7041 167.71 -39.4287 c 0
 172.771 -34.3936 174.728 -32.8975 179.337 -30.54 c 0
 186.969 -26.6377 192.65 -25.2217 200.903 -25.165 c 0
 211.445 -25.0928 219.817 -27.6875 228.554 -33.7334 c 0
 239.746 -41.4805 245.088 -50.3623 249.354 -68.3145 c 0
 253.301 -84.9287 266.145 -98.3857 283.132 -103.706 c 2
 287.65 -105.121 l 1
 342.771 -105.121 l 1
 397.892 -105.121 l 1
 403.554 -103.137 l 2
 410.24 -100.794 413.385 -99.0693 418.734 -94.8135 c 0
 425.278 -89.6064 430.549 -81.6279 433.812 -71.9893 c 2
 435.24 -67.7725 l 1
 435.392 187.469 l 1
 435.542 442.71 l 1
 361.325 442.917 l 2
 277.771 443.149 285.037 442.733 274.397 447.898 c 0
 262.09 453.873 253.169 464.578 249.303 478.012 c 0
 247.326 484.879 247.312 496.418 249.271 503.252 c 0
 251.982 512.71 257.842 521.697 265.24 527.745 c 0
 271.236 532.646 281.265 537.052 288.855 538.119 c 0
427.711 779.245 m 0
 430.749 779.877 438.373 780.021 461.747 779.888 c 0
 495.603 779.693 494.59 779.81 504.518 774.981 c 0
 514.337 770.206 521.417 763.132 526.206 753.312 c 0
 531.061 743.357 531.023 743.674 531.023 712.048 c 0
 531.023 680.421 531.061 680.738 526.206 670.782 c 0
 521.417 660.963 514.337 653.89 504.518 649.114 c 0
 494.654 644.316 495.361 644.401 462.951 644.134 c 0
 431.626 643.875 428.514 644.082 420.361 646.964 c 0
 413.434 649.413 409.297 652.147 403.012 658.434 c 0
 396.87 664.575 394.11 668.674 391.738 675.181 c 0
 388.827 683.167 388.554 686.325 388.554 712.048 c 0
 388.554 737.771 388.827 740.929 391.738 748.915 c 0
 394.11 755.421 396.87 759.521 403.012 765.662 c 0
 410.837 773.487 417.409 777.102 427.711 779.245 c 0
EndSplineSet
Validated: 33
EndChar

StartChar: k
Encoding: 107 107 78
Width: 715
Flags: W
LayerCount: 2
Back
Fore
SplineSet
145.783 738.912 m 0
 150.643 739.948 161.507 739.603 166.566 738.249 c 0
 171.929 736.814 180.483 732.434 184.76 728.931 c 0
 191.978 723.02 198.09 713.614 201.018 703.916 c 0
 202.055 700.481 202.124 690.662 202.41 506.807 c 2
 202.711 313.312 l 1
 327.41 419.97 l 2
 396.024 478.656 453.464 527.652 455.121 528.908 c 0
 459.225 532.017 465.904 535.261 471.507 536.866 c 0
 477.591 538.609 489.25 538.732 495.182 537.116 c 0
 500.724 535.606 509.298 531.285 513.495 527.887 c 0
 534.699 510.718 537.438 479.037 519.445 459.035 c 0
 517.896 457.313 472.893 418.5 419.459 372.801 c 0
 366.024 327.102 322.304 289.509 322.32 289.276 c 0
 322.337 289.045 375.513 243.435 440.452 187.951 c 0
 505.393 132.469 560.426 85.3242 562.712 83.2188 c 0
 573.118 73.6318 578.435 61.6865 578.435 47.8906 c 0
 578.435 43.0117 578.096 39.9941 577.15 36.4453 c 0
 568.164 2.70996 529.32 -10.8662 501.748 10.0908 c 0
 498.489 12.5674 254.277 221.099 250.001 225.057 c 2
 248.435 226.506 l 1
 225.573 206.987 l 1
 202.711 187.47 l 1
 202.387 113.493 l 2
 202.021 30.3008 202.441 37.4336 197.272 26.8066 c 0
 192.496 16.9873 185.422 9.91016 175.603 5.12695 c 0
 163.359 -0.837891 151.205 -1.53809 138.435 2.9834 c 0
 131.507 5.43652 127.37 8.17188 121.085 14.457 c 0
 113.066 22.4756 109.521 29.0352 107.479 39.6377 c 0
 106.202 46.2646 106.202 693.494 107.479 700.12 c 0
 109.521 710.723 113.066 717.282 121.085 725.301 c 0
 128.924 733.14 135.362 736.688 145.783 738.912 c 0
EndSplineSet
Validated: 33
EndChar

StartChar: l
Encoding: 108 108 79
Width: 715
Flags: W
LayerCount: 2
Back
Fore
SplineSet
193.855 739.154 m 0
 195.412 739.421 231.385 739.585 273.795 739.521 c 0
 360.542 739.387 352.898 739.804 363.554 734.632 c 0
 375.832 728.672 384.805 717.831 388.977 703.916 c 0
 390.013 700.46 390.066 687.048 390.211 398.072 c 2
 390.361 95.8428 l 1
 441.114 95.6318 l 1
 491.867 95.4209 l 1
 496.386 94.04 l 2
 509.578 90.0068 520.667 80.8057 526.445 69.0957 c 0
 530.215 61.459 531.023 57.71 531.023 47.8906 c 0
 531.023 38.0723 530.215 34.3232 526.444 26.6865 c 0
 520.576 14.7959 509.277 5.50684 496.023 1.67578 c 2
 491.265 0.300781 l 1
 342.47 0.300781 l 1
 193.674 0.300781 l 1
 188.915 1.68164 l 2
 167.746 7.8252 153.614 26.3252 153.614 47.8906 c 0
 153.614 69.3369 167.436 87.5938 188.554 94.042 c 2
 193.072 95.4209 l 1
 243.825 95.6318 l 1
 294.578 95.8428 l 1
 294.578 369.879 l 1
 294.578 643.916 l 1
 243.825 644.126 l 1
 193.072 644.337 l 1
 188.554 645.719 l 2
 163.493 653.379 148.914 678.157 154.842 703.012 c 0
 159.257 721.527 174.759 735.889 193.855 739.154 c 0
EndSplineSet
Validated: 33
EndChar

StartChar: m
Encoding: 109 109 94
Width: 715
Flags: W
LayerCount: 2
Back
Fore
SplineSet
138.253 537.673 m 0
 149.097 539.692 161.341 537.509 170.903 531.852 c 0
 178.555 527.326 187.996 516.521 190.684 509.217 c 0
 191.26 507.65 191.913 506.132 192.108 505.903 c 0
 192.306 505.673 194.519 507.255 196.988 509.394 c 0
 215.111 525.085 236.205 534.603 259.519 537.608 c 0
 290.723 541.632 322.611 532.443 347.591 512.231 c 0
 352.108 508.575 360.809 499.89 364.248 495.603 c 2
 366.085 493.313 l 1
 376.566 502.225 l 2
 391.627 515.029 392.481 515.708 398.795 519.856 c 0
 421.041 534.474 449.097 541.087 474.217 537.635 c 0
 498.193 534.34 519.566 523.941 537.289 506.949 c 0
 557.066 487.988 569.081 463.675 572.276 436.145 c 0
 573.164 428.494 586.346 51.0352 585.943 44.7588 c 0
 585.52 38.1318 584.188 33.2578 581.036 26.8066 c 0
 576.24 16.9873 569.157 9.91016 559.338 5.12695 c 0
 552.884 1.9834 548.072 0.666992 541.266 0.181641 c 0
 532.47 -0.444336 521.875 2.08008 514.036 6.6709 c 0
 509.519 9.31738 499.68 19.1562 497.035 23.6738 c 0
 494.504 27.9971 491.938 35.1807 491.074 40.3613 c 0
 490.716 42.5146 487.412 130.361 483.735 235.542 c 0
 478.524 384.578 476.857 427.472 476.186 429.819 c 0
 474.856 434.458 471.468 438.473 466.868 440.859 c 0
 463.434 442.642 462.537 442.854 459.578 442.59 c 0
 457.711 442.424 455.021 441.765 453.555 441.114 c 0
 451.943 440.4 439.097 429.832 420.783 414.156 c 2
 390.663 388.373 l 1
 390.361 213.915 l 2
 390.076 48.4336 390.004 39.2715 388.969 35.8428 c 0
 387.258 30.1807 382.901 21.7598 379.556 17.6504 c 0
 375.273 12.3887 369.939 8.20703 363.555 5.10449 c 0
 351.311 -0.844727 339.157 -1.53711 326.386 2.98828 c 0
 320 5.25098 315.609 8.00488 310.061 13.2275 c 0
 302.81 20.0518 299.103 26.2041 295.89 36.7461 c 0
 294.956 39.8086 294.856 54.7588 294.578 233.734 c 2
 294.277 427.409 l 1
 292.689 430.783 l 2
 290.648 435.12 286.928 438.841 282.591 440.882 c 0
 279.704 442.24 278.434 442.47 273.795 442.47 c 0
 268.735 442.47 268.125 442.329 264.639 440.361 c 0
 262.335 439.061 248.253 427.218 227.892 409.458 c 2
 194.88 380.662 l 1
 194.578 210.06 l 2
 194.293 48.3125 194.221 39.2695 193.186 35.8428 c 0
 191.475 30.1807 187.118 21.7598 183.772 17.6504 c 0
 179.49 12.3887 174.156 8.20703 167.771 5.10449 c 0
 155.527 -0.844727 143.373 -1.53809 130.603 2.9834 c 0
 123.675 5.43652 119.538 8.17188 113.253 14.457 c 0
 105.234 22.4756 101.689 29.0352 99.6445 39.6377 c 0
 98.3672 46.2646 98.3672 492.289 99.6445 498.915 c 0
 101.689 509.518 105.234 516.077 113.253 524.096 c 0
 121.252 532.096 128.012 535.767 138.253 537.673 c 0
EndSplineSet
EndChar

StartChar: n
Encoding: 110 110 81
Width: 715
Flags: W
LayerCount: 2
Back
Fore
SplineSet
146.085 537.673 m 0
 156.929 539.692 169.172 537.502 178.735 531.834 c 0
 186.595 527.176 195.844 516.445 198.804 508.554 c 0
 201.909 500.271 201.998 499.518 202.363 478.192 c 2
 202.711 457.831 l 1
 250.302 488.373 l 2
 284.338 510.217 300.482 520.224 306.988 523.508 c 0
 321.664 530.916 337.893 535.707 355.001 537.682 c 0
 366.748 539.037 436.528 538.607 445.182 537.126 c 0
 477.229 531.64 504.406 517.6 525.904 495.422 c 0
 548.656 471.951 562.06 443.313 565.631 410.542 c 0
 566.298 404.416 578.344 65.1201 578.441 49.6982 c 0
 578.485 42.8311 578.253 40.3691 577.192 36.4453 c 0
 571.068 13.7949 550.559 -1.31836 528.013 0.207031 c 0
 510.182 1.41406 494.509 12.1543 487.264 28.1318 c 0
 482.879 37.8027 483.688 22.8906 476.796 220.783 c 0
 471.904 361.204 470.333 401.416 469.58 405.422 c 0
 466.499 421.813 455.061 434.738 438.555 440.479 c 2
 432.832 442.47 l 1
 397.591 442.47 l 2
 358.495 442.47 359.385 442.549 350.302 438.257 c 0
 347.98 437.16 313.856 415.56 274.398 390.211 c 2
 202.711 344.156 l 1
 202.383 191.807 l 2
 202.014 20.1807 202.555 37.667 197.272 26.8066 c 0
 192.496 16.9873 185.422 9.91016 175.603 5.12695 c 0
 163.359 -0.837891 151.205 -1.53809 138.435 2.9834 c 0
 131.507 5.43652 127.37 8.17188 121.085 14.457 c 0
 113.066 22.4756 109.521 29.0352 107.477 39.6377 c 0
 106.199 46.2646 106.199 492.289 107.477 498.915 c 0
 109.521 509.518 113.066 516.077 121.085 524.096 c 0
 129.084 532.096 135.844 535.767 146.085 537.673 c 0
EndSplineSet
EndChar

StartChar: o
Encoding: 111 111 82
Width: 715
Flags: W
LayerCount: 2
Back
Fore
SplineSet
267.049 537.631 m 0
 271.902 538.265 288.254 538.408 344.88 538.313 c 0
 410.543 538.203 417.094 538.104 422.832 537.134 c 0
 431.627 535.647 443.752 532.51 450.904 529.868 c 0
 463.916 525.062 481.258 515.355 490.543 507.681 c 0
 505.302 495.479 531.578 472.788 536.387 468.092 c 0
 559.938 445.084 574.08 415.843 578.031 381.987 c 0
 578.779 375.571 578.916 358.072 578.916 268.855 c 0
 578.916 167.229 578.872 162.969 577.726 154.036 c 0
 573.59 121.807 559.201 92.7344 536.326 70.3896 c 0
 531.515 65.6904 504.519 42.3604 490.604 30.877 c 0
 475.916 18.7568 452.952 7.88574 432.471 3.35645 c 0
 417.634 0.0751953 415.604 -0.000976562 342.771 -0.000976562 c 0
 270.061 -0.000976562 268.527 0.0556641 253.073 3.3125 c 0
 233.735 7.3877 211.908 17.5547 196.386 29.7158 c 0
 186.808 37.2207 151.021 68.4082 146.083 73.5537 c 0
 124.333 96.2217 111.269 124.337 107.512 156.565 c 0
 106.764 162.982 106.627 180.481 106.627 269.698 c 0
 106.627 371.084 106.674 375.604 107.813 384.458 c 0
 111.785 415.301 124.896 442.906 146.068 465 c 0
 151.097 470.247 188.313 502.671 196.688 509.1 c 0
 216.44 524.266 241.024 534.234 267.049 537.631 c 0
414.157 441.315 m 0
 410.782 442.337 406.145 442.419 344.277 442.557 c 0
 275.241 442.709 274.646 442.691 267.771 440.188 c 0
 263.254 438.544 257.969 435.585 254.398 432.701 c 0
 252.477 431.149 242.771 422.908 232.832 414.389 c 0
 211.146 395.8 208.78 393.014 204.664 381.204 c 2
 202.711 375.603 l 1
 202.711 269.879 l 2
 202.711 151.385 202.329 161.582 207.153 151.506 c 0
 211.238 142.975 213.374 140.745 235.844 121.558 c 0
 254.277 105.817 257.61 103.217 262.35 100.875 c 0
 272.727 95.749 267.109 96.084 342.771 96.084 c 0
 417.109 96.084 412.306 95.8457 421.446 99.9902 c 0
 427.224 102.609 429.519 104.376 450.904 122.665 c 0
 474.579 142.912 476.702 145.363 480.838 157.229 c 2
 482.832 162.951 l 1
 482.832 268.674 l 2
 482.832 367.951 482.768 374.636 481.768 378.312 c 0
 480.31 383.675 476.505 391.496 473.388 395.542 c 0
 470.876 398.802 434.037 430.798 428.133 434.848 c 0
 424.627 437.252 419.037 439.84 414.157 441.315 c 0
EndSplineSet
Validated: 33
EndChar

StartChar: p
Encoding: 112 112 83
Width: 715
Flags: W
LayerCount: 2
Back
Fore
SplineSet
143.073 557.188 m 0
 149.713 558.818 158.916 558.83 165.663 557.215 c 0
 182.151 553.268 195.665 540.241 200.646 523.494 c 0
 201.855 519.422 202.016 517.319 202.26 502.199 c 2
 202.53 485.422 l 1
 221.898 504.639 l 2
 232.561 515.219 243.567 525.632 246.386 527.809 c 0
 268.531 544.901 293.977 555.043 321.748 557.847 c 0
 332.049 558.886 367.027 558.304 375.302 556.954 c 0
 395.663 553.635 415.656 546.026 431.627 535.521 c 0
 439.888 530.087 443.013 527.587 461.748 511.426 c 0
 517.651 463.202 534.652 448.316 539.198 443.614 c 0
 559.608 422.504 572.736 395.783 577.525 365.603 c 0
 578.539 359.213 578.615 352.47 578.615 268.675 c 2
 578.615 178.614 l 1
 577.246 170.783 l 2
 572.021 140.903 559.492 115.555 539.759 94.9395 c 0
 534.994 89.9619 461.808 26.4443 444.037 11.8633 c 0
 423.693 -4.82812 397.35 -15.8076 369.94 -19.0176 c 0
 359.579 -20.2314 329.579 -20.2285 319.218 -19.0127 c 0
 292.41 -15.8672 267.952 -5.87207 246.386 10.752 c 0
 243.576 12.918 232.501 23.3955 221.838 33.9756 c 2
 202.41 53.2529 l 1
 202.231 -54.2773 l 2
 202.031 -175.302 202.513 -163.624 197.272 -174.397 c 0
 192.496 -184.217 185.422 -191.297 175.603 -196.086 c 0
 167.477 -200.049 163.735 -200.898 154.519 -200.874 c 0
 145.302 -200.85 141.376 -199.958 133.435 -196.085 c 0
 123.615 -191.297 116.534 -184.217 111.742 -174.397 c 0
 110.272 -171.386 108.615 -167.235 108.013 -165.061 c 0
 106.972 -161.303 106.928 -147.41 106.928 178.614 c 2
 106.928 518.374 l 1
 108.307 523.133 l 2
 113.193 540 126.612 553.145 143.073 557.188 c 0
366.507 461.172 m 0
 361.631 462.591 331.988 463.043 325.604 461.796 c 0
 318.735 460.455 312.733 457.87 306.929 453.756 c 0
 303.213 451.121 216.64 364.939 212.687 359.939 c 0
 208.728 354.932 206.941 351.627 204.68 345.121 c 2
 202.711 339.458 l 1
 202.53 271.988 l 2
 202.409 226.506 202.56 203.163 202.992 200.361 c 0
 203.83 194.939 206.937 186.758 209.878 182.229 c 0
 212.565 178.09 297.41 92.623 304.699 86.7119 c 0
 309.97 82.4385 315.663 79.4492 322.109 77.5732 c 0
 326.521 76.2881 327.893 76.2051 344.579 76.2051 c 0
 361.386 76.2051 362.611 76.2803 367.169 77.5986 c 0
 377.196 80.498 378.073 81.1611 425.182 121.518 c 0
 449.277 142.161 470.398 160.716 472.137 162.771 c 0
 475.887 167.203 479.479 173.916 481.419 180.12 c 2
 482.832 184.639 l 1
 482.832 268.976 l 2
 482.832 348.855 482.774 353.521 481.739 357.229 c 0
 480.378 362.108 476.677 369.618 473.693 373.555 c 0
 471.528 376.411 387.109 449.958 380.784 454.498 c 0
 377.259 457.028 371.507 459.717 366.507 461.172 c 0
EndSplineSet
EndChar

StartChar: q
Encoding: 113 113 84
Width: 715
Flags: W
LayerCount: 2
Back
Fore
SplineSet
267.471 537.661 m 0
 272.022 538.217 286.326 538.45 318.494 538.494 c 0
 359.76 538.55 363.906 538.463 372.471 537.366 c 0
 397.771 534.128 420.86 524.75 440.663 509.671 c 0
 443.649 507.396 454.338 498.493 464.459 489.85 c 2
 482.832 474.156 l 1
 483.197 486.325 l 2
 483.57 498.734 483.953 501.141 486.735 508.554 c 0
 489.72 516.506 498.916 527.166 506.868 531.891 c 0
 511.768 534.802 519.037 537.232 525.362 538.076 c 0
 535.061 539.369 546.579 536.988 555.242 531.9 c 0
 559.76 529.247 569.603 519.397 572.252 514.879 c 0
 574.962 510.256 577.403 503.253 578.278 497.59 c 0
 578.805 494.186 578.932 412.35 578.796 165.662 c 0
 578.623 -147.53 578.568 -161.904 577.532 -165.362 c 0
 573.36 -179.277 564.388 -190.126 552.109 -196.099 c 0
 543.982 -200.052 540.242 -200.899 531.024 -200.874 c 0
 521.808 -200.85 517.883 -199.958 509.94 -196.085 c 0
 500.121 -191.297 493.047 -184.218 488.271 -174.398 c 0
 483.023 -163.609 483.513 -176.024 483.312 -48.6748 c 0
 483.214 13.5537 482.998 64.457 482.832 64.457 c 0
 482.667 64.457 474.188 57.3213 464.007 48.6143 c 0
 453.826 39.9062 443.719 31.3936 441.567 29.7139 c 0
 421.855 14.3252 396.808 4.19043 370.422 0.926758 c 0
 359.738 -0.394531 279.218 -0.418945 267.952 0.895508 c 0
 241.748 3.9541 216.098 14.2861 196.386 29.7246 c 0
 186.808 37.2266 151.021 68.4082 146.083 73.5537 c 0
 124.292 96.2637 111.27 124.276 107.491 156.565 c 0
 106.138 168.132 106.184 371.516 107.541 382.47 c 0
 111.508 414.458 124.517 442.446 145.76 464.698 c 0
 150.898 470.081 186.446 501.08 196.386 508.847 c 0
 215.9 524.094 241.566 534.498 267.471 537.661 c 0
362.591 442.137 m 0
 356.567 443.115 279.783 442.865 274.398 441.85 c 0
 263.336 439.764 260.182 437.727 235.844 416.944 c 0
 213.435 397.808 211.296 395.577 207.184 387.048 c 0
 202.329 376.978 202.711 387.048 202.711 269.276 c 0
 202.711 151.506 202.332 161.576 207.153 151.506 c 0
 211.238 142.975 213.374 140.748 235.844 121.586 c 0
 258.494 102.271 261.553 100.163 270.844 97.4658 c 2
 275.603 96.084 l 1
 318.977 96.084 l 2
 367.471 96.084 365.377 95.917 375.001 100.537 c 0
 380.944 103.39 379.82 102.489 415.482 132.962 c 0
 431.688 146.808 450.659 162.95 457.651 168.843 c 0
 473.796 182.446 476.938 186.341 480.845 197.59 c 2
 482.832 203.312 l 1
 482.832 268.976 l 1
 482.832 334.639 l 1
 481.424 339.156 l 2
 479.414 345.603 475.771 352.318 471.783 356.928 c 0
 468.171 361.103 385.784 431.647 380.121 435.413 c 0
 376.053 438.119 367.771 441.295 362.591 442.137 c 0
EndSplineSet
EndChar
StartChar: r
Encoding: 114 114 85
Width: 715
Flags: W
LayerCount: 2
Back
Fore
SplineSet
146.085 537.679 m 0
 156.929 539.701 169.124 537.53 178.796 531.857 c 0
 183.254 529.242 193.102 519.397 195.72 514.939 c 0
 196.836 513.038 198.446 509.578 199.253 507.35 c 0
 202.227 499.122 202.41 496.626 202.41 464.397 c 0
 202.41 447.892 202.56 434.337 202.741 434.337 c 0
 202.924 434.337 227.651 455.379 257.712 481.114 c 0
 287.771 506.85 314.328 529.191 316.748 530.781 c 0
 321.239 533.733 325.241 535.473 331.627 537.248 c 0
 334.884 538.153 340.904 538.253 392.471 538.253 c 0
 454.76 538.253 454.385 538.271 469.579 534.656 c 0
 527.28 520.93 570.116 473.132 577.732 413.976 c 0
 579.245 402.229 579.457 368.556 578.063 361.325 c 0
 573.627 338.296 554.338 322.289 531.024 322.289 c 0
 509.338 322.289 491.151 336.101 484.857 357.349 c 0
 483.671 361.355 483.521 363.675 483.163 383.434 c 2
 482.771 405.12 l 1
 480.849 410.723 l 2
 478.553 417.409 476.829 420.566 472.53 425.964 c 0
 468.644 430.842 463.314 434.962 456.929 438.022 c 0
 447.321 442.628 449.277 442.47 401.988 442.47 c 2
 359.76 442.47 l 1
 281.115 375.301 l 1
 202.471 308.132 l 1
 202.262 173.795 l 2
 202.026 22.4697 202.542 37.6396 197.272 26.8066 c 0
 192.496 16.9873 185.422 9.91016 175.603 5.12695 c 0
 163.359 -0.837891 151.205 -1.53809 138.435 2.9834 c 0
 131.507 5.43652 127.37 8.17188 121.085 14.457 c 0
 113.066 22.4756 109.521 29.0352 107.477 39.6377 c 0
 106.199 46.2646 106.199 492.289 107.477 498.915 c 0
 109.521 509.518 113.066 516.077 121.085 524.096 c 0
 129.084 532.096 135.844 535.768 146.085 537.679 c 0
EndSplineSet
Validated: 33
EndChar

StartChar: s
Encoding: 115 115 86
Width: 715
Flags: W
LayerCount: 2
Back
Fore
SplineSet
225.001 537.628 m 0
 234.498 538.87 446.688 538.908 457.29 537.669 c 0
 491.024 533.728 522.379 518.319 545.838 494.156 c 0
 558.061 481.566 564.806 471.156 567.267 461.084 c 0
 568.885 454.458 568.616 444.363 566.646 437.771 c 0
 565.781 434.879 564.342 431.046 563.479 429.337 c 0
 554.219 411.012 534.037 400.124 514.579 402.957 c 0
 500.965 404.94 491.079 410.848 481.423 422.771 c 0
 474.06 431.863 465.423 437.789 454.699 441.108 c 2
 450.302 442.47 l 1
 343.676 442.62 l 2
 270.603 442.724 236.12 442.575 234.097 442.147 c 0
 226.326 440.507 218.098 434.196 214.332 426.987 c 0
 212.536 423.55 212.355 422.711 212.41 418.072 c 0
 212.455 414.276 212.815 412.062 213.805 409.518 c 0
 215.678 404.698 219.692 399.483 223.555 396.854 c 0
 225.398 395.598 264.519 378.083 313.856 356.424 c 0
 508.796 270.843 500.955 274.381 512.29 266.877 c 0
 535.74 251.352 555.437 228.132 565.955 203.614 c 0
 578.826 173.608 581.639 142.108 574.157 111.746 c 0
 560.723 57.2324 517.952 15.4492 463.254 3.40234 c 0
 447.262 -0.120117 449.398 -0.0644531 338.254 0.157227 c 0
 236.988 0.359375 236.403 0.368164 228.435 1.67383 c 0
 212.64 4.26172 202.109 7.30859 183.735 14.6064 c 0
 163.735 22.5508 149.977 30.4775 133.435 43.5889 c 0
 119.157 54.9033 114.9 59.5498 110.834 68.2529 c 0
 104.909 80.9346 105.165 96.626 111.506 109.457 c 0
 120.285 127.225 140.422 138.221 159.519 135.674 c 0
 170.464 134.215 177.049 131.062 188.977 121.565 c 0
 202.593 110.727 206.146 108.617 220.241 103.001 c 0
 230.362 98.9697 236.545 97.2344 243.735 96.4082 c 0
 247.971 95.9209 277.471 95.7744 345.482 95.9033 c 2
 441.266 96.084 l 1
 445.784 97.4824 l 2
 459.76 101.811 471.039 111.256 477.349 123.915 c 0
 487.767 144.818 481.747 170.383 463.073 184.542 c 0
 460.663 186.369 457.558 188.42 456.085 189.156 c 0
 453.432 190.482 397.35 215.191 262.471 274.458 c 0
 221.446 292.484 185.805 308.283 183.254 309.573 c 0
 172.229 315.145 160.215 324.157 150.88 333.855 c 0
 132.123 353.342 120.622 377.409 117.17 404.397 c 0
 113.186 435.542 122.975 467.826 144.059 493.072 c 0
 164.689 517.776 193.193 533.467 225.001 537.628 c 0
EndSplineSet
EndChar

StartChar: t
Encoding: 116 116 87
Width: 715
Flags: W
LayerCount: 2
Back
Fore
SplineSet
239.157 698.534 m 0
 244.157 699.605 255.627 699.302 260.543 697.969 c 0
 262.551 697.424 266.566 695.794 269.579 694.302 c 0
 279.458 689.406 286.504 682.349 291.249 672.591 c 0
 296.373 662.055 296.009 667.41 296.24 599.217 c 2
 296.446 538.555 l 1
 394.157 538.404 l 1
 491.868 538.253 l 1
 496.387 536.861 l 2
 509.579 532.798 520.668 523.578 526.446 511.868 c 0
 530.216 504.23 531.024 500.482 531.024 490.663 c 0
 531.024 480.844 530.216 477.096 526.446 469.458 c 0
 520.668 457.748 509.579 448.528 496.387 444.465 c 2
 491.868 443.072 l 1
 394.127 442.922 l 1
 296.386 442.771 l 1
 296.537 288.103 l 1
 296.688 133.434 l 1
 298.69 127.711 l 2
 301.854 118.675 306.707 111.553 313.254 106.345 c 0
 318.508 102.164 321.748 100.391 328.374 98.0684 c 2
 334.037 96.084 l 1
 389.157 96.084 l 2
 451.266 96.084 447.265 95.8037 457.531 100.875 c 0
 470.407 107.234 479.282 118.555 482.586 132.831 c 0
 485.651 146.084 488.651 152.672 495.012 160.12 c 0
 504.565 171.311 521.446 177.821 535.965 175.916 c 0
 563.134 172.351 581.99 148.084 578.058 121.747 c 0
 572.876 87.0479 553.771 54 525.904 31.5332 c 0
 508.94 17.8564 485.242 6.82617 464.157 2.79395 c 0
 449.436 -0.0214844 446.748 -0.112305 385.241 0.131836 c 2
 327.41 0.361328 l 1
 318.977 1.94238 l 2
 287.832 7.78223 262.056 21.4072 240.94 43.1924 c 0
 219.049 65.7793 205.833 93.2529 201.792 124.578 c 0
 200.638 133.529 200.603 138.253 200.603 288.253 c 2
 200.603 442.711 l 1
 173.344 442.922 l 2
 147.26 443.124 145.896 443.19 141.688 444.462 c 0
 120.331 450.918 106.627 468.977 106.627 490.663 c 0
 106.627 512.41 120.271 530.39 141.688 536.863 c 0
 145.891 538.135 147.29 538.202 173.313 538.404 c 2
 200.543 538.615 l 1
 200.749 599.277 l 2
 200.98 667.41 200.616 662.054 205.729 672.591 c 0
 212.24 686.006 224.277 695.348 239.157 698.534 c 0
EndSplineSet
EndChar

StartChar: u
Encoding: 117 117 88
Width: 715
Flags: W
LayerCount: 2
Back
Fore
SplineSet
146.868 537.969 m 0
 151.351 538.789 161.808 538.152 166.747 536.76 c 0
 183.538 532.024 196.165 519.036 200.667 501.867 c 0
 201.774 497.646 202.357 483.253 208.133 317.771 c 0
 213.036 177.289 214.607 137.139 215.36 133.132 c 0
 218.442 116.74 229.88 103.815 246.386 98.0742 c 2
 252.109 96.084 l 1
 287.049 96.084 l 2
 325.784 96.084 325.784 96.084 334.458 100.176 c 0
 336.712 101.238 371.085 122.981 410.844 148.493 c 2
 483.133 194.879 l 1
 483.133 344.639 l 2
 483.133 506.687 482.968 498.156 486.291 507.35 c 0
 487.097 509.578 488.707 513.038 489.823 514.939 c 0
 492.462 519.433 502.29 529.238 506.808 531.886 c 0
 511.81 534.816 519.037 537.226 525.362 538.071 c 0
 535.061 539.367 546.579 536.988 555.242 531.9 c 0
 559.76 529.247 569.603 519.397 572.252 514.879 c 0
 574.962 510.256 577.403 503.253 578.278 497.59 c 0
 578.803 494.195 578.932 436.687 578.796 266.265 c 0
 578.624 50.0596 578.564 39.2881 577.523 35.8428 c 0
 575.812 30.1807 571.449 21.7598 568.098 17.6504 c 0
 562.051 10.2373 552.049 3.83594 542.893 1.51855 c 0
 531.146 -1.4541 517.281 0.540039 506.868 6.70117 c 0
 498.916 11.4053 489.722 22.0479 486.74 29.999 c 0
 483.624 38.3086 483.547 38.9756 483.181 60.6016 c 2
 482.832 81.1445 l 1
 434.64 50.2021 l 2
 382.29 16.5918 375.237 12.5547 360.241 7.6123 c 0
 349.943 4.21973 340.362 2.09277 329.94 0.886719 c 0
 318.193 -0.472656 248.413 -0.0537109 239.76 1.42773 c 0
 207.711 6.91406 180.534 20.9541 159.033 43.1318 c 0
 136.178 66.708 122.749 95.4814 119.28 128.312 c 0
 118.535 135.366 106.627 474.277 106.627 488.434 c 0
 106.627 498.434 107.551 503.365 110.746 510.422 c 0
 117.244 524.771 130.663 535.005 146.868 537.969 c 0
EndSplineSet
Validated: 33
EndChar

StartChar: v
Encoding: 118 118 89
Width: 715
Flags: W
LayerCount: 2
Back
Fore
SplineSet
146.085 537.679 m 0
 156.929 539.701 169.124 537.53 178.796 531.857 c 0
 183.254 529.242 193.102 519.397 195.72 514.939 c 0
 196.836 513.038 198.446 509.578 199.253 507.35 c 0
 202.305 498.907 202.41 497.229 202.41 457.289 c 2
 202.41 420.181 l 1
 272.44 260.09 l 2
 310.967 172.018 342.606 100 342.771 100 c 0
 342.938 100 374.576 172.018 413.104 260.09 c 2
 483.133 420.181 l 1
 483.133 457.289 l 2
 483.133 497.229 483.24 498.907 486.318 507.35 c 0
 488.689 513.855 491.449 517.954 497.591 524.096 c 0
 503.915 530.42 508.013 533.117 515.121 535.634 c 0
 525.423 539.281 536.606 539.289 546.868 535.655 c 0
 554.037 533.117 558.122 530.433 564.459 524.096 c 0
 570.601 517.954 573.359 513.855 575.731 507.35 c 0
 578.861 498.767 578.916 497.771 578.916 450.301 c 0
 578.916 401.023 578.937 401.314 574.8 391.084 c 0
 567.15 372.168 414.617 24.9961 412.58 21.8672 c 0
 409.581 17.2578 401.446 9.42871 396.808 6.68555 c 0
 392.467 4.11914 386.507 1.93848 380.844 0.844727 c 0
 374.398 -0.399414 311.146 -0.399414 304.699 0.844727 c 0
 299.037 1.93848 293.077 4.11914 288.735 6.68555 c 0
 284.097 9.42871 275.963 17.2578 272.963 21.8672 c 0
 270.927 24.9961 118.394 372.168 110.744 391.084 c 0
 106.606 401.314 106.627 401.023 106.627 450.301 c 0
 106.627 497.771 106.683 498.767 109.812 507.35 c 0
 112.184 513.855 114.942 517.954 121.085 524.096 c 0
 129.084 532.096 135.844 535.768 146.085 537.679 c 0
EndSplineSet
EndChar
StartChar: w
Encoding: 119 119 90
Width: 715
Flags: W
LayerCount: 2
Back
Fore
SplineSet
135.844 537.691 m 0
 152.65 540.772 170.562 534.167 181.362 520.903 c 0
 184.913 516.544 189.35 507.891 190.69 502.711 c 0
 191.208 500.711 191.896 495.06 192.229 490.06 c 0
 192.561 485.091 194.865 421.506 197.35 348.795 c 2
 201.867 216.565 l 1
 216.747 165.542 l 2
 224.934 137.47 231.803 114.707 232.019 114.939 c 0
 232.233 115.172 246.386 139.276 263.494 168.554 c 2
 294.578 221.747 l 1
 294.578 277.711 l 2
 294.578 338.675 294.551 338.121 298.069 347.168 c 0
 302.192 357.771 310.985 367.275 321.325 372.307 c 0
 329.19 376.133 334.097 377.289 342.47 377.289 c 0
 350.844 377.289 355.75 376.133 363.614 372.307 c 0
 373.955 367.275 382.748 357.771 386.871 347.168 c 0
 390.39 338.121 390.361 338.675 390.361 277.711 c 2
 390.361 221.747 l 1
 421.446 168.554 l 2
 438.555 139.276 452.706 115.172 452.922 114.939 c 0
 453.138 114.707 460.006 137.47 468.193 165.542 c 2
 483.072 216.565 l 1
 487.591 348.795 l 2
 490.075 421.506 492.375 485.091 492.701 490.06 c 0
 493.408 500.843 494.29 504.558 497.847 511.747 c 0
 502.745 521.646 509.759 528.628 519.699 533.5 c 0
 538.614 542.771 560.452 538.736 575.148 523.253 c 0
 582.267 515.753 586.507 507.048 587.97 496.928 c 0
 588.479 493.411 587.597 462.892 583.796 352.409 c 0
 581.145 275.361 578.719 209.463 578.404 205.934 c 0
 577.881 200.072 575.714 192.259 553.344 115.572 c 0
 534.663 51.5352 528.28 30.4541 526.43 26.6865 c 0
 520.688 14.9922 509.519 5.71484 496.386 1.73145 c 0
 492.019 0.40625 490.904 0.352539 462.952 0.120117 c 0
 442.47 -0.0507812 432.719 0.0898438 429.519 0.601562 c 0
 418.855 2.30566 409.357 7.41602 401.747 15.542 c 0
 397.705 19.8564 394.738 24.668 369.97 67.0781 c 0
 354.947 92.8008 342.569 113.854 342.47 113.854 c 0
 342.37 113.854 330.009 92.8008 314.97 67.0176 c 2
 287.65 20.1807 l 1
 281.928 14.457 l 2
 275.643 8.17188 271.506 5.4375 264.578 2.98828 c 0
 256.426 0.106445 253.313 -0.101562 221.988 0.138672 c 0
 194.036 0.353516 192.922 0.40625 188.555 1.73145 c 0
 175.422 5.71484 164.253 14.9922 158.51 26.6865 c 0
 156.659 30.4541 150.276 51.5352 131.597 115.572 c 0
 109.226 192.259 107.059 200.072 106.536 205.934 c 0
 106.222 209.463 103.804 275.361 101.163 352.409 c 0
 95.9941 503.192 96.0801 496.672 99.1465 505.903 c 0
 104.424 521.788 119.277 534.655 135.844 537.691 c 0
EndSplineSet
Validated: 33
EndChar

StartChar: x
Encoding: 120 120 91
Width: 715
Flags: W
LayerCount: 2
Back
Fore
SplineSet
156.688 537.898 m 0
 161.091 538.688 171.747 538.198 176.205 537.002 c 0
 184.398 534.802 193.508 529.448 198.782 523.734 c 0
 200.28 522.111 233.204 482.47 271.929 435.662 c 0
 339.21 354.337 342.397 350.59 343.404 351.626 c 0
 343.984 352.223 375.823 390.662 414.157 437.048 c 0
 452.491 483.434 484.99 522.578 486.378 524.036 c 0
 489.865 527.701 495.482 531.615 500.724 534.031 c 0
 530.743 547.87 565.041 527.711 568.359 494.277 c 0
 569.162 486.191 566.94 476.265 562.4 467.65 c 0
 560.859 464.726 538.01 436.687 482.531 369.639 c 0
 439.812 318.012 404.82 275.56 404.82 275.361 c 0
 404.82 275.162 441.186 231.084 485.633 177.409 c 0
 530.081 123.734 567.666 78.1924 569.156 76.2041 c 0
 583.696 56.8066 581.093 29.6807 563.073 12.8359 c 0
 543.746 -5.23242 513.368 -3.85645 495.379 15.9033 c 0
 493.449 18.0225 458.245 60.4209 417.199 110.06 c 2
 342.531 200.361 l 1
 339.458 196.717 l 2
 337.77 194.713 303.287 153.072 262.862 104.217 c 0
 222.437 55.3613 187.792 13.9473 185.904 12.2207 c 0
 162.503 -9.18066 123.975 -1.02441 110.74 28.1318 c 0
 103.658 43.7344 105.647 62.7158 115.779 76.2041 c 0
 117.272 78.1924 154.86 123.734 199.308 177.409 c 0
 243.755 231.084 280.121 275.162 280.121 275.361 c 0
 280.121 275.56 245.129 318.012 202.41 369.639 c 0
 146.931 436.687 124.082 464.726 122.54 467.65 c 0
 118 476.265 115.779 486.191 116.584 494.277 c 0
 117.093 499.397 119.347 507.413 121.462 511.626 c 0
 128.335 525.317 141.566 535.186 156.688 537.898 c 0
EndSplineSet
Validated: 33
EndChar
StartChar: y
Encoding: 121 121 92
Width: 715
Flags: W
LayerCount: 2
Back
Fore
SplineSet
146.085 537.679 m 0
 156.929 539.701 169.124 537.53 178.796 531.857 c 0
 183.254 529.242 193.102 519.397 195.72 514.939 c 0
 196.836 513.038 198.446 509.578 199.253 507.35 c 0
 202.305 498.907 202.41 497.229 202.41 457.289 c 2
 202.41 420.181 l 1
 264.609 278.162 l 1
 326.808 136.145 l 1
 342.712 136.295 l 1
 358.615 136.445 l 1
 420.874 278.283 l 1
 483.133 420.12 l 1
 483.133 457.289 l 2
 483.133 497.229 483.24 498.907 486.318 507.35 c 0
 488.689 513.855 491.449 517.954 497.591 524.096 c 0
 503.915 530.42 508.013 533.117 515.121 535.634 c 0
 525.423 539.281 536.606 539.289 546.868 535.655 c 0
 554.037 533.117 558.122 530.433 564.459 524.096 c 0
 570.601 517.954 573.359 513.855 575.731 507.35 c 0
 578.861 498.767 578.916 497.771 578.916 450.301 c 0
 578.916 401.023 578.937 401.314 574.791 391.084 c 0
 569.178 377.229 326.367 -175.146 324.577 -178.133 c 0
 319.512 -186.59 309.639 -194.717 300.362 -198.067 c 0
 291.464 -201.281 291.868 -201.267 216.266 -201.079 c 2
 146.085 -200.904 l 1
 141.688 -199.548 l 2
 120.222 -192.928 106.627 -175.001 106.627 -153.313 c 0
 106.627 -131.566 120.198 -113.688 141.688 -107.127 c 0
 146.067 -105.789 146.296 -105.782 199.368 -105.452 c 2
 252.651 -105.121 l 1
 284.458 -32.6211 l 2
 301.954 7.25879 316.266 39.9873 316.266 40.1201 c 0
 316.266 40.252 310.724 40.3613 303.977 40.3613 c 0
 287.471 40.3613 280.064 41.8789 271.205 47.0791 c 0
 266.808 49.6602 256.894 59.5566 254.397 63.8545 c 0
 252.535 67.0645 112.796 385.542 109.814 393.373 c 0
 106.694 401.57 106.627 402.771 106.627 450.301 c 0
 106.627 497.771 106.683 498.767 109.812 507.35 c 0
 112.184 513.855 114.942 517.954 121.085 524.096 c 0
 129.084 532.096 135.844 535.768 146.085 537.679 c 0
EndSplineSet
Validated: 33
EndChar
StartChar: enc-122
Encoding: 122 122 93
Width: 715
Flags: W
LayerCount: 2
Back
Fore
SplineSet
169.76 537.949 m 0
 171.317 538.216 255.121 538.393 356.024 538.343 c 0
 530.543 538.257 539.635 538.199 543.073 537.161 c 0
 548.735 535.45 557.156 531.094 561.266 527.748 c 0
 566.527 523.466 570.709 518.133 573.812 511.747 c 0
 578.515 502.067 578.494 502.229 578.758 473.494 c 0
 579.013 445.723 578.766 442.301 575.921 434.217 c 0
 573.906 428.494 571.103 423.73 567.197 419.397 c 0
 565.525 417.542 489.368 344.054 397.923 256.054 c 2
 231.688 96.084 l 1
 385.271 95.7822 l 2
 528.585 95.502 539.086 95.4121 542.29 94.4473 c 0
 551.326 91.7266 557.51 88.2666 563.435 82.6172 c 0
 573.302 73.207 578.435 61.3252 578.435 47.8906 c 0
 578.435 24.7588 562.174 5.25195 539.218 0.845703 c 0
 532.591 -0.425781 152.87 -0.419922 146.266 0.852539 c 0
 135.663 2.89453 129.104 6.43848 121.085 14.457 c 0
 113.066 22.4756 109.521 29.0352 107.475 39.6377 c 0
 106.255 45.9629 106.245 90.1807 107.463 96.5059 c 0
 109.202 105.542 112.812 113.044 118.392 119.217 c 0
 120.039 121.039 196.175 194.5 287.621 282.5 c 2
 453.856 442.47 l 1
 311.416 442.771 l 1
 168.977 443.072 l 1
 164.458 444.472 l 2
 139.338 452.254 124.836 476.927 130.759 501.807 c 0
 135.153 520.264 150.724 534.693 169.76 537.949 c 0
EndSplineSet
Validated: 545
EndChar

StartChar: braceleft
Encoding: 123 123 94
Width: 715
Flags: W
LayerCount: 2
Back
Fore
SplineSet
378.916 739.082 m 0
 381.07 739.355 417.019 739.619 458.826 739.669 c 0
 521.959 739.744 535.564 739.616 539.218 738.915 c 0
 562.174 734.508 578.435 715 578.435 691.867 c 0
 578.435 668.734 562.174 649.228 539.218 644.82 c 0
 535.587 644.123 522.229 643.976 462.591 643.976 c 2
 390.362 643.976 l 1
 390.362 551.023 l 2
 390.362 450.181 390.383 450.874 386.999 435.603 c 0
 382.315 414.458 372.19 393.282 358.743 376.506 c 0
 356.474 373.675 354.424 371.103 354.157 370.753 c 0
 353.868 370.373 355.26 368.192 357.636 365.301 c 0
 367.031 353.87 376.496 337.289 381.673 323.192 c 0
 384.426 315.696 386.945 306.084 388.699 296.385 c 2
 390.061 288.855 l 1
 390.241 192.319 l 1
 390.422 95.7822 l 1
 462.621 95.7822 l 2
 522.26 95.7822 535.585 95.6357 539.218 94.9385 c 0
 562.174 90.5312 578.435 71.0234 578.435 47.8906 c 0
 578.435 24.7588 562.174 5.25098 539.218 0.84375 c 0
 535.579 0.145508 521.808 -0.000976562 459.398 -0.000976562 c 0
 378.977 -0.000976562 378.494 0.0146484 366.868 2.98438 c 0
 333.313 11.5557 306.533 38.0186 297.831 71.2041 c 0
 294.796 82.7793 294.958 77.168 294.581 183.434 c 0
 294.185 294.759 294.621 284.76 289.715 295 c 0
 283.778 307.393 272.591 316.728 258.735 320.852 c 0
 255.429 321.836 250.482 321.958 200.603 322.289 c 0
 146.446 322.647 146.056 322.659 141.688 323.986 c 0
 120.235 330.504 106.627 348.434 106.627 370.18 c 0
 106.627 391.928 120.235 409.857 141.688 416.375 c 0
 146.056 417.702 146.446 417.713 200.603 418.092 c 0
 261.446 418.519 257.387 418.223 267.229 422.938 c 0
 279.677 428.899 288.958 440 293.133 453.915 c 0
 294.152 457.313 294.239 463.494 294.579 556.928 c 2
 294.94 656.325 l 1
 296.301 662.35 l 2
 301.605 685.844 313.062 704.562 331.024 719.088 c 0
 343.609 729.265 361.988 736.938 378.916 739.082 c 0
EndSplineSet
Validated: 33
EndChar

StartChar: bar
Encoding: 124 124 109
Width: 715
Flags: W
LayerCount: 2
Back
Fore
SplineSet
294.578 183.192 m 2
 294.578 322.289 l 1
 342.47 322.289 l 1
 390.361 322.289 l 1
 390.212 180.903 l 2
 390.044 21.626 390.563 37.7178 385.242 26.8066 c 0
 380.453 16.9873 373.373 9.91016 363.554 5.12695 c 0
 351.31 -0.837891 339.156 -1.53809 326.385 2.9834 c 0
 319.458 5.43652 315.321 8.17188 309.036 14.457 c 0
 302.894 20.5996 300.135 24.6982 297.763 31.2041 c 0
 294.42 40.373 294.578 32.8311 294.578 183.192 c 2
333.734 738.912 m 0
 338.594 739.948 349.458 739.604 354.518 738.254 c 0
 356.525 737.718 360.542 736.113 363.554 734.644 c 0
 373.373 729.853 380.453 722.771 385.242 712.952 c 0
 390.564 702.038 390.044 718.133 390.212 559.156 c 2
 390.361 418.072 l 1
 342.47 418.072 l 1
 294.578 418.072 l 1
 294.578 556.867 l 2
 294.578 706.928 294.42 699.385 297.763 708.555 c 0
 300.135 715.061 302.894 719.159 309.036 725.301 c 0
 316.874 733.14 323.312 736.688 333.734 738.912 c 0
EndSplineSet
EndChar

StartChar: braceright
Encoding: 125 125 96
Width: 715
Flags: W
LayerCount: 2
Back
Fore
SplineSet
146.868 739.158 m 0
 148.425 739.423 183.735 739.665 225.302 739.696 c 0
 306.024 739.759 306.369 739.748 318.013 736.776 c 0
 351.627 728.198 378.401 701.763 387.109 668.554 c 0
 390.146 656.978 389.984 662.59 390.335 556.626 c 2
 390.663 457.53 l 1
 392.018 453.132 l 2
 396.156 439.698 405.411 428.789 417.651 422.915 c 0
 427.558 418.16 423.495 418.456 484.338 418.069 c 0
 543.615 417.692 540.357 417.884 549.278 414.259 c 0
 566.608 407.216 578.435 389.337 578.435 370.18 c 0
 578.435 351.023 566.608 333.146 549.278 326.103 c 0
 540.357 322.478 543.615 322.668 484.338 322.291 c 0
 423.555 321.905 427.544 322.193 417.712 317.482 c 0
 407.893 312.778 399.879 304.759 395.187 294.939 c 0
 390.327 284.773 390.756 294.698 390.357 183.132 c 2
 390.001 83.4336 l 1
 388.643 77.4092 l 2
 384.934 60.9629 378.256 46.873 368.656 35.2402 c 0
 354.322 17.8711 335.784 6.76465 312.651 1.68848 c 2
 306.326 0.300781 l 1
 226.507 0.300781 l 1
 146.688 0.300781 l 1
 141.988 1.66406 l 2
 120.487 7.9043 106.627 26.0234 106.627 47.8906 c 0
 106.627 69.5781 120.222 87.5049 141.688 94.125 c 2
 146.085 95.4814 l 1
 220.332 95.6621 l 1
 294.579 95.8428 l 1
 294.579 189.156 l 2
 294.579 278.434 294.63 282.868 295.763 291.687 c 0
 297.109 302.168 300.004 314.303 303.279 323.192 c 0
 308.494 337.349 317.932 353.888 327.307 365.301 c 0
 329.683 368.192 331.073 370.373 330.784 370.753 c 0
 330.518 371.103 328.464 373.675 326.189 376.506 c 0
 312.695 393.309 302.643 414.337 297.938 435.603 c 0
 294.559 450.874 294.579 450.181 294.579 551.023 c 2
 294.579 643.916 l 1
 220.332 644.097 l 1
 146.085 644.277 l 1
 141.688 645.64 l 2
 127.591 650.006 116.434 659.553 110.751 672.108 c 0
 105.161 684.458 105.164 699.277 110.759 711.627 c 0
 117.261 725.979 131.024 736.474 146.868 739.158 c 0
EndSplineSet
EndChar
StartChar: asciitilde
Encoding: 126 126 97
Width: 715
Flags: W
LayerCount: 2
Back
Fore
SplineSet
234.338 738.867 m 0
 259.037 741.859 285.386 737.174 308.916 725.605 c 0
 332.41 714.055 352.034 696.685 366.428 674.698 c 0
 377.873 657.217 384.633 640.181 388.419 619.277 c 0
 389.978 610.672 390.006 610 390.332 574.096 c 2
 390.663 537.65 l 1
 392.698 531.747 l 2
 397.247 518.554 406.385 508.073 418.374 502.298 c 0
 424.991 499.11 430.784 497.965 437.952 498.427 c 0
 445.061 498.885 449.49 500.028 455.784 503.03 c 0
 465.604 507.715 473.622 515.723 478.327 525.542 c 0
 483.069 535.439 482.748 530.542 483.133 598.795 c 0
 483.521 667.409 483.154 662.134 488.253 672.59 c 0
 493.011 682.348 500.061 689.398 509.94 694.276 c 0
 517.753 698.135 521.748 699.042 531.024 699.066 c 0
 540.302 699.091 544.206 698.207 552.109 694.295 c 0
 561.988 689.404 569.04 682.348 573.798 672.59 c 0
 578.958 662.008 578.615 667.47 578.615 595.783 c 0
 578.615 532.35 578.612 532.214 577.243 524.397 c 0
 574.532 508.915 570.865 497.288 564.517 484.036 c 0
 546.25 445.908 511.266 417.311 470.182 406.924 c 0
 459.285 404.169 451.387 403.043 440.001 402.621 c 0
 375.38 400.226 314.986 447.048 298.857 512.048 c 0
 295.206 526.765 295.045 528.915 294.645 568.373 c 2
 294.277 604.518 l 1
 292.299 610.241 l 2
 287.676 623.614 279.149 633.545 267.169 639.509 c 0
 260.172 642.992 254.458 644.214 247.29 643.759 c 0
 230.001 642.661 214.781 632.37 207.254 616.687 c 0
 202.468 606.716 202.796 611.687 202.41 543.373 c 0
 202.022 474.759 202.389 480.035 197.29 469.578 c 0
 192.502 459.759 185.422 452.679 175.603 447.891 c 0
 167.477 443.927 163.735 443.077 154.519 443.102 c 0
 145.302 443.127 141.376 444.019 133.435 447.891 c 0
 123.615 452.679 116.541 459.759 111.765 469.578 c 0
 106.636 480.123 107.004 474.698 106.772 543.012 c 0
 106.577 600.843 106.625 604.251 107.77 613.192 c 0
 111.818 644.819 125.31 672.985 147.299 695.723 c 0
 170.563 719.777 200.904 734.817 234.338 738.867 c 0
EndSplineSet
Validated: 33
EndChar

StartChar: uni007F
Encoding: 127 127 112
Width: 715
Flags: W
LayerCount: 2
Back
Fore
SplineSet
82.5303 369.879 m 1
 82.5303 763.855 l 1
 342.47 763.855 l 1
 602.41 763.855 l 1
 602.41 369.879 l 1
 602.41 -24.0977 l 1
 342.47 -24.0977 l 1
 82.5303 -24.0977 l 1
 82.5303 369.879 l 1
EndSplineSet
EndChar
StartChar: sterling
Encoding: 163 163 2
Width: 715
Flags: W
LayerCount: 2
Back
Fore
SplineSet
490.362 738.543 m 0
 501.085 739.971 532.443 740.202 539.218 738.903 c 0
 562.174 734.503 578.435 715 578.435 691.867 c 0
 578.435 669.879 564.241 651.623 542.29 645.375 c 0
 539.628 644.617 534.459 644.297 519.278 643.95 c 0
 497.591 643.454 496.326 643.265 487.651 639.209 c 0
 478.193 634.788 469.912 626.566 465.391 617.108 c 0
 464.08 614.367 453.44 578.916 435.001 515.843 c 0
 419.396 462.47 406.627 418.632 406.627 418.434 c 0
 406.627 418.234 435.482 418.072 470.724 418.072 c 0
 523.374 418.072 535.605 417.921 539.218 417.228 c 0
 562.174 412.82 578.435 393.312 578.435 370.18 c 0
 578.435 347.048 562.174 327.54 539.218 323.133 c 0
 535.575 322.434 521.387 322.289 456.567 322.289 c 2
 378.313 322.289 l 1
 377.982 320.934 l 2
 377.801 320.188 362.94 269.276 344.971 207.831 c 2
 312.29 96.084 l 1
 425.604 95.7852 l 2
 550.001 95.457 539.965 95.7656 549.278 91.9775 c 0
 566.608 84.9297 578.435 67.0479 578.435 47.8906 c 0
 578.435 24.3369 561.229 4.25586 537.952 0.640625 c 0
 534.574 0.116211 484.579 -0.015625 339.76 0.120117 c 2
 146.085 0.300781 l 1
 141.688 1.66406 l 2
 120.186 8.32715 106.627 26.2041 106.627 47.8906 c 0
 106.627 69.5781 120.295 87.5859 141.688 94.085 c 0
 145.97 95.3857 146.958 95.4268 179.368 95.6318 c 0
 197.682 95.748 212.651 95.9648 212.651 96.1143 c 0
 212.651 96.2627 227.434 146.957 245.482 208.704 c 0
 263.531 270.451 278.313 321.295 278.313 321.626 c 0
 278.313 322.029 256.416 322.288 212.199 322.409 c 2
 146.085 322.59 l 1
 141.688 323.946 l 2
 120.222 330.566 106.627 348.494 106.627 370.18 c 0
 106.627 391.867 120.222 409.795 141.688 416.415 c 2
 146.085 417.771 l 1
 226.416 418.072 l 1
 306.748 418.373 l 1
 339.157 529.247 l 2
 356.978 590.211 372.562 642.805 373.775 646.084 c 0
 386.514 680.481 412.319 708.881 445.482 724.998 c 0
 460.368 732.233 474.097 736.377 490.362 738.543 c 0
EndSplineSet
Validated: 33
EndChar

StartChar: yen
Encoding: 165 165 3
Width: 715
Flags: W
DStem2: 269.579 589.367 203.524 512.711 0.504912 -0.863171<32.8153 144.466> 343.766 466.807 390.362 357.048 0.504907 0.863174<0 109.124>
LayerCount: 2
Back
Fore
SplineSet
146.868 739.135 m 0
 157.29 740.892 169.653 738.43 179.037 732.729 c 0
 184.089 729.66 190.451 723.494 193.849 718.373 c 0
 195.41 716.021 229.48 657.981 269.579 589.367 c 2
 342.471 464.639 l 1
 343.766 466.807 l 2
 344.478 468 376.977 523.614 415.965 590.361 c 0
 454.953 657.108 488.087 713.727 489.576 716.145 c 0
 505.787 742.47 540.957 747.64 563.073 726.948 c 0
 567.73 722.591 571.593 717.35 574.098 711.988 c 0
 579.98 699.397 580.014 684.278 574.185 671.988 c 0
 573.242 670 531.489 598.313 481.416 512.711 c 2
 390.362 357.048 l 1
 390.362 347.198 l 1
 390.362 337.349 l 1
 462.591 337.349 l 2
 522.229 337.349 535.587 337.201 539.218 336.505 c 0
 562.174 332.098 578.435 312.59 578.435 289.457 c 0
 578.435 266.324 562.174 246.817 539.218 242.41 c 0
 535.587 241.713 522.229 241.565 462.591 241.565 c 2
 390.362 241.565 l 1
 390.184 140.481 l 2
 389.983 26.7461 390.455 37.5605 385.225 26.8066 c 0
 380.448 16.9873 373.374 9.91016 363.555 5.12695 c 0
 351.311 -0.837891 339.157 -1.53809 326.386 2.9834 c 0
 319.458 5.43652 315.322 8.17188 309.037 14.457 c 0
 302.895 20.5996 300.136 24.6982 297.764 31.2041 c 0
 294.465 40.251 294.579 36.2646 294.579 142.831 c 2
 294.579 241.506 l 1
 220.332 241.687 l 1
 146.085 241.867 l 1
 141.688 243.224 l 2
 120.222 249.843 106.627 267.771 106.627 289.457 c 0
 106.627 311.145 120.222 329.072 141.688 335.691 c 2
 146.085 337.048 l 1
 220.332 337.229 l 1
 294.579 337.409 l 1
 294.579 347.229 l 1
 294.579 357.048 l 1
 203.524 512.711 l 2
 153.452 598.313 111.674 670.108 110.701 672.229 c 0
 105.14 684.354 105.16 699.277 110.756 711.627 c 0
 117.26 725.979 131.024 736.464 146.868 739.135 c 0
EndSplineSet
Validated: 33
EndChar
StartChar: brokenbar
Encoding: 166 166 108
Width: 715
Flags: W
LayerCount: 2
Back
Fore
SplineSet
294.578 476.201 m 1
 294.578 1047.89 l 1
 342.47 1047.89 l 1
 390.361 1047.89 l 1
 390.361 476.201 l 1
 390.361 -95.4854 l 1
 342.47 -95.4854 l 1
 294.578 -95.4854 l 1
 294.578 476.201 l 1
EndSplineSet
Validated: 1
EndChar

StartChar: uni00AD
Encoding: 173 173 104
Width: 715
Flags: W
LayerCount: 2
Back
Fore
SplineSet
146.868 417.472 m 0
 148.425 417.735 236.386 417.979 342.29 418.011 c 0
 551.206 418.076 538.627 418.272 547.832 414.795 c 0
 558.977 410.584 568.927 401.296 574.072 390.301 c 0
 587.459 361.698 569.278 327.787 537.952 322.93 c 0
 534.574 322.405 484.579 322.274 339.76 322.409 c 2
 146.085 322.59 l 1
 141.688 323.952 l 2
 127.591 328.319 116.434 337.865 110.751 350.421 c 0
 105.161 362.771 105.164 377.59 110.759 389.939 c 0
 117.261 404.292 131.024 414.786 146.868 417.472 c 0
EndSplineSet
EndChar
StartChar: acute
Encoding: 180 180 103
Width: 715
Flags: W
LayerCount: 2
Back
Fore
SplineSet
288.855 739.318 m 0
 289.85 739.461 314.759 739.539 344.276 739.49 c 0
 404.518 739.392 400.062 739.719 410.542 734.622 c 0
 420.3 729.876 427.355 722.831 432.246 712.952 c 0
 436.159 705.049 437.041 701.145 437.013 691.867 c 0
 436.988 684.066 436.894 683.554 413.042 561.747 c 0
 399.866 494.458 388.425 437.398 387.604 434.879 c 0
 385.522 428.494 382.393 423.413 377.103 417.831 c 0
 369.006 409.287 359.337 404.337 347.892 402.874 c 0
 340.95 401.987 334.156 402.775 326.807 405.319 c 0
 319.397 407.885 315.461 410.442 309.036 416.867 c 0
 302.671 423.232 299.612 427.951 297.323 434.939 c 0
 296.509 437.426 285.073 494.458 271.897 561.747 c 0
 248.069 683.434 247.951 684.074 247.921 691.867 c 0
 247.896 698.313 248.133 700.541 249.259 704.458 c 0
 251.978 713.916 257.82 722.883 265.181 728.896 c 0
 271.196 733.811 281.204 738.217 288.855 739.318 c 0
EndSplineSet
Validated: 33
EndChar

StartChar: periodcentered
Encoding: 183 183 100
Width: 715
Flags: W
LayerCount: 2
Back
Fore
SplineSet
263.253 235.836 m 0
 266.403 236.472 282.229 236.604 344.276 236.508 c 0
 431.023 236.375 423.381 236.792 434.036 231.609 c 0
 443.855 226.833 450.936 219.759 455.724 209.939 c 0
 460.933 199.259 460.542 206.687 460.542 118.373 c 0
 460.542 30.0605 460.933 37.4883 455.724 26.8066 c 0
 450.936 16.9883 443.855 9.91406 434.036 5.1377 c 0
 423.391 -0.0410156 430.843 0.378906 345.481 0.15332 c 0
 264.156 -0.0615234 264.623 -0.0761719 255.903 2.99805 c 0
 248.976 5.44043 244.839 8.17188 238.554 14.458 c 0
 230.535 22.4766 226.99 29.0361 224.945 39.6387 c 0
 223.679 46.2051 223.679 190.542 224.945 197.108 c 0
 226.99 207.711 230.535 214.271 238.554 222.289 c 0
 246.411 230.146 253.012 233.767 263.253 235.836 c 0
EndSplineSet
EndChar

StartChar: cedilla
Encoding: 15 184 242
Width: 715
Flags: W
LayerCount: 2
Back
Fore
SplineSet
239.759 336.438 m 0
 242.929 337.078 262.831 337.206 344.276 337.109 c 0
 457.53 336.976 446.778 337.441 457.53 332.211 c 0
 467.35 327.435 474.429 320.361 479.218 310.541 c 0
 484.513 299.684 484.036 313.734 484.036 168.674 c 0
 484.036 23.6143 484.513 37.665 479.218 26.8066 c 0
 474.429 16.9873 467.35 9.91406 457.53 5.1377 c 0
 447.666 0.34082 448.373 0.425781 415.964 0.158203 c 0
 384.639 -0.100586 381.525 0.106445 373.373 2.98828 c 0
 366.445 5.4375 362.31 8.17188 356.023 14.457 c 0
 349.882 20.5996 347.123 24.6982 344.751 31.2041 c 0
 341.489 40.1494 341.566 37.9512 341.566 122.65 c 2
 341.566 201.204 l 1
 293.132 201.204 l 2
 241.023 201.204 240.462 201.233 231.807 204.389 c 0
 225.301 206.761 221.202 209.521 215.06 215.662 c 0
 208.918 221.805 206.158 225.903 203.786 232.409 c 0
 200.875 240.396 200.602 243.554 200.602 269.276 c 0
 200.602 295 200.875 298.157 203.786 306.145 c 0
 206.158 312.65 208.918 316.749 215.06 322.892 c 0
 222.917 330.748 229.518 334.368 239.759 336.438 c 0
EndSplineSet
EndChar

StartChar: questiondown
Encoding: 16 191 243
Width: 715
Flags: W
LayerCount: 2
Back
Fore
SplineSet
429.398 739.119 m 0
 440.362 740.975 453.942 737.997 463.073 731.735 c 0
 466.6 729.316 556.868 652.58 563.796 646.112 c 0
 569.868 640.442 574.797 632.229 577.262 623.675 c 2
 578.615 618.976 l 1
 578.615 571.084 l 1
 578.615 523.192 l 1
 577.244 518.434 l 2
 575.526 512.47 571.931 505.498 568.172 500.843 c 0
 566.31 498.536 518.163 456.99 430.995 382.47 c 2
 296.688 267.65 l 1
 296.36 153.554 l 2
 295.992 25.1201 296.495 37.5918 291.248 26.8066 c 0
 286.472 16.9873 279.398 9.91016 269.579 5.12695 c 0
 257.335 -0.837891 245.182 -1.53809 232.41 2.9834 c 0
 225.482 5.43652 221.347 8.17188 215.061 14.457 c 0
 207.042 22.4756 203.497 29.0352 201.452 39.6377 c 0
 200.175 46.2646 200.193 291.027 201.472 297.65 c 0
 203.496 308.132 206.993 314.716 214.782 322.711 c 0
 217.752 325.759 279.277 378.729 351.507 440.422 c 2
 482.832 552.59 l 1
 482.982 571.023 l 1
 483.133 589.458 l 1
 472.44 598.554 l 2
 466.552 603.563 456.146 612.428 449.277 618.283 c 2
 436.808 628.916 l 1
 310.121 520.662 l 2
 240.422 461.105 181.862 411.395 179.94 410.153 c 0
 165.951 401.121 148.555 400.134 133.435 407.516 c 0
 116.687 415.691 106.627 431.747 106.627 450.301 c 0
 106.627 463.976 111.514 475.379 121.507 485.025 c 0
 124.834 488.237 399.398 722.954 406.929 729.024 c 0
 413.121 734.016 421.507 737.783 429.398 739.119 c 0
EndSplineSet
EndChar
StartChar: Adieresis
Encoding: 196 196 110
Width: 715
Flags: W
LayerCount: 2
Back
Fore
SplineSet
334.579 578.018 m 0
 340.37 579.07 344.097 579.064 350.302 577.994 c 0
 361.024 576.144 369.432 571.57 377.184 563.373 c 0
 379.634 560.783 382.507 557.188 383.587 555.361 c 0
 385.901 551.448 575.438 65.6621 577.235 59.0361 c 0
 578.951 52.71 578.923 43.0117 577.169 36.4453 c 0
 570.138 10.1201 543.786 -5.36328 518.193 1.79395 c 0
 505.482 5.34863 493.863 14.7871 488.14 26.2041 c 0
 487.175 28.1279 466.729 80.1807 453.521 114.337 c 2
 451.146 120.481 l 1
 342.501 120.481 l 2
 256.115 120.481 233.794 120.327 233.555 119.729 c 0
 233.389 119.313 225.35 98.6738 215.663 73.7949 c 0
 205.977 48.915 197.528 27.5312 196.86 26.2041 c 0
 194.738 21.9873 190.604 16.6201 186.566 12.8438 c 0
 160.104 -11.9121 116.854 1.14453 107.787 36.626 c 0
 106.355 42.2285 106.247 52.8018 107.564 58.373 c 0
 108.244 61.252 283.138 511.265 297.295 546.566 c 0
 298.721 550.12 301.126 554.877 302.657 557.169 c 0
 306.779 563.339 313.916 569.749 320.302 573.017 c 0
 326.446 576.161 328.688 576.946 334.579 578.018 c 0
378.495 306.626 m 2
 359.185 356.145 343.171 397.27 342.922 397.981 c 0
 342.578 398.968 333.991 377.5 306.898 307.921 c 2
 271.326 216.565 l 1
 307.109 216.415 l 2
 326.808 216.332 358.787 216.332 378.254 216.415 c 2
 413.615 216.565 l 1
 378.495 306.626 l 2
522.29 738.912 m 0
 527.148 739.948 538.013 739.604 543.073 738.254 c 0
 545.081 737.718 549.098 736.113 552.109 734.644 c 0
 561.929 729.853 569.008 722.771 573.796 712.952 c 0
 578.82 702.649 578.542 705.903 578.791 654.518 c 0
 579.031 604.879 578.961 603.465 575.823 594.819 c 0
 571.443 582.748 561.024 572.024 548.916 567.125 c 0
 542.218 564.414 538.073 563.627 530.724 563.669 c 0
 523.133 563.713 516.319 565.289 510.061 568.449 c 0
 496.271 575.411 486.865 587.831 483.977 602.892 c 0
 482.729 609.397 482.728 693.578 483.976 700.061 c 0
 486.028 710.723 489.561 717.271 497.591 725.301 c 0
 505.43 733.14 511.868 736.688 522.29 738.912 c 0
145.783 738.912 m 0
 150.643 739.948 161.507 739.604 166.566 738.254 c 0
 168.575 737.718 172.591 736.113 175.603 734.644 c 0
 185.422 729.853 192.502 722.771 197.29 712.952 c 0
 202.313 702.649 202.035 705.903 202.284 654.518 c 0
 202.524 604.879 202.454 603.465 199.317 594.819 c 0
 194.937 582.748 184.519 572.024 172.41 567.125 c 0
 165.712 564.414 161.566 563.627 154.218 563.669 c 0
 146.627 563.713 139.812 565.289 133.555 568.449 c 0
 119.766 575.411 110.359 587.831 107.47 602.892 c 0
 106.222 609.397 106.222 693.578 107.47 700.061 c 0
 109.522 710.723 113.055 717.271 121.085 725.301 c 0
 128.924 733.14 135.362 736.688 145.783 738.912 c 0
EndSplineSet
Validated: 33
EndChar

StartChar: Aring
Encoding: 197 197 108
Width: 715
Flags: W
LayerCount: 2
Back
Fore
SplineSet
237.952 739.136 m 0
 240.107 739.412 288.193 739.584 344.88 739.518 c 2
 447.893 739.397 l 1
 453.916 738.027 l 2
 470.423 734.273 484.41 727.636 496.085 718.017 c 0
 513.455 703.707 524.561 685.181 529.637 662.048 c 0
 531.018 655.757 531.024 655.481 531.024 611.445 c 0
 531.024 567.409 531.018 567.134 529.637 560.843 c 0
 524.561 537.711 513.455 519.169 496.085 504.829 c 0
 485.347 495.964 471.446 489.06 457.832 485.83 c 0
 455.362 485.245 453.232 484.69 453.133 484.608 c 0
 453.034 484.525 480.651 389.729 514.488 274.006 c 0
 548.326 158.282 576.572 61.5205 577.241 59.0361 c 0
 578.947 52.7012 578.923 42.9512 577.185 36.4453 c 0
 571.152 13.8545 550.568 -1.31738 528.013 0.201172 c 0
 509.218 1.46582 492.756 13.4727 486.251 30.6621 c 0
 485.299 33.1787 476.271 63.5234 466.205 98.042 c 2
 447.893 160.843 l 1
 342.471 160.843 l 1
 237.049 160.843 l 1
 218.374 96.8369 l 2
 208.109 61.6562 199.112 31.3926 198.396 29.6377 c 0
 195.055 21.4453 187.922 12.8818 180.241 7.84082 c 0
 152.919 -10.0938 115.98 4.57812 107.768 36.626 c 0
 106.192 42.7705 106.192 52.9844 107.768 59.0957 c 0
 108.399 61.5469 136.615 158.282 170.452 274.006 c 0
 204.29 389.729 231.907 484.525 231.808 484.608 c 0
 231.709 484.69 229.579 485.247 227.109 485.835 c 0
 214.218 488.906 199.887 495.854 190.061 503.797 c 0
 171.951 518.437 160.465 537.289 155.303 560.843 c 0
 153.924 567.134 153.916 567.409 153.916 611.445 c 0
 153.916 655.481 153.924 655.757 155.303 662.048 c 0
 160.465 685.603 171.951 704.464 190.061 719.122 c 0
 202.625 729.291 220.965 736.955 237.952 739.136 c 0
435.543 611.445 m 1
 435.543 643.976 l 1
 342.471 643.976 l 1
 249.398 643.976 l 1
 249.398 611.445 l 1
 249.398 578.916 l 1
 342.471 578.916 l 1
 435.543 578.916 l 1
 435.543 611.445 l 1
353.977 481.777 m 0
 353.56 483.117 353.435 483.132 342.471 483.132 c 0
 331.507 483.132 331.381 483.117 330.965 481.777 c 0
 330.732 481.031 315.832 430.12 297.862 368.675 c 2
 265.182 256.928 l 1
 304.037 256.776 l 2
 325.422 256.693 360.173 256.693 381.326 256.776 c 2
 419.76 256.928 l 1
 387.079 368.675 l 2
 369.109 430.12 354.208 481.031 353.977 481.777 c 0
EndSplineSet
Validated: 33
EndChar
StartChar: AE
Encoding: 198 198 111
Width: 715
Flags: W
LayerCount: 2
Back
Fore
SplineSet
380.724 738.841 m 0
 386.7 740.051 533.013 740.119 539.278 738.915 c 0
 562.199 734.508 578.435 715 578.435 691.867 c 0
 578.435 668.734 562.174 649.228 539.218 644.82 c 0
 535.657 644.137 525.543 643.976 486.085 643.976 c 2
 437.351 643.976 l 1
 437.351 531.023 l 1
 437.351 418.072 l 1
 486.085 418.072 l 2
 525.543 418.072 535.657 417.911 539.218 417.228 c 0
 562.174 412.82 578.435 393.312 578.435 370.18 c 0
 578.435 347.048 562.174 327.54 539.218 323.133 c 0
 535.657 322.449 525.543 322.289 486.085 322.289 c 2
 437.351 322.289 l 1
 437.351 209.036 l 1
 437.351 95.7822 l 1
 486.085 95.7822 l 2
 525.543 95.7822 535.657 95.6221 539.218 94.9385 c 0
 562.174 90.5312 578.435 71.0234 578.435 47.8906 c 0
 578.435 24.7588 562.199 5.25684 539.278 0.856445 c 0
 532.712 -0.40332 387.807 -0.416992 381.266 0.842773 c 0
 370.604 2.89453 364.056 6.42676 356.024 14.457 c 0
 349.883 20.5996 347.123 24.6982 344.752 31.2041 c 0
 341.552 39.9814 341.566 39.6377 341.567 102.47 c 2
 341.567 160.843 l 1
 294.037 160.843 l 2
 249.338 160.843 246.481 160.78 246.085 159.789 c 0
 245.854 159.209 234.988 129.518 221.958 93.8545 c 0
 208.929 58.1924 197.667 27.8086 196.95 26.3848 c 0
 194.738 21.9873 190.671 16.6836 186.566 12.8438 c 0
 160.104 -11.9121 116.848 1.14453 107.775 36.626 c 0
 106.189 42.8311 106.195 52.9902 107.79 59.0957 c 0
 109.882 67.1084 345.96 712.22 348.192 716.024 c 0
 350.878 720.603 360.688 730.408 365.241 733.065 c 0
 369.486 735.542 375.482 737.779 380.724 738.841 c 0
341.356 256.837 m 0
 341.472 256.953 341.499 293.765 341.416 338.704 c 2
 341.266 420.361 l 1
 311.416 338.645 l 1
 281.566 256.928 l 1
 311.356 256.776 l 2
 327.741 256.694 341.24 256.721 341.356 256.837 c 0
EndSplineSet
Validated: 33
EndChar

StartChar: Ntilde
Encoding: 209 209 112
Width: 715
Flags: W
DStem2: 334.699 327.74 202.711 328.915 0.683171 -0.730258<0 120.966>
LayerCount: 2
Back
Fore
SplineSet
147.591 497.82 m 0
 150.584 498.406 163.013 497.684 166.566 496.717 c 0
 171.446 495.391 179.034 491.682 183.193 488.591 c 0
 185.059 487.205 252.813 415.271 334.699 327.74 c 2
 482.832 169.397 l 1
 483.16 314.096 l 2
 483.529 476.987 482.996 460.539 488.261 471.386 c 0
 494.219 483.657 505 492.638 518.435 496.514 c 0
 524.64 498.305 536.688 498.464 542.771 496.836 c 0
 548.254 495.369 556.848 490.971 561.266 487.371 c 0
 568.635 481.366 574.851 471.687 577.527 462.048 c 0
 578.567 458.304 578.615 448.976 578.615 249.096 c 0
 578.615 49.2168 578.567 39.8887 577.531 36.1445 c 0
 576.929 33.9688 575.271 29.8184 573.801 26.8066 c 0
 569.01 16.9873 561.929 9.91016 552.109 5.12695 c 0
 539.865 -0.837891 527.712 -1.5332 514.94 3.00098 c 0
 508.254 5.37402 504.063 8.07617 497.832 14.0352 c 0
 494.816 16.9189 427.21 88.915 347.53 174.096 c 2
 202.711 328.915 l 1
 202.383 184.156 l 2
 202.014 21.2041 202.548 37.6523 197.272 26.8066 c 0
 192.496 16.9873 185.422 9.91016 175.603 5.12695 c 0
 169.149 1.9834 164.338 0.666992 157.53 0.181641 c 0
 148.735 -0.444336 138.14 2.08008 130.302 6.6709 c 0
 125.783 9.31738 115.94 19.1562 113.292 23.6738 c 0
 110.581 28.2979 108.14 35.3008 107.265 40.9629 c 0
 106.741 44.3555 106.611 96.9873 106.747 252.108 c 0
 106.92 448.855 106.98 458.907 108.021 462.35 c 0
 109.731 468.012 114.103 476.433 117.465 480.542 c 0
 124.729 489.421 135.121 495.381 147.591 497.82 c 0
145.783 738.848 m 0
 147.952 739.285 151.325 739.665 153.344 739.699 c 0
 155.349 739.731 230.543 731.899 320.482 722.289 c 0
 410.423 712.679 484.234 704.9 484.549 705 c 0
 484.862 705.099 485.726 706.867 486.461 708.916 c 0
 488.643 715 491.507 719.217 497.591 725.301 c 0
 503.877 731.587 508.013 734.322 514.94 736.775 c 0
 527.712 741.297 539.865 740.596 552.109 734.632 c 0
 561.929 729.849 569.008 722.771 573.795 712.952 c 0
 578.515 703.272 578.494 703.434 578.758 674.698 c 0
 579.013 646.928 578.768 643.511 575.945 635.481 c 0
 573.637 628.916 570.923 624.617 565.445 618.855 c 0
 557.195 610.176 547.351 605.306 535.604 604.092 c 0
 530.078 603.521 522.531 604.275 366.266 621.024 c 0
 276.326 630.664 202.21 638.486 201.597 638.403 c 0
 200.824 638.299 200.063 637.108 199.115 634.518 c 0
 197.021 628.795 194.153 624.404 188.885 618.855 c 0
 180.884 610.429 171.386 605.604 159.88 604.121 c 0
 149.94 602.84 138.296 605.473 129.398 611.012 c 0
 124.218 614.236 116.314 622.23 113.308 627.289 c 0
 112.196 629.157 110.591 632.59 109.785 634.819 c 0
 106.897 642.806 106.627 645.964 106.627 671.687 c 0
 106.627 697.409 106.899 700.567 109.812 708.555 c 0
 112.184 715.061 114.942 719.159 121.085 725.301 c 0
 128.942 733.158 135.543 736.778 145.783 738.848 c 0
EndSplineSet
EndChar
StartChar: Oslash
Encoding: 216 216 113
Width: 715
Flags: W
LayerCount: 2
Back
Fore
SplineSet
327.591 738.858 m 0
 349.64 741.861 375.653 737.459 396.688 727.166 c 0
 421.692 714.93 440.323 696.386 454 670.12 c 0
 456.164 665.964 458.157 662.762 458.404 663.042 c 0
 458.652 663.323 465.724 675.361 474.098 689.759 c 0
 491.197 719.156 491.81 720.129 496.051 724.639 c 0
 504.226 733.329 515.784 738.725 528.013 739.557 c 0
 547.17 740.861 565.809 729.71 574.093 711.988 c 0
 579.979 699.397 580.014 684.278 574.185 671.988 c 0
 573.243 670.002 558.195 643.976 540.784 614.217 c 2
 509.097 560.061 l 1
 535.151 508.192 l 2
 554.064 470.542 562.133 453.849 564.589 447.289 c 0
 581.612 401.821 583.469 355 570.083 308.734 c 0
 565.099 291.51 563.16 287.409 507 175.301 c 0
 477.215 115.843 451.221 64.4297 449.253 61.084 c 0
 444.257 52.5898 438.766 45.4053 431.666 38.0723 c 0
 394.142 -0.688477 336.326 -10.9658 288.254 12.5781 c 0
 263.249 24.8242 244.618 43.373 230.941 69.6377 c 0
 228.776 73.7949 226.784 76.9971 226.537 76.7168 c 0
 226.288 76.4346 219.217 64.3975 210.842 49.999 c 0
 193.637 20.4209 192.021 17.9492 186.566 12.8457 c 0
 160.104 -11.9111 116.846 1.14453 107.771 36.626 c 0
 105.338 46.1445 106.498 58.4111 110.695 67.5293 c 0
 111.672 69.6504 126.712 95.7227 144.127 125.481 c 2
 175.783 179.578 l 1
 157.26 217.048 l 2
 147.074 237.65 135.834 260.308 132.29 267.379 c 0
 128.757 274.428 124.512 283.48 122.896 287.409 c 0
 115.644 305.051 110.721 324.096 108.042 344.879 c 0
 106.513 356.747 106.512 383.012 108.04 394.879 c 0
 110.679 415.361 115.302 433.462 122.428 451.204 c 0
 126.395 461.084 232.52 673.949 237.005 681.024 c 0
 252.822 705.975 276.326 724.449 303.615 733.383 c 0
 312.317 736.231 318.254 737.587 327.591 738.858 c 0
349.338 643.037 m 0
 339.037 645.461 329.181 642.59 321.741 635 c 0
 318.622 631.818 315.433 625.603 265.603 525.603 c 0
 236.546 467.289 211.809 417.139 210.631 414.156 c 0
 208.059 407.645 205.205 397.048 203.817 388.855 c 0
 202.399 380.481 202.4 359.276 203.82 350.903 c 0
 204.943 344.276 207.729 333.318 209.669 327.892 c 0
 211.068 323.976 233.229 278.911 233.735 278.952 c 0
 234.145 278.985 398.899 560.964 399.601 562.831 c 0
 400.034 563.984 397.272 569.909 383.163 598.103 c 0
 367.275 629.85 365.988 632.203 362.771 635.399 c 0
 358.663 639.481 354.579 641.804 349.338 643.037 c 0
462.865 439.337 m 0
 456.812 451.506 451.76 461.445 451.627 461.445 c 0
 451.205 461.445 284.94 176.687 284.94 175.964 c 0
 284.94 175.565 292.544 160.06 301.838 141.506 c 0
 317.649 109.939 318.956 107.552 322.169 104.359 c 0
 326.278 100.276 330.362 97.9551 335.604 96.7227 c 0
 345.784 94.3291 355.428 97.0361 362.771 104.351 c 0
 366.065 107.631 367.44 110.24 396.416 168.192 c 0
 413.043 201.445 437.259 249.742 450.271 275.602 c 0
 470.612 316.023 474.302 323.769 476.676 331.023 c 0
 482.048 347.447 483.932 362.59 482.656 379.096 c 0
 481.094 399.304 477.817 409.277 462.865 439.337 c 0
EndSplineSet
Validated: 33
EndChar

StartChar: agrave
Encoding: 224 224 114
Width: 715
Flags: HW
LayerCount: 2
Fore
SplineSet
273.122 762.534 m 4
 274.104 762.701 289.442 762.854 307.241 762.873 c 4
 342.043 762.913 342.175 762.906 347.698 760.89 c 4
 351.379 759.545 354.166 757.779 357.413 754.731 c 4
 359.41 752.857 377.438 730.01 419.825 675.624 c 4
 452.599 633.573 443.217 645.116 444 644 c 4
 444.778 642.891 445.793 640.6 446.608 639.123 c 4
 454.741 624.397 451 602 433.74 592.329 c 4
 429.108 589.734 422.998 587.347 417.457 587.372 c 4
 410.55 587.404 401.601 587.999 396 592 c 4
 394.746 592.896 395.517 592.379 346.255 634.522 c 4
 286.558 685.594 255.967 712.008 254.521 713.728 c 4
 247.127 722.53 245.655 735.55 250.86 746.1 c 4
 255.063 754.62 263.596 760.919 273.122 762.534 c 4
EndSplineSet
Refer: 68 97 N 1 0 0 1 0 0 2
Validated: 33
EndChar

StartChar: aacute
Encoding: 225 225 115
Width: 715
Flags: HW
LayerCount: 2
Fore
SplineSet
468.878 762.534 m 4
 467.896 762.701 452.558 762.854 434.759 762.873 c 4
 399.957 762.913 399.825 762.906 394.302 760.89 c 4
 390.621 759.545 387.834 757.779 384.587 754.731 c 4
 382.59 752.857 364.562 730.01 322.175 675.624 c 4
 289.401 633.573 298.783 645.116 298 644 c 4
 297.222 642.891 296.207 640.6 295.392 639.123 c 4
 287.259 624.397 291 602 308.26 592.329 c 4
 312.892 589.734 319.002 587.347 324.543 587.372 c 4
 331.45 587.404 340.399 587.999 346 592 c 4
 347.254 592.896 346.483 592.379 395.745 634.522 c 4
 455.442 685.594 486.033 712.008 487.479 713.728 c 4
 494.873 722.53 496.345 735.55 491.14 746.1 c 4
 486.937 754.62 478.404 760.919 468.878 762.534 c 4
EndSplineSet
Refer: 68 97 N 1 0 0 1 0 0 2
Validated: 41
EndChar
StartChar: eacute
Encoding: 233 233 118
Width: 715
Flags: HW
LayerCount: 2
Fore
SplineSet
468.877929688 762.534179688 m 4
 467.896484375 762.701171875 452.557617188 762.853515625 434.758789062 762.873046875 c 4
 399.95703125 762.913085938 399.825195312 762.90625 394.301757812 760.889648438 c 4
 390.62109375 759.544921875 387.833984375 757.779296875 384.586914062 754.731445312 c 4
 382.58984375 752.857421875 364.561523438 730.009765625 322.174804688 675.624023438 c 4
 289.401367188 633.573242188 298.783203125 645.116210938 298 644 c 4
 297.221679688 642.890625 296.20703125 640.599609375 295.391601562 639.123046875 c 4
 287.258789062 624.397460938 291 602 308.259765625 592.329101562 c 4
 312.891601562 589.734375 319.001953125 587.346679688 324.54296875 587.372070312 c 4
 331.450195312 587.404296875 340.399414062 587.999023438 346 592 c 4
 347.25390625 592.895507812 346.483398438 592.37890625 395.745117188 634.522460938 c 4
 455.442382812 685.59375 486.033203125 712.0078125 487.478515625 713.727539062 c 4
 494.873046875 722.530273438 496.344726562 735.549804688 491.139648438 746.099609375 c 4
 486.936523438 754.620117188 478.404296875 760.918945312 468.877929688 762.534179688 c 4
EndSplineSet
Refer: 72 101 N 1 0 0 1 0 0 2
EndChar

StartChar: odieresis
Encoding: 246 246 0
Width: 715
Flags: W
LayerCount: 2
Back
Fore
SplineSet
317.229 577.896 m 0
 326.813 579.187 357.169 579.22 366.988 577.951 c 0
 397.712 573.982 426.354 558 445.15 534.337 c 0
 447.392 531.516 458.495 515.964 469.88 499.698 c 0
 481.251 483.454 505.89 448.373 524.67 421.687 c 0
 543.449 395 560.159 371.161 561.827 368.675 c 0
 570.7 355.449 575.781 341.928 578.013 325.603 c 0
 578.83 319.628 578.94 313.584 578.735 285.934 c 0
 578.495 253.343 578.493 253.307 576.902 246.023 c 0
 574.218 233.734 569.218 221.284 563.332 212.229 c 0
 561.998 210.176 541.274 180.602 517.32 146.565 c 0
 493.365 112.529 468.214 76.7695 461.477 67.168 c 0
 454.713 57.5293 447.395 47.4033 445.15 44.5781 c 0
 426.354 20.915 397.712 4.92676 366.988 0.946289 c 0
 356.688 -0.387695 328.289 -0.390625 318.013 0.941406 c 0
 287.229 4.93262 258.667 20.8691 239.806 44.5781 c 0
 234.448 51.3105 129.271 201.265 122.004 212.529 c 0
 116.128 221.638 111.324 233.674 108.636 246.023 c 0
 107.05 253.307 107.049 253.343 106.808 285.934 c 0
 106.604 313.584 106.713 319.618 107.527 325.542 c 0
 109.333 338.675 113.425 351.277 119.245 361.626 c 0
 122.069 366.648 134.086 383.976 204.764 484.939 c 0
 239.386 534.397 239.694 534.816 247.277 542.65 c 0
 265.728 561.712 290.784 574.336 317.229 577.896 c 0
362.229 480.903 m 2
 358.133 482.831 l 1
 343.676 482.951 l 2
 335.724 483.018 328.215 482.824 326.988 482.523 c 0
 323.494 481.662 319.007 479.177 316.446 476.685 c 0
 315.155 475.428 306.212 463.132 296.597 449.397 c 0
 286.967 435.641 261.921 399.879 240.904 369.879 c 2
 202.711 315.361 l 1
 202.53 289.759 l 1
 202.35 264.156 l 1
 240.482 209.638 l 2
 261.466 179.638 286.472 143.891 296.085 130.15 c 0
 305.694 116.415 314.721 103.987 316.146 102.529 c 0
 317.576 101.065 320.543 99.0293 322.771 97.9814 c 2
 326.808 96.084 l 1
 342.471 96.084 l 1
 358.133 96.084 l 1
 362.169 97.9814 l 2
 364.398 99.0293 367.365 101.065 368.796 102.529 c 0
 370.219 103.985 385.557 125.392 402.832 150.029 c 0
 420.107 174.668 445.286 210.488 458.705 229.518 c 2
 483.133 264.156 l 1
 483.133 289.156 l 2
 483.133 312.349 483.053 314.287 482.019 315.964 c 0
 481.406 316.957 471.054 331.747 459.037 348.795 c 0
 447.017 365.848 422.438 400.843 404.459 426.506 c 0
 386.479 452.168 370.527 474.495 369.037 476.084 c 0
 367.362 477.87 364.76 479.713 362.229 480.903 c 2
522.29 738.912 m 0
 527.148 739.948 538.013 739.604 543.073 738.254 c 0
 545.081 737.718 549.098 736.113 552.109 734.644 c 0
 561.929 729.853 569.008 722.771 573.796 712.952 c 0
 578.82 702.649 578.542 705.903 578.791 654.518 c 0
 579.031 604.879 578.961 603.465 575.823 594.819 c 0
 571.443 582.748 561.024 572.024 548.916 567.125 c 0
 542.218 564.414 538.073 563.627 530.724 563.669 c 0
 523.133 563.713 516.319 565.289 510.061 568.449 c 0
 496.271 575.411 486.865 587.831 483.977 602.892 c 0
 482.729 609.397 482.728 693.578 483.976 700.061 c 0
 486.028 710.723 489.561 717.271 497.591 725.301 c 0
 505.43 733.14 511.868 736.688 522.29 738.912 c 0
145.783 738.912 m 0
 150.643 739.948 161.507 739.604 166.566 738.254 c 0
 168.575 737.718 172.591 736.113 175.603 734.644 c 0
 185.422 729.853 192.502 722.771 197.29 712.952 c 0
 202.313 702.649 202.035 705.903 202.284 654.518 c 0
 202.524 604.879 202.454 603.465 199.317 594.819 c 0
 194.937 582.748 184.519 572.024 172.41 567.125 c 0
 165.712 564.414 161.566 563.627 154.218 563.669 c 0
 146.627 563.713 139.812 565.289 133.555 568.449 c 0
 119.766 575.411 110.359 587.831 107.47 602.892 c 0
 106.222 609.397 106.222 693.578 107.47 700.061 c 0
 109.522 710.723 113.055 717.271 121.085 725.301 c 0
 128.924 733.14 135.362 736.688 145.783 738.912 c 0
EndSplineSet
Validated: 33
EndChar

StartChar: udieresis
Encoding: 252 252 1
Width: 715
Flags: W
LayerCount: 2
Back
Fore
SplineSet
146.627 578.018 m 0
 152.448 579.076 156.085 579.075 162.229 578.016 c 0
 172.35 576.27 179.721 572.557 187.29 565.394 c 0
 194.227 558.828 197.974 552.53 201.107 542.168 c 0
 202.033 539.106 202.132 523.554 202.41 337.048 c 0
 202.696 145.12 202.765 135.063 203.796 131.626 c 0
 207.935 117.831 217.382 106.547 229.76 100.616 c 0
 240.043 95.6885 230.182 96.084 342.771 96.084 c 0
 455.362 96.084 445.5 95.6885 455.784 100.616 c 0
 468.161 106.547 477.609 117.831 481.748 131.626 c 0
 482.779 135.063 482.847 145.12 483.133 337.048 c 0
 483.415 526.023 483.5 539.073 484.469 542.289 c 0
 488.715 556.386 497.203 567.076 508.977 573.154 c 0
 528.555 583.263 550.5 579.479 565.713 563.373 c 0
 570.771 558.019 573.548 553.675 575.726 547.711 c 0
 579.109 538.446 578.916 551.325 578.916 335.18 c 0
 578.916 140.301 578.889 135.385 577.727 126.385 c 0
 575.572 109.698 571.373 95.8047 563.833 80.4209 c 0
 542.573 37.042 500.965 7.42188 452.531 1.18652 c 0
 443.689 0.0478516 439.218 -0.000976562 342.893 -0.000976562 c 0
 257.109 -0.000976562 241.338 0.131836 234.699 0.908203 c 0
 167.771 8.73145 115.357 61.1191 107.531 128.012 c 0
 106.199 139.397 106.149 532.388 107.479 539.337 c 0
 110.223 553.675 119.758 566.59 132.35 573.023 c 0
 138.494 576.162 140.736 576.946 146.627 578.018 c 0
427.712 738.912 m 0
 432.57 739.948 443.435 739.604 448.495 738.254 c 0
 450.503 737.718 454.519 736.113 457.531 734.644 c 0
 467.351 729.853 474.43 722.771 479.218 712.952 c 0
 484.241 702.649 483.964 705.903 484.212 654.518 c 0
 484.453 604.879 484.383 603.465 481.245 594.819 c 0
 476.865 582.748 466.446 572.024 454.338 567.125 c 0
 447.64 564.414 443.495 563.627 436.146 563.669 c 0
 428.555 563.713 421.74 565.289 415.482 568.449 c 0
 401.693 575.411 392.287 587.831 389.398 602.892 c 0
 388.15 609.397 388.149 693.578 389.397 700.061 c 0
 391.45 710.723 394.982 717.271 403.013 725.301 c 0
 410.852 733.14 417.29 736.688 427.712 738.912 c 0
239.76 738.912 m 0
 244.618 739.948 255.482 739.604 260.543 738.254 c 0
 262.551 737.718 266.566 736.113 269.579 734.644 c 0
 279.398 729.853 286.478 722.771 291.266 712.952 c 0
 296.29 702.649 296.012 705.903 296.261 654.518 c 0
 296.501 604.879 296.431 603.465 293.293 594.819 c 0
 288.913 582.748 278.494 572.024 266.386 567.125 c 0
 259.688 564.414 255.543 563.627 248.193 563.669 c 0
 240.603 563.713 233.789 565.289 227.53 568.449 c 0
 213.741 575.411 204.335 587.831 201.446 602.892 c 0
 200.198 609.397 200.197 693.578 201.445 700.061 c 0
 203.498 710.723 207.03 717.271 215.061 725.301 c 0
 222.899 733.14 229.338 736.688 239.76 738.912 c 0
EndSplineSet
EndChar

StartChar: uni2440
Encoding: 19 9280 246
Width: 715
Flags: W
LayerCount: 2
Back
Fore
SplineSet
295.091 417.771 m 1
 294.88 739.759 l 1
 436.898 739.759 l 1
 578.916 739.759 l 1
 578.916 593.133 l 2
 578.916 434.578 579.081 442.799 575.726 433.614 c 0
 573.548 427.65 570.747 423.272 565.628 417.831 c 0
 557.577 409.272 547.952 404.338 536.446 402.871 c 0
 529.506 401.986 522.712 402.775 515.362 405.319 c 0
 507.952 407.885 504.016 410.442 497.591 416.867 c 0
 491.449 423.009 488.689 427.108 486.318 433.614 c 0
 483.02 442.661 483.133 438.675 483.133 545.241 c 2
 483.133 643.976 l 1
 437.049 643.976 l 1
 390.965 643.976 l 1
 390.965 355.873 l 2
 390.965 197.439 390.788 52.5195 390.573 33.8848 c 2
 390.182 -0.000976562 l 1
 248.404 -0.000976562 l 1
 106.627 -0.000976562 l 1
 106.627 146.626 l 2
 106.627 305.181 106.463 296.959 109.812 306.145 c 0
 112.184 312.65 114.942 316.749 121.085 322.892 c 0
 127.51 329.316 131.446 331.874 138.855 334.439 c 0
 146.205 336.983 152.999 337.771 159.94 336.887 c 0
 171.446 335.42 181.071 330.486 189.122 321.928 c 0
 194.24 316.486 197.041 312.108 199.22 306.145 c 0
 202.524 297.098 202.41 301.084 202.41 194.518 c 2
 202.41 95.7822 l 1
 248.856 95.7822 l 1
 295.302 95.7822 l 1
 295.091 417.771 l 1
EndSplineSet
EndChar
StartChar: uni2441
Encoding: 9281 9281 107
Width: 715
Flags: W
LayerCount: 2
Back
Fore
SplineSet
522.29 738.912 m 0
 527.148 739.948 538.013 739.603 543.073 738.249 c 0
 548.435 736.814 556.989 732.443 561.266 728.953 c 0
 568.635 722.938 574.851 713.253 577.527 703.614 c 0
 578.571 699.857 578.615 686.325 578.615 369.879 c 0
 578.615 53.4336 578.571 39.9014 577.531 36.1445 c 0
 576.929 33.9688 575.271 29.8184 573.801 26.8066 c 0
 569.01 16.9873 561.929 9.91016 552.109 5.12695 c 0
 539.865 -0.837891 527.712 -1.53809 514.94 2.9834 c 0
 508.013 5.43652 503.877 8.17188 497.591 14.457 c 0
 491.449 20.5996 488.689 24.6982 486.318 31.2041 c 0
 482.976 40.373 483.133 32.8311 483.133 183.192 c 2
 483.133 322.289 l 1
 342.771 322.289 l 1
 202.41 322.289 l 1
 202.261 180.903 l 2
 202.093 21.626 202.612 37.7178 197.291 26.8066 c 0
 192.502 16.9873 185.422 9.91016 175.603 5.12695 c 0
 163.359 -0.837891 151.205 -1.53809 138.435 2.9834 c 0
 131.507 5.43652 127.37 8.17188 121.085 14.457 c 0
 114.942 20.5996 112.184 24.6982 109.812 31.2041 c 0
 106.439 40.4541 106.627 28.6738 106.627 231.084 c 2
 106.627 418.072 l 1
 294.88 418.072 l 1
 483.133 418.072 l 1
 483.133 556.867 l 2
 483.133 706.928 482.975 699.385 486.318 708.555 c 0
 488.689 715.061 491.449 719.159 497.591 725.301 c 0
 505.43 733.14 511.868 736.688 522.29 738.912 c 0
EndSplineSet
Validated: 33
EndChar
StartChar: uni2442
Encoding: 9282 9282 106
Width: 715
Flags: W
LayerCount: 2
Back
Fore
SplineSet
145.783 738.912 m 0
 150.643 739.948 161.507 739.604 166.566 738.254 c 0
 168.575 737.718 172.591 736.113 175.603 734.644 c 0
 185.422 729.853 192.502 722.771 197.291 712.952 c 0
 202.613 702.038 202.093 718.133 202.261 559.156 c 2
 202.41 418.072 l 1
 342.771 418.072 l 1
 483.133 418.072 l 1
 483.133 556.867 l 2
 483.133 706.928 482.975 699.385 486.318 708.555 c 0
 488.689 715.061 491.449 719.159 497.591 725.301 c 0
 503.877 731.587 508.013 734.322 514.94 736.775 c 0
 527.712 741.297 539.865 740.604 552.109 734.654 c 0
 558.495 731.552 563.829 727.369 568.111 722.108 c 0
 571.456 717.999 575.812 709.578 577.523 703.916 c 0
 578.562 700.478 578.623 691.054 578.766 511.295 c 2
 578.916 322.289 l 1
 484.64 322.289 l 1
 390.362 322.289 l 1
 390.213 180.903 l 2
 390.045 21.626 390.564 37.7178 385.243 26.8066 c 0
 380.454 16.9873 373.374 9.91016 363.555 5.12695 c 0
 351.311 -0.837891 339.157 -1.53809 326.386 2.9834 c 0
 319.458 5.43652 315.322 8.17188 309.037 14.457 c 0
 302.895 20.5996 300.136 24.6982 297.764 31.2041 c 0
 294.421 40.373 294.579 32.8311 294.579 183.192 c 2
 294.579 322.289 l 1
 200.603 322.289 l 1
 106.627 322.289 l 1
 106.627 508.976 l 2
 106.627 711.024 106.44 699.307 109.812 708.555 c 0
 112.184 715.061 114.942 719.159 121.085 725.301 c 0
 128.924 733.14 135.362 736.688 145.783 738.912 c 0
EndSplineSet
Validated: 33
EndChar
